<?xml version='1.0' encoding='utf-8'?>
<svg width="143.844244mm" height="86.047669mm" viewBox="-71.922122 -48.642389 143.844244 86.047669" version="1.1" xmlns="http://www.w3.org/2000/svg">
  <g transform="scale(1,-1)" stroke-linecap="round">
    <g fill="rgb(255,255,255)" stroke="rgb(0,0,0)" stroke-width="0.1" id="1">
      <line x1="-65.910758" y1="26.845816" x2="-45.354686" y2="33.637915" />
      <line x1="65.84993" y1="15.586154" x2="-12.280482" y2="43.91904" />
      <path d="M -12.280482,43.91904 A 1.3524411998353443,0.46815072696101684 -1.695069400037902e-15 0,1 -14.192606,43.934433" />
      <line x1="-37.64387" y1="36.185709" x2="-14.192606" y2="43.934433" />
      <path d="M -44.753336,32.112711 C -44.050596,32.063098 -43.310407,31.852049 -42.661241,31.500127" />
      <path d="M -42.661241,31.500127 C -42.017156,31.152426 -41.452258,30.656836 -41.148954,30.073801" />
      <path d="M -41.14895,30.073794 Q -40.895347,29.582492 -40.699118,29.202152" />
      <line x1="-66.181495" y1="26.943995" x2="-14.192606" y2="44.122068" />
      <line x1="66.120667" y1="15.675611" x2="-12.280482" y2="44.106676" />
      <path d="M -12.247725,42.853156 Q -12.253247,42.762114 -12.258769,42.671072 Q -12.264221,42.563478 -12.269674,42.455883 Q -12.274988,42.33309 -12.280303,42.210296 Q -12.285413,42.073848 -12.290523,41.937399 Q -12.295363,41.789012 -12.300204,41.640624 Q -12.304715,41.482164 -12.309225,41.323703 Q -12.313349,41.157162 -12.317473,40.990621 Q -12.321159,40.818094 -12.324844,40.645567 Q -12.331539,40.293777 -12.336596,39.936996 Q -12.341157,39.580781 -12.343891,39.233521 Q -12.344817,39.064149 -12.345744,38.894777 Q -12.346054,38.732597 -12.346364,38.570417" />
      <path d="M -12.280482,44.106676 A 1.3524411998353443,0.46815072696101684 -1.695069400037902e-15 0,1 -14.192606,44.122068" />
      <path d="M -33.270423,35.906874 C -33.195881,35.745027 -33.134067,35.513934 -33.084981,35.213595 C -33.03307,34.893451 -33.000118,34.501366 -32.983873,34.062887 C -32.968621,33.66124 -32.967207,33.217149 -32.968885,32.776644" />
      <path d="M -32.968885,32.776636 C -32.970215,32.39482 -33.050387,32.02421 -33.181787,31.686015" />
      <path d="M -33.181787,31.686015 A 6.0,4.071818880111482 70.0675417351828 0,0 -38.985925,27.618048" />
      <path d="M -38.985925,27.618048 A 6.0,4.071818880111482 70.0675417351828 0,0 -40.699118,29.202152" />
      <line x1="-12.346364" y1="15.11596" x2="-12.346364" y2="38.570417" />
      <line x1="-23.448691" y1="11.447549" x2="-12.346364" y2="15.11596" />
      <line x1="-68.184775" y1="27.670456" x2="-14.869272" y2="45.286866" />
      <line x1="-11.571594" y1="45.26032" x2="68.156169" y2="16.348177" />
      <line x1="24.25581" y1="1.842701" x2="-12.346364" y2="15.11596" />
      <path d="M -14.869272,45.286866 A 2.332441199835347,0.8073800498163498 180.0 0,0 -11.571594,45.26032" />
      <path d="M 69.559306,17.528071 A 2.332441199835347,0.8073800498163498 180.0 0,0 70.199212,17.025252" />
      <line x1="15.469986" y1="-1.060295" x2="70.08333" y2="16.984946" />
      <path d="M -70.199212,28.400981 A 2.332441199835347,0.8073800498163498 180.0 0,0 -69.482616,28.930346" />
      <line x1="-69.482616" y1="28.930346" x2="-14.869272" y2="46.975587" />
      <path d="M 10.942275,-1.023847 A 3.202441199835348,1.1085326119430223 -1.695069400037902e-15 0,1 15.469986,-1.060295" />
      <line x1="-11.571594" y1="46.949041" x2="69.559306" y2="17.528071" />
      <path d="M -14.869272,46.975587 A 2.332441199835347,0.8073800498163498 180.0 0,0 -11.571594,46.949041" />
      <path d="M 70.08333,16.984946 A 3.202441199835348,1.1085326119430223 -1.695069400037902e-15 0,1 70.848613,17.377803" />
      <path d="M 70.848613,17.377803 A 3.202441199835348,1.1085326119430223 -1.695069400037902e-15 0,1 70.188626,18.552224" />
      <line x1="10.365356" y1="-1.214471" x2="-70.765544" y2="28.206499" />
      <path d="M 10.365356,-1.214471 A 4.0,1.3846094810421712 -1.695069400037902e-15 0,1 16.020681,-1.259997" />
      <path d="M -70.634025,30.164103 A 4.0,1.3846094810421712 -1.695069400037902e-15 0,1 -71.872122,29.162539" />
      <path d="M -71.872122,29.162539 A 4.0,1.3846094810421712 -1.695069400037902e-15 0,1 -70.765544,28.206499" />
      <line x1="16.020681" y1="-1.259997" x2="70.634025" y2="16.785244" />
      <line x1="-70.634025" y1="30.164103" x2="-16.020681" y2="48.209345" />
      <path d="M 70.634025,16.785244 A 4.0,1.3846094810421712 -1.695069400037902e-15 0,1 71.872122,17.786809" />
      <path d="M 71.872122,17.786809 A 4.0,1.3846094810421712 -1.695069400037902e-15 0,1 70.765544,18.742849" />
      <path d="M -10.365356,48.163819 A 4.0,1.3846094810421712 -1.695069400037902e-15 0,1 -16.020681,48.209345" />
      <line x1="70.765544" y1="18.742849" x2="-10.365356" y2="48.163819" />
      <line x1="-70.188626" y1="28.397124" x2="10.942275" y2="-1.023847" />
      <line x1="70.188626" y1="18.552224" x2="-10.942275" y2="47.973195" />
      <path d="M -10.942275,47.973195 A 3.202441199835348,1.1085326119430223 -1.695069400037902e-15 0,1 -15.469986,48.009643" />
      <line x1="-15.469986" y1="48.009643" x2="-70.08333" y2="29.964402" />
      <path d="M -70.08333,29.964402 A 3.202441199835348,1.1085326119430223 -1.695069400037902e-15 0,1 -70.848613,28.753532" />
      <path d="M -70.848613,28.753532 A 3.202441199835348,1.1085326119430223 -1.695069400037902e-15 0,1 -70.188626,28.397124" />
      <line x1="-70.765544" y1="28.206499" x2="-70.765544" y2="-3.738941" />
      <line x1="-47.461642" y1="-12.189771" x2="-70.765544" y2="-3.738941" />
      <path d="M -47.461642,-12.189771 C -47.147921,-12.303021 -46.834151,-12.340154 -46.499611,-12.303624" />
      <line x1="-42.900558" y1="-13.608769" x2="-46.499611" y2="-12.303624" />
      <path d="M -42.900558,-13.608769 C -42.566019,-13.887932 -42.252248,-14.078367 -41.938527,-14.19265" />
      <line x1="-18.461661" y1="-22.706203" x2="-41.938527" y2="-14.19265" />
      <path d="M -18.461661,-22.706203 C -18.14794,-22.819452 -17.834169,-22.856586 -17.49963,-22.820056" />
      <line x1="-13.900577" y1="-24.125201" x2="-17.49963" y2="-22.820056" />
      <path d="M -13.900577,-24.125201 C -13.566037,-24.404364 -13.252267,-24.594799 -12.938546,-24.709082" />
      <line x1="10.365356" y1="-33.159911" x2="-12.938546" y2="-24.709082" />
      <line x1="10.365356" y1="-33.159911" x2="10.365356" y2="-1.214471" />
      <line x1="16.020681" y1="-33.205437" x2="16.020681" y2="-1.259997" />
      <path d="M 15.834059,-33.270709 Q 15.92998,-33.235415 16.020681,-33.205437" />
      <path d="M 10.544,-33.228124 C 11.247559,-33.511476 12.198708,-33.679054 13.16502,-33.685447 C 14.131691,-33.694779 15.100444,-33.54264 15.834059,-33.270709" />
      <path d="M 10.365356,-33.159911 Q 10.451936,-33.191316 10.544,-33.228124" />
      <path d="M -70.932829,-3.681708 Q -70.852098,-3.707562 -70.765544,-3.738941" />
      <path d="M -71.872122,-2.880149 Q -71.871119,-3.118725 -71.638714,-3.322167" />
      <path d="M -71.638714,-3.322167 Q -71.394821,-3.533456 -70.932829,-3.681708" />
      <line x1="70.634025" y1="-15.160196" x2="70.634025" y2="16.785244" />
      <line x1="46.220414" y1="-23.226897" x2="70.634025" y2="-15.160196" />
      <path d="M 46.220414,-23.226897 C 45.891753,-23.334976 45.563041,-23.366937 45.212571,-23.324892" />
      <line x1="41.442135" y1="-24.570713" x2="45.212571" y2="-23.324892" />
      <path d="M 41.442135,-24.570713 C 41.091665,-24.844361 40.762953,-25.029624 40.434293,-25.138736" />
      <line x1="16.020681" y1="-33.205437" x2="40.434293" y2="-25.138736" />
      <path d="M 70.809804,-15.105724 C 71.170253,-15.002072 71.452536,-14.866253 71.63353,-14.708118" />
      <path d="M 71.63353,-14.708118 Q 71.871096,-14.500107 71.872122,-14.255878" />
      <path d="M 70.634025,-15.160196 Q 70.724701,-15.130243 70.809804,-15.105724" />
      <line x1="-68.663567" y1="-5.875091" x2="-45.186701" y2="-14.388644" />
      <path d="M -45.186701,-14.388644 A 0.6045166004060953,0.20925485409241532 -1.695069400037902e-15 0,1 -44.332017,-14.395524" />
      <path d="M -39.78817,-16.324245 A 0.6045166004060953,0.20925485409241532 -1.695069400037902e-15 0,1 -39.663586,-16.391523" />
      <line x1="-39.663586" y1="-16.391523" x2="-16.18672" y2="-24.905076" />
      <path d="M -16.18672,-24.905076 A 0.6045166004060953,0.20925485409241532 -1.695069400037902e-15 0,1 -15.332035,-24.911956" />
      <path d="M -10.788188,-26.840677 A 0.6045166004060953,0.20925485409241532 -1.695069400037902e-15 0,1 -10.663604,-26.907955" />
      <line x1="-10.663604" y1="-26.907955" x2="12.813262" y2="-35.421508" />
      <line x1="13.667946" y1="-35.428388" x2="38.262758" y2="-27.301815" />
      <path d="M 12.813262,-35.421508 A 0.6045166004060953,0.20925485409241532 -1.695069400037902e-15 0,1 13.667946,-35.428388" />
      <path d="M -68.788151,-5.807813 A 0.6045166004060953,0.20925485409241532 -1.695069400037902e-15 0,1 -68.663567,-5.875091" />
      <line x1="44.048879" y1="-25.389976" x2="68.643691" y2="-17.263403" />
      <path d="M 43.194194,-25.383095 A 0.6045166004060953,0.20925485409241532 -1.695069400037902e-15 0,1 44.048879,-25.389976" />
      <path d="M 38.262758,-27.301815 A 0.6045166004060953,0.20925485409241532 -1.695069400037902e-15 0,1 38.407218,-27.227657" />
      <path d="M 68.643691,-17.263403 A 0.6045166004060953,0.20925485409241532 -1.695069400037902e-15 0,1 68.788151,-17.189244" />
      <line x1="-68.663567" y1="-7.563812" x2="-45.186701" y2="-16.077365" />
      <path d="M -45.186701,-16.077365 A 0.6045166004060953,0.20925485409241532 -1.695069400037902e-15 0,1 -44.332017,-16.084245" />
      <line x1="-44.332017" y1="-14.395524" x2="-42.640867" y2="-13.836737" />
      <path d="M -39.830822,-17.935759 A 0.6045166004060953,0.20925485409241532 -1.695069400037902e-15 0,1 -39.78817,-18.012966" />
      <path d="M -39.78817,-18.012966 A 0.6045166004060953,0.20925485409241532 -1.695069400037902e-15 0,1 -39.663586,-18.080244" />
      <line x1="-39.663586" y1="-18.080244" x2="-16.18672" y2="-26.593797" />
      <path d="M -16.18672,-26.593797 A 0.6045166004060953,0.20925485409241532 -1.695069400037902e-15 0,1 -15.332035,-26.600677" />
      <line x1="-15.332035" y1="-24.911956" x2="-13.640885" y2="-24.353169" />
      <path d="M -10.830841,-28.452191 A 0.6045166004060953,0.20925485409241532 -1.695069400037902e-15 0,1 -10.788188,-28.529398" />
      <path d="M -10.788188,-28.529398 A 0.6045166004060953,0.20925485409241532 -1.695069400037902e-15 0,1 -10.663604,-28.596676" />
      <line x1="-10.663604" y1="-28.596676" x2="12.813262" y2="-37.110229" />
      <line x1="13.667946" y1="-37.117109" x2="38.262758" y2="-28.990536" />
      <path d="M 12.813262,-37.110229 A 0.6045166004060953,0.20925485409241532 -1.695069400037902e-15 0,1 13.667946,-37.117109" />
      <path d="M -68.830803,-7.419327 A 0.6045166004060953,0.20925485409241532 -1.695069400037902e-15 0,1 -68.788151,-7.496534" />
      <path d="M -68.788151,-7.496534 A 0.6045166004060953,0.20925485409241532 -1.695069400037902e-15 0,1 -68.663567,-7.563812" />
      <line x1="44.048879" y1="-27.078697" x2="68.643691" y2="-18.952124" />
      <line x1="41.307292" y1="-24.698837" x2="43.194194" y2="-25.383095" />
      <path d="M 43.194194,-27.071816 A 0.6045166004060953,0.20925485409241532 -1.695069400037902e-15 0,1 44.048879,-27.078697" />
      <path d="M 38.262758,-28.990536 A 0.6045166004060953,0.20925485409241532 -1.695069400037902e-15 0,1 38.407218,-28.916378" />
      <path d="M 38.407218,-28.916378 A 0.6045166004060953,0.20925485409241532 -1.695069400037902e-15 0,1 38.44987,-28.839171" />
      <path d="M 68.643691,-18.952124 A 0.6045166004060953,0.20925485409241532 -1.695069400037902e-15 0,1 68.788151,-18.877965" />
      <path d="M 68.788151,-18.877965 A 0.6045166004060953,0.20925485409241532 -1.695069400037902e-15 0,1 68.830803,-18.800758" />
      <line x1="-68.443293" y1="-7.776721" x2="-44.966427" y2="-16.290273" />
      <line x1="-44.332017" y1="-16.084245" x2="-41.236411" y2="-15.061401" />
      <path d="M -44.542278,-16.293688 A 0.30000000000000154,0.10384571107816337 180.0 0,0 -44.966427,-16.290273" />
      <path d="M -39.443312,-18.293153 A 0.30000000000000154,0.10384571107816337 180.0 0,0 -39.505139,-18.259765" />
      <line x1="-39.443312" y1="-18.293153" x2="-15.966446" y2="-26.806705" />
      <line x1="-15.332035" y1="-26.600677" x2="-12.23643" y2="-25.577833" />
      <path d="M -15.542297,-26.81012 A 0.30000000000000154,0.10384571107816337 180.0 0,0 -15.966446,-26.806705" />
      <path d="M -10.443331,-28.809585 A 0.30000000000000154,0.10384571107816337 180.0 0,0 -10.505157,-28.776197" />
      <line x1="-10.443331" y1="-28.809585" x2="13.033535" y2="-37.323137" />
      <line x1="13.457685" y1="-37.326552" x2="38.052497" y2="-29.199979" />
      <path d="M 13.457685,-37.326552 A 0.30000000000000154,0.10384571107816337 180.0 0,0 13.033535,-37.323137" />
      <path d="M -68.443293,-7.776721 A 0.30000000000000154,0.10384571107816337 180.0 0,0 -68.50512,-7.743333" />
      <line x1="43.838618" y1="-27.288139" x2="68.433429" y2="-19.161566" />
      <line x1="39.939486" y1="-25.891543" x2="43.194194" y2="-27.071816" />
      <path d="M 43.838618,-27.288139 A 0.30000000000000154,0.10384571107816337 180.0 0,0 43.414468,-27.284725" />
      <path d="M 38.124187,-29.163177 A 0.30000000000000154,0.10384571107816337 180.0 0,0 38.052497,-29.199979" />
      <path d="M 68.50512,-19.124764 A 0.30000000000000154,0.10384571107816337 180.0 0,0 68.433429,-19.161566" />
      <line x1="-44.542278" y1="-16.293688" x2="-41.120004" y2="-15.162906" />
      <line x1="-15.542297" y1="-26.81012" x2="-12.120023" y2="-25.679338" />
      <line x1="39.831737" y1="-25.985498" x2="43.414468" y2="-27.284725" />
      <line x1="-63.423359" y1="25.943796" x2="-44.753336" y2="32.112711" />
      <path d="M -44.753336,32.112711 C -45.34044,32.590626 -45.550349,33.123021 -45.354686,33.637915" />
      <line x1="64.329118" y1="15.08365" x2="-12.247725" y2="42.853156" />
      <line x1="-33.270423" y1="35.906874" x2="-12.247725" y2="42.853156" />
      <path d="M -37.64387,36.185709 C -36.148903,36.229429 -34.622289,36.132098 -33.270423,35.906874" />
      <line x1="-57.290871" y1="23.719936" x2="-40.699118" y2="29.202152" />
      <path d="M -45.354686,33.637915 C -44.465694,33.931654 -43.797467,34.152449 -43.18642,34.35435 C -42.579044,34.555038 -42.040348,34.733033 -41.499278,34.911812 C -40.958208,35.090592 -40.419512,35.268586 -39.812136,35.469274 C -39.201089,35.671176 -38.532862,35.89197 -37.64387,36.185709" />
      <line x1="-14.192606" y1="43.934433" x2="-14.192606" y2="44.122068" />
      <path d="M -42.592586,31.462242 Q -42.582333,31.549011 -42.549942,31.635126" />
      <path d="M -45.354686,33.637915 C -44.783225,33.615643 -44.151975,33.415304 -43.637138,33.044015 C -43.118655,32.677439 -42.736953,32.154458 -42.549942,31.635126" />
      <line x1="-12.280482" y1="43.91904" x2="-12.280482" y2="44.106676" />
      <line x1="58.097989" y1="13.024772" x2="-12.346364" y2="38.570417" />
      <line x1="-33.181787" y1="31.686015" x2="-12.346364" y2="38.570417" />
      <path d="M -37.64387,36.185709 C -37.596096,35.990401 -37.543325,35.598922 -37.500285,35.071742 C -37.45694,34.548173 -37.42503,33.909613 -37.409397,33.333656" />
      <path d="M -37.409397,33.333656 C -35.78835,33.383307 -34.121733,33.174253 -32.968885,32.776644" />
      <path d="M -42.549942,31.635126 C -42.469656,31.858874 -42.337624,32.241916 -42.07968,32.589032 C -41.825133,32.940162 -41.448931,33.25719 -40.969953,33.4121 C -40.49249,33.573215 -39.916205,33.570907 -39.303294,33.5064 C -38.689341,33.447375 -38.045858,33.320577 -37.409397,33.333656" />
      <line x1="-14.192606" y1="44.122068" x2="-14.869272" y2="45.286866" />
      <line x1="-12.280482" y1="44.106676" x2="-11.571594" y2="45.26032" />
      <line x1="69.559306" y1="16.811799" x2="69.559306" y2="17.528071" />
      <line x1="-69.482616" y1="28.141099" x2="-69.482616" y2="28.930346" />
      <line x1="-14.869272" y1="45.286866" x2="-14.869272" y2="46.975587" />
      <line x1="-11.571594" y1="45.26032" x2="-11.571594" y2="46.949041" />
      <line x1="69.559306" y1="17.528071" x2="70.188626" y2="18.552224" />
      <line x1="-69.482616" y1="28.930346" x2="-70.08333" y2="29.964402" />
      <line x1="-14.869272" y1="46.975587" x2="-15.469986" y2="48.009643" />
      <line x1="-11.571594" y1="46.949041" x2="-10.942275" y2="47.973195" />
      <line x1="-47.461642" y1="-12.189771" x2="-45.186701" y2="-14.388644" />
      <line x1="-70.932829" y1="-3.681708" x2="-68.663567" y2="-5.875091" />
      <line x1="-43.370942" y1="-13.438192" x2="-44.332017" y2="-14.395524" />
      <line x1="-41.938527" y1="-14.19265" x2="-39.663586" y2="-16.391523" />
      <line x1="-18.461661" y1="-22.706203" x2="-16.18672" y2="-24.905076" />
      <line x1="-14.37096" y1="-23.954623" x2="-15.332035" y2="-24.911956" />
      <line x1="-12.938546" y1="-24.709082" x2="-10.663604" y2="-26.907955" />
      <line x1="10.544" y1="-33.228124" x2="12.813262" y2="-35.421508" />
      <line x1="40.434293" y1="-25.138736" x2="38.262758" y2="-27.301815" />
      <line x1="15.834059" y1="-33.270709" x2="13.667946" y2="-35.428388" />
      <line x1="70.809804" y1="-15.105724" x2="68.643691" y2="-17.263403" />
      <line x1="46.220414" y1="-23.226897" x2="44.048879" y2="-25.389976" />
      <line x1="42.121477" y1="-24.346246" x2="43.194194" y2="-25.383095" />
      <line x1="-68.663567" y1="-5.875091" x2="-68.663567" y2="-7.563812" />
      <line x1="-45.186701" y1="-14.388644" x2="-45.186701" y2="-16.077365" />
      <line x1="-44.332017" y1="-14.395524" x2="-44.332017" y2="-16.084245" />
      <line x1="-39.663586" y1="-16.391523" x2="-39.663586" y2="-18.080244" />
      <line x1="-16.18672" y1="-24.905076" x2="-16.18672" y2="-26.593797" />
      <line x1="-15.332035" y1="-24.911956" x2="-15.332035" y2="-26.600677" />
      <line x1="-10.663604" y1="-26.907955" x2="-10.663604" y2="-28.596676" />
      <line x1="12.813262" y1="-35.421508" x2="12.813262" y2="-37.110229" />
      <line x1="13.667946" y1="-35.428388" x2="13.667946" y2="-37.117109" />
      <line x1="38.262758" y1="-27.301815" x2="38.262758" y2="-28.990536" />
      <line x1="44.048879" y1="-25.389976" x2="44.048879" y2="-27.078697" />
      <line x1="68.643691" y1="-17.263403" x2="68.643691" y2="-18.952124" />
      <line x1="43.194194" y1="-25.383095" x2="43.194194" y2="-27.071816" />
      <line x1="-45.186701" y1="-16.077365" x2="-44.966427" y2="-16.290273" />
      <line x1="-68.663567" y1="-7.563812" x2="-68.443293" y2="-7.776721" />
      <line x1="-44.332017" y1="-16.084245" x2="-44.542278" y2="-16.293688" />
      <line x1="-39.663586" y1="-18.080244" x2="-39.443312" y2="-18.293153" />
      <line x1="-16.18672" y1="-26.593797" x2="-15.966446" y2="-26.806705" />
      <line x1="-15.332035" y1="-26.600677" x2="-15.542297" y2="-26.81012" />
      <line x1="-10.663604" y1="-28.596676" x2="-10.443331" y2="-28.809585" />
      <line x1="12.813262" y1="-37.110229" x2="13.033535" y2="-37.323137" />
      <line x1="38.262758" y1="-28.990536" x2="38.052497" y2="-29.199979" />
      <line x1="13.667946" y1="-37.117109" x2="13.457685" y2="-37.326552" />
      <line x1="68.643691" y1="-18.952124" x2="68.433429" y2="-19.161566" />
      <line x1="44.048879" y1="-27.078697" x2="43.838618" y2="-27.288139" />
      <line x1="43.194194" y1="-27.071816" x2="43.414468" y2="-27.284725" />
      <path d="M -42.661241,31.500127 C -42.795098,31.572264 -42.856936,31.622283 -42.85616,31.622129" />
      <path d="M -42.85616,31.622129 Q -42.854675,31.622595 -42.813509,31.579214" />
      <line x1="-71.872122" y1="29.162539" x2="-71.872122" y2="-2.880149" />
      <line x1="71.872122" y1="17.786809" x2="71.872122" y2="-14.255878" />
      <line x1="-39.78817" y1="-16.324245" x2="-42.903545" y2="-13.607686" />
      <line x1="-10.788188" y1="-26.840677" x2="-13.903563" y2="-24.124118" />
      <line x1="-68.788151" y1="-5.807813" x2="-71.638714" y2="-3.322167" />
      <line x1="38.407218" y1="-27.227657" x2="41.461603" y2="-24.564281" />
      <line x1="68.788151" y1="-17.189244" x2="71.63353" y2="-14.708118" />
      <line x1="-39.830822" y1="-17.935759" x2="-39.830822" y2="-16.287053" />
      <line x1="-10.830841" y1="-28.452191" x2="-10.830841" y2="-26.803485" />
      <line x1="-68.830803" y1="-7.419327" x2="-68.830803" y2="-5.770621" />
      <line x1="38.44987" y1="-28.839171" x2="38.44987" y2="-27.190465" />
      <line x1="68.830803" y1="-18.800758" x2="68.830803" y2="-17.152052" />
      <line x1="-39.505139" y1="-18.259765" x2="-39.78817" y2="-18.012966" />
      <line x1="-10.505157" y1="-28.776197" x2="-10.788188" y2="-28.529398" />
      <line x1="-68.50512" y1="-7.743333" x2="-68.788151" y2="-7.496534" />
      <line x1="38.124187" y1="-29.163177" x2="38.407218" y2="-28.916378" />
      <line x1="68.50512" y1="-19.124764" x2="68.788151" y2="-18.877965" />
    </g>
  </g>
</svg>