<?xml version="1.0" encoding="UTF-8" standalone="no"?>
<!-- Created with Inkscape (http://www.inkscape.org/) -->

<svg
   width="63.138603mm"
   height="65.08992mm"
   viewBox="0 0 63.138603 65.08992"
   version="1.1"
   id="svg5273"
   xml:space="preserve"
   inkscape:export-filename="mapa.svg"
   inkscape:export-xdpi="96"
   inkscape:export-ydpi="96"
   inkscape:version="1.2.2 (b0a8486541, 2022-12-01)"
   sodipodi:docname="mapa.svg"
   xmlns:inkscape="http://www.inkscape.org/namespaces/inkscape"
   xmlns:sodipodi="http://sodipodi.sourceforge.net/DTD/sodipodi-0.dtd"
   xmlns="http://www.w3.org/2000/svg"
   xmlns:svg="http://www.w3.org/2000/svg"><sodipodi:namedview
     id="namedview5275"
     pagecolor="#ffffff"
     bordercolor="#000000"
     borderopacity="0.25"
     inkscape:showpageshadow="2"
     inkscape:pageopacity="0.0"
     inkscape:pagecheckerboard="0"
     inkscape:deskcolor="#d1d1d1"
     inkscape:document-units="mm"
     showgrid="false"
     inkscape:zoom="0.4204826"
     inkscape:cx="-552.93607"
     inkscape:cy="325.8161"
     inkscape:window-width="2468"
     inkscape:window-height="1428"
     inkscape:window-x="0"
     inkscape:window-y="0"
     inkscape:window-maximized="1"
     inkscape:current-layer="layer1" /><defs
     id="defs5270" /><g
     inkscape:label="Layer 1"
     inkscape:groupmode="layer"
     id="layer1"
     transform="translate(-90.54894,-115.80439)"><path
       style="fill:#000000;stroke-width:0.0423333"
       d="m 123.42863,180.88627 c -0.13673,-0.0389 -0.15385,-0.63213 -0.022,-0.76384 0.0288,-0.0288 0.18353,-0.0799 0.34378,-0.11344 0.31805,-0.0667 0.36318,-0.10548 0.36415,-0.3134 5.1e-4,-0.10379 -0.0427,-0.18561 -0.17237,-0.32624 -0.21114,-0.22906 -1.4055,-1.03093 -2.23998,-1.50389 -1.21545,-0.68888 -1.45415,-0.85978 -2.159,-1.54572 -0.45385,-0.44166 -0.7271,-0.67371 -0.88621,-0.75258 -0.22174,-0.10991 -0.24724,-0.11304 -0.70686,-0.0868 -0.41056,0.0234 -0.49232,0.0171 -0.58841,-0.0459 -0.21789,-0.14276 -0.27788,-0.56532 -0.12577,-0.88587 0.10906,-0.22982 0.46828,-0.57371 0.93836,-0.89829 2.29588,-1.58525 2.81779,-1.9777 3.40187,-2.55804 0.71878,-0.71416 1.13499,-1.42919 1.23778,-2.12643 0.10708,-0.72641 -0.12041,-1.30528 -1.28635,-3.27324 -0.11106,-0.18746 -0.4779,-0.73014 -0.8152,-1.20596 -0.3373,-0.47582 -0.7136,-1.03178 -0.83622,-1.23547 -0.467,-0.77572 -0.85694,-1.00612 -1.70402,-1.00681 -0.87618,-7.2e-4 -1.38621,-0.2753 -1.68086,-0.90495 -0.25995,-0.55551 -0.32858,-1.45839 -0.21275,-2.79897 0.0648,-0.75008 0.0962,-0.92594 0.31332,-1.75683 0.24636,-0.94269 0.24807,-1.47014 0.006,-1.88995 -0.0556,-0.0965 -0.28293,-0.33096 -0.50514,-0.52103 -0.5548,-0.47455 -0.59539,-0.54575 -0.6527,-1.14502 -0.0694,-0.72614 -0.0226,-0.66402 -0.52568,-0.69661 -1.22052,-0.079 -1.67274,-0.22977 -2.04221,-0.68066 -0.28541,-0.34831 -0.45015,-0.85289 -0.52475,-1.60723 -0.12489,-1.26287 -0.1758,-1.47324 -0.45465,-1.87851 -0.25248,-0.36693 -0.56677,-0.57413 -1.3197,-0.87003 -0.60806,-0.23897 -0.91334,-0.40877 -1.44168,-0.80189 -0.83345,-0.62015 -1.50726,-0.981 -2.14491,-1.14866 -0.13706,-0.036 -0.5556,-0.10204 -0.93009,-0.14667 -1.03656,-0.12352 -1.3746,-0.29414 -1.64216,-0.82884 -0.22322,-0.4461 -0.23207,-0.68102 -0.0664,-1.76266 0.0452,-0.29531 0.0823,-0.61346 0.0823,-0.707 0,-0.25872 -0.0804,-0.57876 -0.1841,-0.73261 -0.38873,-0.57683 -1.06419,-0.42685 -2.80233,0.62226 -0.41804,0.25233 -0.9601,0.60805 -1.20457,0.79051 -0.590743,0.44089 -0.77211,0.52426 -1.420021,0.6528 -1.066507,0.21158 -1.978519,0.20114 -2.458919,-0.0281 -0.39604,-0.18901 -0.440909,-0.27908 -0.431035,-0.86524 0.0092,-0.54513 -0.03588,-0.73313 -0.252247,-1.05244 -0.19827,-0.29259 -0.469518,-0.58606 -0.515452,-0.55767 -0.01919,0.0119 -0.04832,0.11114 -0.06474,0.22062 -0.03928,0.26194 -0.244597,0.47951 -0.451936,0.47891 -0.196068,-5.7e-4 -0.516325,-0.15832 -0.985433,-0.48538 -0.558415,-0.38933 -0.632019,-0.41549 -0.998667,-0.35494 -0.77156,0.12742 -1.09265,-0.27813 -1.737733,-2.19482 -0.406363,-1.20739 -0.463912,-1.67027 -0.25784,-2.07383 0.09522,-0.18648 0.08613,-0.18382 0.397321,-0.11634 0.178682,0.0387 0.277292,-0.0136 0.391029,-0.20772 0.15218,-0.25968 0.226514,-0.49176 0.347707,-1.08558 0.197198,-0.96625 0.476668,-1.59657 0.887714,-2.00218 0.132829,-0.13108 0.369971,-0.28654 0.671085,-0.43994 0.256117,-0.13047 0.51911,-0.27467 0.58443,-0.32043 0.118681,-0.0832 0.118976,-0.0831 0.423334,0.0159 0.896812,0.29168 2.193612,-0.15739 2.56655,-0.88877 0.170267,-0.33391 0.723712,-1.70677 0.88965,-2.20685 0.284806,-0.85829 0.343194,-1.14564 0.369878,-1.82033 0.04139,-1.0465 -0.07077,-1.31567 -0.875975,-2.10223 -0.653493,-0.63836 -0.858729,-0.91236 -0.838891,-1.11998 0.01237,-0.12948 0.03001,-0.14673 0.183024,-0.17896 0.606602,-0.1278 0.991599,-0.3263 1.185063,-0.611 0.110327,-0.16237 0.136661,-0.24505 0.06368,-0.19994 -0.02333,0.0144 -0.178145,0.0129 -0.344025,-0.004 -0.50764,-0.05 -0.691145,-0.29963 -0.539689,-0.7341 0.02857,-0.082 0.09188,-0.15389 0.15875,-0.18035 0.06117,-0.0242 0.482696,-0.0602 0.936721,-0.08 1.110661,-0.0484 1.283009,-0.0988 2.002267,-0.58579 0.54837,-0.37127 0.7567,-0.46738 1.01567,-0.46857 0.38888,-0.002 0.70032,0.25981 1.23372,1.03624 0.15996,0.23283 0.32937,0.4662 0.37647,0.51858 l 0.0856,0.0952 h 1.52048 1.52048 l 0.37262,-0.19245 c 0.33387,-0.17244 0.37478,-0.20655 0.39333,-0.32808 0.035,-0.22926 -0.0447,-0.87873 -0.15436,-1.25747 -0.20763,-0.71732 -0.24513,-0.91353 -0.27916,-1.46071 -0.0457,-0.73501 -0.1436,-0.92995 -0.58882,-1.17257 -0.13548,-0.0738 -0.15713,-0.14328 -0.13587,-0.43588 0.013,-0.17835 0.10764,-0.23291 0.40321,-0.23233 0.31468,6.2e-4 0.54286,0.063 1.15266,0.31525 0.50031,0.20694 0.86461,0.2901 1.08612,0.24794 0.17494,-0.0333 0.4077,-0.14979 0.74822,-0.37446 0.46061,-0.3039 0.56866,-0.33257 1.13626,-0.30142 0.45534,0.025 0.50906,0.0197 0.69358,-0.068 0.2778,-0.13199 0.82755,-0.6229 1.39206,-1.24306 l 0.47711,-0.52414 h 0.2188 0.21879 l 0.0266,0.25416 c 0.0146,0.13979 0.0929,0.43135 0.17404,0.6479 0.29239,0.78066 0.28973,0.95456 -0.0295,1.9278 -0.17477,0.53289 -0.17568,0.53901 -0.17769,1.19181 -0.002,0.74215 0.0544,1.03811 0.29677,1.54971 0.47198,0.99625 1.34928,1.25567 3.05467,0.90327 0.22752,-0.047 0.80419,-0.15216 1.2815,-0.23366 0.47731,-0.0815 1.07738,-0.19582 1.3335,-0.25404 0.25612,-0.0582 0.51613,-0.11666 0.5778,-0.12984 l 0.11213,-0.024 -0.10155,-0.14964 c -0.28979,-0.42704 0.0766,-0.83318 0.90664,-1.00504 0.61643,-0.12763 1.00409,-0.0546 1.78128,0.33577 0.98725,0.49583 1.49903,0.49091 2.26557,-0.0218 0.57282,-0.38313 1.21563,-1.17746 1.36272,-1.68395 0.20567,-0.70818 0.28552,-0.92782 0.38455,-1.05765 0.29151,-0.38219 0.91453,-0.32605 1.21029,0.10906 0.16204,0.23837 0.23765,0.50363 0.38928,1.36568 0.15536,0.88321 0.19219,0.97563 0.73224,1.83736 0.37921,0.60509 0.60537,1.0779 0.71058,1.48556 0.31778,1.23127 1.05543,2.03796 2.49547,2.72905 0.48601,0.23324 0.83162,0.3692 2.54,0.99921 0.4191,0.15456 1.01918,0.40177 1.3335,0.54936 0.47286,0.22203 0.65553,0.28393 1.05834,0.35863 0.26775,0.0497 0.56657,0.12534 0.66403,0.16819 0.10418,0.0458 0.39226,0.28515 0.69918,0.58091 0.47238,0.45519 0.55128,0.51386 0.83002,0.61718 0.16941,0.0628 0.4739,0.14431 0.67664,0.18115 1.42911,0.25965 1.52257,0.29416 2.46413,0.90996 1.04752,0.68511 1.3699,0.77788 2.92462,0.84155 0.56845,0.0233 1.15737,0.0625 1.30871,0.0872 0.84819,0.13844 1.40214,0.47854 2.41692,1.48391 0.72752,0.72076 0.9574,0.89422 1.34462,1.01455 0.30912,0.0961 0.97375,0.11239 1.46663,0.036 0.16298,-0.0252 0.52493,-0.0476 0.80433,-0.0496 0.91271,-0.007 1.26854,0.214 1.35162,0.83803 0.0381,0.28605 -0.12335,2.01377 -0.25502,2.72944 -0.0579,0.31491 -0.18857,0.95356 -0.29029,1.41923 -0.10173,0.46567 -0.21599,1.04669 -0.25393,1.29117 -0.16186,1.04304 -0.47149,1.89486 -0.88902,2.44583 -0.21789,0.28752 -0.45153,0.49501 -1.23712,1.09864 -0.79309,0.6094 -0.97482,0.83869 -1.36795,1.72603 -0.31948,0.7211 -0.43166,0.87048 -0.93869,1.24986 -0.4388,0.32832 -0.45444,0.34574 -0.55961,0.62345 -0.19599,0.51749 -0.23781,0.75703 -0.23807,1.3635 -4.2e-4,0.79282 -0.0411,0.9894 -0.33353,1.60873 -0.13784,0.29193 -0.26353,0.57841 -0.27931,0.63662 -0.0158,0.0582 -0.0447,0.79164 -0.0644,1.62984 -0.0376,1.60817 -0.0766,1.99781 -0.3214,3.21733 -0.29773,1.48295 -0.42507,1.78701 -1.21451,2.89983 -0.46889,0.66096 -0.69659,1.12743 -0.91957,1.88384 -0.32543,1.10396 -0.58193,1.48266 -1.59291,2.35184 -0.9835,0.84555 -1.62201,1.13291 -3.04234,1.3692 -1.27067,0.21139 -1.73932,0.30267 -2.11666,0.41224 -0.69917,0.20302 -1.47309,0.62348 -2.69967,1.4667 -0.60004,0.41251 -1.33347,0.88095 -1.62983,1.04098 -1.01979,0.55067 -1.57753,0.9676 -1.75209,1.30978 -0.16194,0.31743 -0.21144,0.7472 -0.22762,1.97642 -0.0224,1.70026 -0.11621,2.06309 -0.7115,2.7514 -1.04479,1.20806 -1.40637,1.76549 -2.56769,3.95844 -0.63619,1.20132 -0.9991,1.70426 -1.81773,2.51906 -1.05888,1.05394 -1.96636,1.63475 -2.66971,1.70872 -0.10477,0.011 -0.22321,0.0107 -0.26319,-6.4e-4 z m 0.78606,-0.20822 c 0.5705,-0.23181 1.25648,-0.73709 2.03122,-1.49615 0.89509,-0.87697 1.21749,-1.33281 2.03879,-2.88261 1.06215,-2.00427 1.36388,-2.46215 2.42348,-3.67756 0.55922,-0.64145 0.64113,-0.97784 0.68682,-2.82061 0.0357,-1.43862 0.068,-1.65556 0.29572,-1.9866 0.23471,-0.34114 0.56997,-0.58398 1.61416,-1.16918 0.38231,-0.21426 1.04283,-0.63009 1.46781,-0.92406 1.04566,-0.72331 1.47108,-0.99218 1.95255,-1.23403 0.74483,-0.37416 1.1461,-0.48865 2.5082,-0.71568 1.61488,-0.26916 2.25114,-0.45992 2.86022,-0.85754 0.58978,-0.385 1.64606,-1.36633 1.88251,-1.74891 0.14937,-0.24169 0.31209,-0.65114 0.4626,-1.16403 0.26819,-0.91392 0.35289,-1.07676 1.18913,-2.28614 0.58953,-0.8526 0.73454,-1.29257 1.09578,-3.32482 0.12999,-0.73134 0.13633,-0.82091 0.16614,-2.34785 0.0347,-1.77503 0.0225,-1.70007 0.39752,-2.44477 0.22694,-0.45062 0.28044,-0.70638 0.28081,-1.34237 4.2e-4,-0.66925 0.0457,-0.96998 0.21789,-1.44582 l 0.13148,-0.36339 0.39211,-0.29087 c 0.63367,-0.47006 0.56188,-0.36857 1.2089,-1.70906 0.26921,-0.55775 0.49772,-0.80564 1.3511,-1.46568 0.31422,-0.24303 0.69225,-0.56539 0.84007,-0.71635 0.58909,-0.6016 0.8681,-1.30318 1.12824,-2.83702 0.0612,-0.36089 0.1783,-0.95144 0.26019,-1.31233 0.0819,-0.3609 0.16514,-0.75142 0.18497,-0.86784 0.0198,-0.11641 0.0666,-0.38311 0.1039,-0.59266 0.0962,-0.54015 0.23893,-2.22065 0.20787,-2.44729 -0.0838,-0.61112 -0.62176,-0.86067 -1.61078,-0.74718 -0.22867,0.0262 -0.6936,0.0579 -1.03317,0.0704 -1.02926,0.0378 -1.26072,-0.0695 -2.23633,-1.03661 -0.74629,-0.73978 -1.0074,-0.95416 -1.45054,-1.19091 -0.57063,-0.30487 -1.19736,-0.42583 -2.21505,-0.42753 -0.63453,-0.001 -1.36148,-0.0724 -1.68342,-0.1652 -0.41834,-0.1206 -0.68531,-0.25337 -1.26774,-0.63051 -1.01242,-0.65555 -1.16146,-0.718 -2.08973,-0.87563 -0.72309,-0.12279 -1.15077,-0.2395 -1.39378,-0.38034 -0.0931,-0.054 -0.37888,-0.30667 -0.635,-0.56154 -0.52287,-0.52031 -0.62413,-0.57143 -1.41105,-0.71221 -0.29338,-0.0525 -0.50583,-0.12495 -0.8255,-0.28157 -0.53449,-0.26187 -0.80296,-0.36982 -2.09178,-0.84105 -1.89139,-0.69155 -2.46455,-0.9724 -3.21722,-1.57646 -0.30496,-0.24474 -0.66604,-0.68145 -0.87477,-1.05799 -0.0798,-0.14393 -0.22477,-0.51887 -0.32218,-0.8332 -0.18366,-0.59261 -0.38958,-1.02104 -0.80371,-1.67216 -0.45725,-0.71892 -0.52772,-0.89855 -0.6544,-1.66807 -0.12191,-0.74054 -0.22525,-1.12909 -0.35725,-1.34328 -0.12247,-0.19872 -0.34729,-0.35079 -0.55849,-0.37777 -0.38966,-0.0498 -0.61943,0.22249 -0.80592,0.95495 -0.1578,0.61981 -0.40666,1.01683 -1.00833,1.60867 -0.74088,0.72876 -1.41985,0.97085 -2.1189,0.7555 -0.0815,-0.0251 -0.40667,-0.16661 -0.72261,-0.31445 -0.58783,-0.27508 -0.96436,-0.39872 -1.21424,-0.39872 -0.0776,0 -0.28538,0.0298 -0.46177,0.0662 -0.64293,0.1328 -1.02404,0.3967 -0.97006,0.67171 0.014,0.0714 0.0633,0.18149 0.10959,0.24458 0.10895,0.14861 0.10602,0.19656 -0.0148,0.24251 -0.18885,0.0718 -1.10469,0.26294 -1.85147,0.38642 -0.41295,0.0683 -1.03363,0.1803 -1.37929,0.24893 -0.74136,0.14719 -1.44552,0.1986 -1.83484,0.13395 -0.60612,-0.10065 -1.10654,-0.49161 -1.37512,-1.07434 -0.26862,-0.58281 -0.29732,-0.73572 -0.29587,-1.57617 l 0.001,-0.762 0.17824,-0.52206 c 0.3034,-0.88869 0.30667,-1.07661 0.0312,-1.78992 -0.0834,-0.21585 -0.16313,-0.50309 -0.17727,-0.63832 l -0.0257,-0.24587 -0.15272,0.001 c -0.14082,10e-4 -0.18877,0.0414 -0.6155,0.51347 -0.52984,0.58611 -1.14666,1.14042 -1.41194,1.26884 -0.1658,0.0803 -0.22594,0.0853 -0.68506,0.0577 -0.47794,-0.0287 -0.51466,-0.025 -0.72859,0.0734 -0.12391,0.057 -0.37347,0.20067 -0.55457,0.31923 -0.58975,0.38609 -0.95438,0.38751 -1.85964,0.007 -0.54242,-0.22787 -0.76726,-0.2915 -1.03554,-0.29307 -0.27788,-0.002 -0.31049,0.0244 -0.30954,0.24691 8.2e-4,0.19134 0.007,0.19992 0.21714,0.32355 0.38566,0.22644 0.47641,0.4509 0.53915,1.3335 0.0281,0.39573 0.0763,0.66549 0.19086,1.06973 0.0843,0.29731 0.1718,0.66879 0.19446,0.8255 0.0488,0.33751 0.0542,0.77368 0.0105,0.84022 -0.0171,0.026 -0.2003,0.13554 -0.4071,0.24341 l -0.37599,0.19614 h -1.59439 -1.59439 l -0.15007,-0.20108 c -0.0825,-0.1106 -0.25252,-0.35126 -0.37772,-0.5348 -0.42888,-0.62874 -0.76337,-0.91512 -1.06885,-0.91512 -0.19728,0 -0.51239,0.14778 -0.92271,0.43272 -0.759068,0.52712 -0.922507,0.57673 -2.053268,0.62329 -0.468079,0.0193 -0.889938,0.0558 -0.937464,0.0813 -0.09068,0.0485 -0.179983,0.25038 -0.179983,0.40681 0,0.15485 0.175246,0.27751 0.452464,0.31669 0.138178,0.0195 0.297688,0.0275 0.354468,0.0177 0.188571,-0.0326 0.22756,0.036 0.129651,0.22789 -0.176214,0.34541 -0.647088,0.64211 -1.161123,0.73162 -0.253181,0.0441 -0.28346,0.0598 -0.28346,0.14666 0,0.14886 0.31987,0.54214 0.878146,1.07968 0.438673,0.42237 0.527588,0.53174 0.671017,0.82536 l 0.165337,0.33847 -0.0019,0.80434 c -0.0015,0.62947 -0.01808,0.86415 -0.07622,1.0795 -0.176718,0.65455 -0.39085,1.27627 -0.688508,1.99906 -0.175258,0.42558 -0.339449,0.83092 -0.364868,0.90077 -0.218156,0.59948 -0.878523,1.07182 -1.747148,1.24968 -0.317718,0.0651 -0.788557,0.0289 -1.083453,-0.0831 -0.213749,-0.0812 -0.223783,-0.0814 -0.330494,-0.007 -0.06053,0.0423 -0.303695,0.17585 -0.540368,0.29676 -0.236673,0.12091 -0.51579,0.29507 -0.620259,0.38703 -0.423749,0.373 -0.715008,1.00327 -0.9222,1.99561 -0.139298,0.66717 -0.291324,1.07998 -0.466972,1.26801 -0.118781,0.12716 -0.131898,0.13078 -0.374204,0.10337 -0.250617,-0.0284 -0.251247,-0.0281 -0.3213,0.10732 -0.169528,0.32783 -0.124877,0.72123 0.198067,1.74507 0.32062,1.01647 0.694748,1.85924 0.95155,2.14349 0.20989,0.23233 0.367196,0.27557 0.781895,0.21493 0.403743,-0.059 0.510361,-0.0222 1.034405,0.35693 0.366821,0.26542 0.793268,0.4875 0.936207,0.48755 0.205666,9e-5 0.330552,-0.18043 0.417341,-0.60321 0.03878,-0.18892 0.194471,-0.15513 0.390187,0.0847 0.518252,0.63498 0.58086,0.79282 0.574128,1.44746 -0.0064,0.62016 0.01985,0.67281 0.433803,0.87065 0.42474,0.203 1.052697,0.21501 2.103632,0.0402 0.766293,-0.12744 0.979246,-0.20677 1.410035,-0.52523 1.037179,-0.76674 2.420409,-1.57482 3.076279,-1.79715 0.36668,-0.1243 0.77537,-0.14577 0.95807,-0.0503 0.16449,0.0859 0.32859,0.27422 0.40915,0.46945 0.12595,0.30524 0.12597,0.62714 8e-5,1.53268 -0.13522,0.97275 -0.11866,1.18507 0.12393,1.58917 0.26482,0.44112 0.67881,0.63223 1.54269,0.71214 0.62976,0.0583 0.97866,0.13204 1.40878,0.29791 0.52693,0.20321 1.20518,0.60829 1.83709,1.09719 0.41343,0.31986 0.59291,0.41808 1.27538,0.69796 1.35913,0.55736 1.66465,0.97215 1.79264,2.43378 0.0768,0.87747 0.15814,1.25152 0.35755,1.64504 0.32718,0.64567 0.76303,0.84991 2.0279,0.95031 l 0.63605,0.0505 0.0345,0.127 c 0.019,0.0699 0.0506,0.33095 0.0702,0.58021 0.044,0.55825 0.10092,0.65742 0.64022,1.11609 0.47598,0.40483 0.61762,0.6184 0.68099,1.02682 0.062,0.39984 0.007,0.83467 -0.21391,1.67955 -0.21279,0.81509 -0.29633,1.45875 -0.31595,2.43417 -0.017,0.84274 0.033,1.28989 0.18996,1.70203 0.18045,0.47369 0.53729,0.81278 0.99434,0.94489 0.11641,0.0336 0.46884,0.0791 0.78316,0.10112 1.03951,0.0727 1.07649,0.10019 1.99412,1.48529 0.20824,0.31433 0.57342,0.84846 0.8115,1.18696 0.41473,0.58965 1.26986,2.04126 1.54702,2.62613 0.45185,0.95347 0.37326,1.806 -0.25599,2.77721 -0.57971,0.89474 -1.48926,1.65214 -4.04202,3.36587 -0.56992,0.38261 -0.99165,0.79329 -1.06205,1.03424 -0.0856,0.293 -0.0656,0.46413 0.0723,0.61843 0.13447,0.15049 0.12983,0.14988 0.85051,0.11291 0.28914,-0.0148 0.33819,-0.005 0.54908,0.11057 0.1406,0.077 0.48989,0.37734 0.889,0.7644 0.68768,0.66689 0.89582,0.82021 1.86392,1.37296 0.8305,0.47419 0.92837,0.53428 1.651,1.01363 0.75187,0.49876 0.77473,0.51678 0.93753,0.73929 0.14364,0.19632 0.16304,0.43972 0.0437,0.54776 -0.0424,0.0384 -0.19944,0.0946 -0.34892,0.12482 -0.30972,0.0627 -0.37659,0.1405 -0.37765,0.43944 -10e-4,0.30541 0.0187,0.32392 0.3104,0.29092 0.14079,-0.0159 0.36947,-0.0751 0.50817,-0.13144 z"
       id="path6858" /></g></svg>
