<?xml version="1.0" encoding="UTF-8" standalone="no"?>
<!-- Created with Inkscape (http://www.inkscape.org/) -->

<svg
   width="181.01956mm"
   height="19.830025mm"
   viewBox="0 0 181.01956 19.830025"
   version="1.1"
   id="svg1"
   inkscape:version="1.4.2 (ebf0e940d0, 2025-05-08)"
   sodipodi:docname="fada.svg"
   xmlns:inkscape="http://www.inkscape.org/namespaces/inkscape"
   xmlns:sodipodi="http://sodipodi.sourceforge.net/DTD/sodipodi-0.dtd"
   xmlns="http://www.w3.org/2000/svg"
   xmlns:svg="http://www.w3.org/2000/svg">
  <sodipodi:namedview
     id="namedview1"
     pagecolor="#ffffff"
     bordercolor="#000000"
     borderopacity="0.25"
     inkscape:showpageshadow="2"
     inkscape:pageopacity="0.0"
     inkscape:pagecheckerboard="0"
     inkscape:deskcolor="#d1d1d1"
     inkscape:document-units="mm"
     inkscape:zoom="1.2699352"
     inkscape:cx="396.0832"
     inkscape:cy="561.05225"
     inkscape:window-width="1870"
     inkscape:window-height="1070"
     inkscape:window-x="0"
     inkscape:window-y="0"
     inkscape:window-maximized="0"
     inkscape:current-layer="layer1"
     showgrid="false">
    <inkscape:page
       x="-3.4031375e-14"
       y="0"
       width="181.01958"
       height="19.830025"
       id="page2"
       margin="0"
       bleed="0" />
  </sodipodi:namedview>
  <defs
     id="defs1" />
  <g
     inkscape:label="Layer 1"
     inkscape:groupmode="layer"
     id="layer1"
     transform="translate(-21.866606,-165.83693)">
    <path
       d="m 27.268533,185.62561 q -1.860357,0 -3.059253,-0.67524 -1.198897,-0.68902 -1.777674,-1.79145 -0.564998,-1.10244 -0.564998,-2.38402 0,-0.93707 0.275609,-1.94304 0.275608,-1.00597 0.647679,-2.05328 0.385852,-1.10243 0.689021,-2.21865 0.30317,-1.12999 0.30317,-2.24621 0,-1.5434 -0.771704,-2.8112 -0.482315,-0.81305 -0.482315,-1.4056 0,-1.3367 2.204868,-1.86036 1.65365,-0.39963 4.464856,-0.39963 1.295359,0 2.356451,0.0413 0.716582,0.0276 1.157556,0.0276 0.440973,0 0.730362,0.27561 0.303169,0.26183 0.454754,0.67524 0.151584,0.41341 0.151584,0.8406 0,0.55122 -0.248047,0.97841 -0.248048,0.4272 -0.730362,0.4272 -0.165365,0 -0.344511,-0.0551 -0.757923,-0.24805 -1.570968,-0.31695 -0.799264,-0.0689 -1.98438,-0.0689 -0.551217,0 -0.909508,0.22049 -0.34451,0.22049 -0.523656,0.53744 -0.165365,0.30317 -0.165365,0.59255 0,0.39964 0.261828,0.66146 0.275608,0.24805 0.771704,0.24805 0.482314,0 0.937068,-0.11024 0.454754,-0.11024 0.854386,-0.24805 0.606339,-0.22049 0.99219,-0.22049 0.454754,0 0.716582,0.50988 0.261828,0.4961 0.261828,1.03353 0,0.41341 -0.179145,0.75792 -0.179146,0.34452 -0.564998,0.34452 -0.303169,0 -0.744142,-0.0827 -0.592558,-0.15158 -1.378042,-0.15158 -0.826825,0 -1.212677,0.1378 -0.372071,0.12403 -0.372071,0.53744 0,0.45475 0.482314,1.25402 0.33073,0.59256 0.826825,1.11621 0.496096,0.50988 1.061093,1.01975 0.689021,0.62012 1.3367,1.3367 0.64768,0.7028 1.061093,1.61231 0.427193,0.89573 0.427193,2.12219 0,1.29536 -0.840606,2.12218 -0.840605,0.81305 -2.177306,1.21268 -1.336701,0.39963 -2.824986,0.39963 z m 18.259056,0 q -1.019751,0 -1.860357,-0.50988 -0.192926,-0.11024 -0.358291,-0.17914 -0.151584,-0.0827 -0.33073,-0.0827 -0.34451,0 -1.088653,0.38585 -0.482315,0.26183 -0.757923,0.26183 -0.372071,0 -0.716582,0.0551 -0.34451,0.0413 -0.64768,0.0413 -1.846576,0 -3.100594,-0.62012 -1.254018,-0.6339 -1.901698,-1.62609 -0.633899,-1.00597 -0.633899,-2.12218 0,-0.88195 0.440973,-1.62609 0.440974,-0.74415 1.171336,-1.39183 0.730362,-0.66146 1.612309,-1.24023 0.881947,-0.57878 1.791455,-1.13 1.102433,-0.64768 2.011941,-1.28158 0.66146,-0.48231 0.937068,-0.8406 0.289389,-0.37207 0.289389,-0.62012 0,-0.41341 -0.606338,-0.42719 -0.523656,0 -1.254018,0.45475 -0.716582,0.44097 -1.240238,1.41938 -0.31695,0.62012 -1.061093,0.62012 -0.702801,0 -1.433163,-0.42719 -0.716582,-0.44097 -1.212677,-1.13 -0.482315,-0.68902 -0.482315,-1.44694 0,-0.74414 0.66146,-1.3367 0.66146,-0.59256 1.736333,-1.00597 1.074873,-0.41341 2.370232,-0.62012 1.29536,-0.22049 2.576939,-0.22049 1.446944,0 2.63206,0.28939 1.185116,0.27561 1.887918,0.88195 0.702801,0.60634 0.702801,1.58475 0,0.30317 -0.33073,1.29536 -0.399632,1.12999 -0.399632,1.5434 0,1.52963 1.584748,4.27193 0.840606,1.59853 0.840606,2.90767 0,1.15756 -0.537437,2.0395 -0.537436,0.86817 -1.405603,1.35049 -0.868166,0.48231 -1.887917,0.48231 z m -5.718874,-5.9118 q 0.523656,0 0.978409,-0.53744 0.454754,-0.55121 0.716582,-1.22645 0.275609,-0.68902 0.275609,-1.10244 0,-0.35829 -0.220487,-0.35829 -0.385852,0 -0.964629,0.50988 -0.564998,0.50987 -1.005971,1.17133 -0.440973,0.64768 -0.440973,1.07488 0,0.22048 0.137804,0.34451 0.137804,0.12402 0.523656,0.12402 z m 22.448305,5.93936 q -0.96463,0 -1.750114,-0.44097 -1.943039,0.41341 -3.500226,0.41341 -3.693153,0 -5.429486,-2.0395 -1.460724,-1.72255 -1.460724,-4.40974 0,-1.70877 0.620119,-3.25218 0.633899,-1.5434 1.763894,-2.72852 1.143774,-1.19889 2.700962,-1.88792 1.570968,-0.68902 3.431324,-0.68902 0.702802,0 1.074873,-0.0965 0.372071,-0.0965 0.372071,-0.38585 0,-0.41341 -0.744142,-1.30914 -0.496095,-0.6339 -0.496095,-1.14378 0,-0.56499 0.440973,-0.96463 0.454754,-0.39963 1.143775,-0.60633 0.702801,-0.22049 1.460724,-0.22049 0.799265,0 1.529627,0.15158 0.730362,0.15159 1.198897,0.52366 0.468534,0.35829 0.468534,0.97841 0,0.49609 -0.358291,1.17134 -0.606339,1.11621 -0.606339,2.48047 0,1.58475 0.881947,3.78962 0.385852,0.96463 0.813045,1.94304 1.488285,3.23839 1.488285,4.50619 0,1.01975 -0.523656,1.99816 -0.523656,0.96463 -1.63987,1.59853 -1.116214,0.62012 -2.880107,0.62012 z m -5.333023,-8.5852 q 0.509876,0 1.267799,-0.20671 1.129994,-0.35829 1.750113,-1.17133 0.6339,-0.81305 0.6339,-1.54341 0,-0.50987 -0.330731,-0.85439 -0.316949,-0.34451 -0.99219,-0.34451 -0.372071,0 -0.881947,0.13781 -1.226457,0.37207 -1.98438,1.2678 -0.757923,0.89572 -0.757923,1.66743 0,0.45475 0.303169,0.75792 0.303169,0.28939 0.99219,0.28939 z m 22.792815,8.55764 q -1.019751,0 -1.860356,-0.50988 -0.192926,-0.11024 -0.358291,-0.17914 -0.151585,-0.0827 -0.33073,-0.0827 -0.344511,0 -1.088654,0.38585 -0.482314,0.26183 -0.757923,0.26183 -0.372071,0 -0.716582,0.0551 -0.34451,0.0413 -0.647679,0.0413 -1.846577,0 -3.100595,-0.62012 -1.254018,-0.6339 -1.901698,-1.62609 -0.633899,-1.00597 -0.633899,-2.12218 0,-0.88195 0.440973,-1.62609 0.440974,-0.74415 1.171336,-1.39183 0.730362,-0.66146 1.612309,-1.24023 0.881947,-0.57878 1.791455,-1.13 1.102433,-0.64768 2.011941,-1.28158 0.66146,-0.48231 0.937069,-0.8406 0.289388,-0.37207 0.289388,-0.62012 0,-0.41341 -0.606338,-0.42719 -0.523656,0 -1.254018,0.45475 -0.716582,0.44097 -1.240238,1.41938 -0.31695,0.62012 -1.061092,0.62012 -0.702802,0 -1.433164,-0.42719 -0.716582,-0.44097 -1.212677,-1.13 -0.482315,-0.68902 -0.482315,-1.44694 0,-0.74414 0.661461,-1.3367 0.66146,-0.59256 1.736332,-1.00597 1.074873,-0.41341 2.370233,-0.62012 1.295359,-0.22049 2.576938,-0.22049 1.446944,0 2.63206,0.28939 1.185116,0.27561 1.887918,0.88195 0.702801,0.60634 0.702801,1.58475 0,0.30317 -0.33073,1.29536 -0.399632,1.12999 -0.399632,1.5434 0,1.52963 1.584748,4.27193 0.840606,1.59853 0.840606,2.90767 0,1.15756 -0.537437,2.0395 -0.537436,0.86817 -1.405602,1.35049 -0.868167,0.48231 -1.887918,0.48231 z m -5.718874,-5.9118 q 0.523656,0 0.97841,-0.53744 0.454754,-0.55121 0.716582,-1.22645 0.275608,-0.68902 0.275608,-1.10244 0,-0.35829 -0.220487,-0.35829 -0.385851,0 -0.964629,0.50988 -0.564997,0.50987 -1.005971,1.17133 -0.440973,0.64768 -0.440973,1.07488 0,0.22048 0.137804,0.34451 0.137804,0.12402 0.523656,0.12402 z m 24.859875,5.9118 q -1.00597,0 -1.887917,-0.49609 -0.881947,-0.4961 -1.433164,-1.36427 -0.537436,-0.88194 -0.537436,-2.0395 0,-1.35048 0.909507,-2.94901 0.6339,-1.07487 1.116214,-2.86633 0.496096,-1.80523 0.496096,-3.54156 0,-0.71659 -0.289389,-0.78549 -0.151585,0 -0.427193,0.37207 -0.261828,0.37208 -0.482315,0.95085 -0.206706,0.57878 -0.206706,1.1989 0,0.53744 0.206706,1.07487 0.151585,0.35829 0.151585,0.67524 0,0.50988 -0.33073,0.85439 -0.33073,0.33073 -0.854386,0.50987 -0.523656,0.16537 -1.102434,0.16537 -0.564997,0 -1.102434,-0.16537 -0.523656,-0.17914 -0.854386,-0.50987 -0.33073,-0.34451 -0.33073,-0.85439 0,-0.31695 0.151585,-0.67524 0.206706,-0.52365 0.206706,-1.06109 0,-0.6339 -0.220486,-1.21268 -0.220487,-0.59256 -0.496096,-0.96463 -0.275608,-0.37207 -0.413412,-0.37207 -0.261828,0 -0.261828,0.93707 v 0.48232 q 0,1.65365 0.496095,3.23839 0.509875,1.57097 1.102434,2.54938 0.909507,1.59853 0.909507,2.94901 0,1.15756 -0.551217,2.0395 -0.537436,0.86817 -1.419383,1.36427 -0.868166,0.49609 -1.887917,0.49609 -1.694992,0 -2.824986,-0.59256 -1.116214,-0.60634 -1.667431,-1.55719 -0.551217,-0.96462 -0.551217,-2.0395 0,-0.52365 0.124024,-1.04731 0.440973,-1.65365 1.074873,-3.3073 0.537436,-1.39182 0.937068,-2.7423 0.413413,-1.36426 0.413413,-2.64584 0,-0.74415 -0.192926,-1.44695 -0.179146,-0.71658 -0.606339,-1.41938 -0.413412,-0.7028 -0.413412,-1.21268 0,-0.60634 0.440973,-0.97841 0.454754,-0.38585 1.157555,-0.565 0.702802,-0.17914 1.474505,-0.17914 0.771704,0 1.62609,0.27561 0.868166,0.27561 1.460724,1.00597 l 0.275609,0.35829 q 0.689021,0.92329 1.116214,1.39182 0.427193,0.46854 0.799264,0.46854 0.399632,0 0.895727,-0.53744 0.496096,-0.55122 1.350482,-1.68121 0.592558,-0.73036 1.460724,-1.00597 0.868167,-0.27561 1.62609,-0.27561 0.771707,0 1.474507,0.17914 0.7028,0.17915 1.14377,0.565 0.45476,0.37207 0.45476,0.97841 0,0.50988 -0.4272,1.21268 -0.41341,0.7028 -0.60634,1.41938 -0.17914,0.71658 -0.17914,1.44695 0,1.28158 0.39963,2.64584 0.41341,1.35048 0.95085,2.7423 0.6339,1.65365 1.07487,3.3073 0.12403,0.50988 0.12403,1.03353 0,1.07488 -0.55122,2.0395 -0.55122,0.96463 -1.66743,1.57097 -1.11621,0.59256 -2.824987,0.59256 z m 17.638937,0 q -1.01975,0 -1.86035,-0.50988 -0.19293,-0.11024 -0.35829,-0.17914 -0.15159,-0.0827 -0.33073,-0.0827 -0.34451,0 -1.08866,0.38585 -0.48231,0.26183 -0.75792,0.26183 -0.37207,0 -0.71658,0.0551 -0.34451,0.0413 -0.64768,0.0413 -1.84658,0 -3.1006,-0.62012 -1.25401,-0.6339 -1.90169,-1.62609 -0.6339,-1.00597 -0.6339,-2.12218 0,-0.88195 0.44097,-1.62609 0.44097,-0.74415 1.17134,-1.39183 0.73036,-0.66146 1.6123,-1.24023 0.88195,-0.57878 1.79146,-1.13 1.10243,-0.64768 2.01194,-1.28158 0.66146,-0.48231 0.93707,-0.8406 0.28939,-0.37207 0.28939,-0.62012 0,-0.41341 -0.60634,-0.42719 -0.52366,0 -1.25402,0.45475 -0.71658,0.44097 -1.24024,1.41938 -0.31695,0.62012 -1.06109,0.62012 -0.7028,0 -1.43316,-0.42719 -0.71658,-0.44097 -1.21268,-1.13 -0.48231,-0.68902 -0.48231,-1.44694 0,-0.74414 0.66146,-1.3367 0.66146,-0.59256 1.73633,-1.00597 1.07487,-0.41341 2.37023,-0.62012 1.29536,-0.22049 2.57694,-0.22049 1.44694,0 2.63206,0.28939 1.18512,0.27561 1.88792,0.88195 0.7028,0.60634 0.7028,1.58475 0,0.30317 -0.33073,1.29536 -0.39963,1.12999 -0.39963,1.5434 0,1.52963 1.58474,4.27193 0.84061,1.59853 0.84061,2.90767 0,1.15756 -0.53744,2.0395 -0.53743,0.86817 -1.4056,1.35049 -0.86817,0.48231 -1.88792,0.48231 z m -5.71887,-5.9118 q 0.52366,0 0.97841,-0.53744 0.45475,-0.55121 0.71658,-1.22645 0.27561,-0.68902 0.27561,-1.10244 0,-0.35829 -0.22049,-0.35829 -0.38585,0 -0.96463,0.50988 -0.56499,0.50987 -1.00597,1.17133 -0.44097,0.64768 -0.44097,1.07488 0,0.22048 0.1378,0.34451 0.13781,0.12402 0.52366,0.12402 z m 17.52869,5.95314 q -1.8328,0 -3.15572,-0.62012 -1.32292,-0.62012 -2.19109,-1.66743 -0.85438,-1.04731 -1.26779,-2.38401 -0.41342,-1.35048 -0.41342,-2.79743 0,-1.66743 0.50988,-3.29352 0.52366,-1.63987 1.50206,-2.96279 0.97841,-1.3367 2.37024,-2.13596 1.4056,-0.81305 3.18327,-0.81305 2.08085,0 3.58291,0.96463 1.51585,0.95085 1.58475,2.45292 0,0.62012 -0.42719,1.07487 -0.41341,0.44097 -1.04731,0.67524 -0.6339,0.23427 -1.25402,0.23427 -0.55122,0 -1.00597,-0.20671 -0.45476,-0.22048 -0.64768,-0.66146 -0.0413,-0.11024 -0.0965,-0.35829 -0.0551,-0.34451 -0.19293,-0.78548 -0.1378,-0.44098 -0.39963,-0.77171 -0.24805,-0.34451 -0.68902,-0.34451 -0.59256,0 -0.95085,0.77171 -0.35829,0.75792 -0.35829,1.73633 0,0.73036 0.23426,1.44694 0.23427,0.71659 0.74415,1.18512 0.50987,0.46853 1.3367,0.46853 0.60634,0 1.11621,-0.0965 0.52366,-0.11024 1.03353,-0.39963 0.75793,-0.42719 1.39182,-0.42719 0.86817,0 1.48829,0.60633 0.6339,0.60634 0.97841,1.58475 0.34451,0.96463 0.34451,2.10841 0,1.30914 -0.6339,2.32889 -0.62012,1.00597 -1.66743,1.69499 -1.04731,0.68902 -2.35645,1.04731 -1.29536,0.34451 -2.64584,0.34451 z m 21.70416,-0.0413 q -1.14377,0 -2.09462,-0.57878 -0.95085,-0.59256 -1.52963,-1.57097 -0.57878,-0.99219 -0.57878,-2.19108 l 0.0276,-1.50207 q 0.0413,-0.85438 0.0413,-1.80523 0,-1.28158 -0.11025,-2.37023 -0.16536,-1.15756 -0.62012,-1.68122 -0.44097,-0.53743 -0.95085,-0.53743 -0.53743,0 -0.9784,0.53743 -0.4272,0.53744 -0.4272,1.50207 0,1.54341 1.24024,3.41754 1.25402,1.87414 1.25402,3.55535 0,1.46073 -0.90951,2.34267 -0.90951,0.88195 -2.28755,0.88195 -1.84658,0 -3.03169,-0.66146 -1.18512,-0.67524 -1.75011,-1.73633 -0.565,-1.06109 -0.565,-2.23243 0,-1.3367 0.31695,-2.56316 0.33073,-1.24024 0.71658,-2.39779 0.34451,-1.00597 0.59256,-1.95682 0.26183,-0.96463 0.26183,-1.87414 0,-0.88195 -0.23427,-1.72255 -0.23427,-0.84061 -0.77171,-1.61231 -0.52365,-0.78548 -0.52365,-1.36426 0,-0.565 0.42719,-0.92329 0.42719,-0.35829 1.10244,-0.52366 0.67524,-0.16536 1.43316,-0.16536 0.79926,0 1.54341,0.20671 0.75792,0.19292 1.24023,0.57877 0.4961,0.38585 0.4961,0.97841 0,0.4272 -0.34451,0.99219 -1.00597,1.48829 -1.00597,1.98438 0,0.20671 0.22048,0.22049 0.3583,0 1.22646,-0.50988 1.39182,-0.74414 2.93523,-0.74414 1.30914,0 2.52182,0.53744 1.21267,0.52365 2.02572,1.58475 0.81304,1.06109 0.96463,2.65962 0.0551,0.81304 0.0827,1.62609 0,1.36426 0.20671,2.64584 0.2067,1.2678 1.01975,2.35645 0.68902,0.92329 0.68902,1.73633 0,0.85439 -0.60634,1.51585 -0.60634,0.64768 -1.50206,1.00597 -0.89573,0.35829 -1.7639,0.35829 z m 15.99908,0 q -1.01975,0 -1.86036,-0.50988 -0.19292,-0.11024 -0.35829,-0.17914 -0.15158,-0.0827 -0.33073,-0.0827 -0.34451,0 -1.08865,0.38585 -0.48232,0.26183 -0.75793,0.26183 -0.37207,0 -0.71658,0.0551 -0.34451,0.0413 -0.64768,0.0413 -1.84657,0 -3.10059,-0.62012 -1.25402,-0.6339 -1.9017,-1.62609 -0.6339,-1.00597 -0.6339,-2.12218 0,-0.88195 0.44097,-1.62609 0.44098,-0.74415 1.17134,-1.39183 0.73036,-0.66146 1.61231,-1.24023 0.88195,-0.57878 1.79145,-1.13 1.10244,-0.64768 2.01194,-1.28158 0.66146,-0.48231 0.93707,-0.8406 0.28939,-0.37207 0.28939,-0.62012 0,-0.41341 -0.60634,-0.42719 -0.52365,0 -1.25401,0.45475 -0.71659,0.44097 -1.24024,1.41938 -0.31695,0.62012 -1.06109,0.62012 -0.70281,0 -1.43317,-0.42719 -0.71658,-0.44097 -1.21268,-1.13 -0.48231,-0.68902 -0.48231,-1.44694 0,-0.74414 0.66146,-1.3367 0.66146,-0.59256 1.73633,-1.00597 1.07488,-0.41341 2.37024,-0.62012 1.29535,-0.22049 2.57693,-0.22049 1.44695,0 2.63206,0.28939 1.18512,0.27561 1.88792,0.88195 0.7028,0.60634 0.7028,1.58475 0,0.30317 -0.33073,1.29536 -0.39963,1.12999 -0.39963,1.5434 0,1.52963 1.58475,4.27193 0.8406,1.59853 0.8406,2.90767 0,1.15756 -0.53743,2.0395 -0.53744,0.86817 -1.4056,1.35049 -0.86817,0.48231 -1.88792,0.48231 z m -5.71888,-5.9118 q 0.52366,0 0.97841,-0.53744 0.45476,-0.55121 0.71659,-1.22645 0.2756,-0.68902 0.2756,-1.10244 0,-0.35829 -0.22048,-0.35829 -0.38586,0 -0.96463,0.50988 -0.565,0.50987 -1.00597,1.17133 -0.44098,0.64768 -0.44098,1.07488 0,0.22048 0.13781,0.34451 0.1378,0.12402 0.52365,0.12402 z m 22.44831,5.93936 q -0.96463,0 -1.75012,-0.44097 -1.94304,0.41341 -3.50022,0.41341 -3.69316,0 -5.42949,-2.0395 -1.46072,-1.72255 -1.46072,-4.40974 0,-1.70877 0.62011,-3.25218 0.6339,-1.5434 1.7639,-2.72852 1.14377,-1.19889 2.70096,-1.88792 1.57097,-0.68902 3.43133,-0.68902 0.7028,0 1.07487,-0.0965 0.37207,-0.0965 0.37207,-0.38585 0,-0.41341 -0.74414,-1.30914 -0.4961,-0.6339 -0.4961,-1.14378 0,-0.56499 0.44097,-0.96463 0.45476,-0.39963 1.14378,-0.60633 0.7028,-0.22049 1.46072,-0.22049 0.79927,0 1.52963,0.15158 0.73036,0.15159 1.1989,0.52366 0.46853,0.35829 0.46853,0.97841 0,0.49609 -0.35829,1.17134 -0.60634,1.11621 -0.60634,2.48047 0,1.58475 0.88195,3.78962 0.38585,0.96463 0.81304,1.94304 1.48829,3.23839 1.48829,4.50619 0,1.01975 -0.52366,1.99816 -0.52365,0.96463 -1.63987,1.59853 -1.11621,0.62012 -2.8801,0.62012 z m -5.33303,-8.5852 q 0.50988,0 1.2678,-0.20671 1.13,-0.35829 1.75012,-1.17133 0.63389,-0.81305 0.63389,-1.54341 0,-0.50987 -0.33073,-0.85439 -0.31695,-0.34451 -0.99219,-0.34451 -0.37207,0 -0.88194,0.13781 -1.22646,0.37207 -1.98438,1.2678 -0.75793,0.89572 -0.75793,1.66743 0,0.45475 0.30317,0.75792 0.30317,0.28939 0.99219,0.28939 z m 18.38307,8.55764 q -1.3367,0 -2.6045,-0.46853 -1.2678,-0.46854 -2.28755,-1.40561 -1.00597,-0.95085 -1.61231,-2.35645 -0.60633,-1.41938 -0.60633,-3.29352 0.0413,-3.07303 1.03353,-5.09875 1.00597,-2.02573 2.61828,-3.01792 1.62609,-1.00597 3.40376,-1.00597 1.35048,0 2.63206,0.565 1.28158,0.55122 2.30133,1.66743 1.01975,1.10243 1.61231,2.75609 0.60634,1.63987 0.60634,3.81717 0,2.0395 -0.62012,3.52779 -0.60634,1.4745 -1.62609,2.43913 -1.01975,0.95085 -2.28755,1.41939 -1.2678,0.45475 -2.56316,0.45475 z m 0.0551,-8.32337 q 0.60634,0 1.10244,-0.66146 0.50987,-0.66146 0.50987,-1.9706 -0.0276,-1.91548 -0.53743,-2.88011 -0.4961,-0.96463 -1.13,-0.96463 -0.38585,0 -0.73036,0.38585 -0.34451,0.38585 -0.57878,1.15756 -0.22048,0.7717 -0.22048,1.92926 0.0138,1.51584 0.44097,2.25998 0.42719,0.74415 1.14377,0.74415 z"
       id="text7"
       style="font-size:28.2223px;font-family:'Super Magic';-inkscape-font-specification:'Super Magic, Normal';fill:#ffffff;stroke-width:0.264583"
       aria-label="FadaMachado" />
  </g>
</svg>
