<?xml version="1.0" encoding="UTF-8" standalone="no"?>
<!-- Created with Inkscape (http://www.inkscape.org/) -->

<svg
   width="210mm"
   height="297mm"
   viewBox="0 0 210 297"
   version="1.1"
   id="svg1"
   inkscape:version="1.4.2 (ebf0e940d0, 2025-05-08)"
   sodipodi:docname="fada.svg"
   xmlns:inkscape="http://www.inkscape.org/namespaces/inkscape"
   xmlns:sodipodi="http://sodipodi.sourceforge.net/DTD/sodipodi-0.dtd"
   xmlns:xlink="http://www.w3.org/1999/xlink"
   xmlns="http://www.w3.org/2000/svg"
   xmlns:svg="http://www.w3.org/2000/svg">
  <sodipodi:namedview
     id="namedview1"
     pagecolor="#ffffff"
     bordercolor="#000000"
     borderopacity="0.25"
     inkscape:showpageshadow="2"
     inkscape:pageopacity="0.0"
     inkscape:pagecheckerboard="0"
     inkscape:deskcolor="#d1d1d1"
     inkscape:document-units="mm"
     inkscape:zoom="0.89797979"
     inkscape:cx="395.33184"
     inkscape:cy="359.13949"
     inkscape:window-width="3748"
     inkscape:window-height="2148"
     inkscape:window-x="0"
     inkscape:window-y="0"
     inkscape:window-maximized="0"
     inkscape:current-layer="layer1"
     showgrid="false" />
  <defs
     id="defs1">
    <inkscape:path-effect
       effect="fill_between_many"
       method="originald"
       linkedpaths="#text3,0,1|"
       id="path-effect3" />
    <inkscape:path-effect
       effect="fill_between_many"
       method="originald"
       linkedpaths="#text2,0,1|"
       id="path-effect4" />
    <inkscape:path-effect
       effect="fill_between_many"
       method="originald"
       linkedpaths="#path5,0,1|"
       id="path-effect5" />
    <inkscape:path-effect
       effect="fill_between_many"
       method="originald"
       linkedpaths="#text2,0,1|"
       id="path-effect7" />
  </defs>
  <g
     inkscape:label="Layer 1"
     inkscape:groupmode="layer"
     id="layer1">
    <path
       d="m 98.17747,64.166626 a 3.3359258,3.3359258 0 0 0 -0.146244,0.0098 c -1.574303,0.12465 -4.430545,-0.06732 -7.040914,2.039153 a 3.3359258,3.3359258 0 0 0 -0.06253,0.05271 c -1.340693,1.137559 -1.869228,2.920093 -1.802991,4.269507 0.06313,1.286051 0.473744,2.33113 1.082622,3.248381 0.263451,0.533059 0.106354,1.776709 -0.551388,3.657658 -0.74562,2.10448 -2.045447,5.392761 -0.521415,8.968961 1.459313,3.67065 5.102522,5.322553 8.4646,5.236373 1.960042,-0.009 4.524069,-0.271899 6.671939,-1.761649 1.3848,0.93973 2.9857,1.556952 4.61368,1.671732 1.22988,0.1066 2.64196,0.126038 4.16202,-0.277502 a 3.3359258,3.3359258 0 0 0 0.37878,-0.126607 c 0.0679,-0.02705 0.0788,-0.03398 0.0816,-0.03772 2.8e-4,-4.64e-4 7.9e-4,-0.0016 0.001,-0.0021 0.002,-0.0032 0.009,-0.0084 0.0522,-0.02687 2.60896,0.94744 5.36514,0.448589 7.37113,-1.277441 1.02639,0.69857 2.14875,1.264699 3.41374,1.514119 2.2419,0.50051 4.34674,0.324366 6.27145,-0.0041 2.26963,0.66484 4.50546,0.300765 6.32261,-0.484725 a 3.3359258,3.3359258 0 0 0 0.0703,-0.03307 c 0.53372,-0.2456 0.99859,-0.578278 1.45315,-0.921908 1.34364,0.9117 2.88449,1.530341 4.46484,1.662431 1.29307,0.12996 2.75157,0.145648 4.29845,-0.259932 a 3.3359258,3.3359258 0 0 0 0.38912,-0.127124 c 0.0615,-0.0245 0.0745,-0.03194 0.078,-0.03566 0,0 5.2e-4,-5.17e-4 5.2e-4,-5.17e-4 2.5e-4,-4.43e-4 8e-4,-0.0016 0.001,-0.0021 0.002,-0.0031 0.008,-0.0078 0.0512,-0.02584 3.82249,1.38927 8.11153,-0.355375 9.57978,-4.314465 1.31223,-3.369203 -0.0426,-6.445907 -1.24902,-8.472351 -0.30674,-0.62068 -0.5291,-1.115312 -0.59428,-1.358057 -0.007,-0.02582 -0.0128,-0.04658 -0.0176,-0.06356 a 3.3359258,3.3359258 0 0 0 0.0155,-0.03772 c 0.28492,-0.70954 0.59224,-1.598458 0.65009,-2.744018 0.0578,-1.14555 -0.23869,-2.665084 -1.21284,-3.871082 a 3.3359258,3.3359258 0 0 0 -0.0563,-0.06873 c -2.40301,-2.820294 -5.7554,-2.82126 -7.70341,-2.878894 a 3.3359258,3.3359258 0 0 0 -0.19895,0 c -2.26083,0.06752 -5.044,0.364677 -7.63106,1.855701 -0.23811,-1.99309 -1.61106,-3.726713 -3.56619,-4.374927 -2.51633,-0.860724 -5.84714,-1.061217 -8.56279,1.198894 a 3.3359258,3.3359258 0 0 0 -0.0506,0.04289 c -1.06089,0.918213 -1.47445,2.233664 -1.572,3.447335 -1.52189,0.442345 -2.90884,1.200979 -4.14858,2.185913 -0.0764,-0.190683 -0.0507,-0.379132 -0.15451,-0.566374 a 3.3359258,3.3359258 0 0 0 -0.01,-0.01602 c -0.90892,-1.618477 -2.41452,-2.564093 -3.69538,-3.037023 -1.28086,-0.472931 -2.442,-0.599716 -3.35535,-0.68368 a 3.3359258,3.3359258 0 0 0 -0.12919,-0.0078 c -1.9238,-0.101756 -4.00019,0.185418 -6.06837,0.76171 -0.64869,-2.230371 -2.60387,-4.094909 -5.27564,-3.892268 -1.44387,-0.0385 -2.964387,-0.0874 -4.562,-0.03152 z"
       style="font-size:28.2223px;font-family:'Super Magic';-inkscape-font-specification:'Super Magic, Normal';fill:#2b5ba7;stroke-width:0.264583"
       id="path21"
       inkscape:export-filename="fada-bg.svg"
       inkscape:export-xdpi="96"
       inkscape:export-ydpi="96" />
    <path
       inkscape:original-d="M 0,0"
       inkscape:path-effect="#path-effect5"
       d="m 29.197266,162.29297 c -2.03987,0 -3.744769,0.12364 -5.294922,0.49805 -1.061449,0.25295 -2.108194,0.6179 -3.111328,1.46484 -1.006872,0.85009 -1.808594,2.4214 -1.808594,3.8418 0,1.35749 0.465616,2.34829 0.978515,3.21289 a 3.5452909,3.5452909 0 0 0 0.02148,0.0351 c 0.181201,0.29769 0.253906,0.53015 0.253906,0.96875 0,0.42145 -0.05555,0.85236 -0.179687,1.31836 -0.179351,0.66016 -0.38348,1.31803 -0.613282,1.97461 -0.274089,0.77272 -0.512768,1.53527 -0.71875,2.28711 -0.258123,0.94216 -0.402343,1.90943 -0.402343,2.88086 -2e-6,1.37383 0.324207,2.76903 0.955078,4 a 3.5452909,3.5452909 0 0 0 0.01563,0.0312 c 0.711508,1.35526 1.853322,2.47332 3.15039,3.21875 a 3.5452909,3.5452909 0 0 0 0.02539,0.0137 c 1.484411,0.83605 3.132384,1.13086 4.798828,1.13086 1.306648,0 2.601127,-0.17595 3.841797,-0.54687 0.949266,-0.2838 1.833301,-0.76433 2.65625,-1.34571 0.421122,0.31212 0.839268,0.63195 1.300781,0.86524 a 3.5452909,3.5452909 0 0 0 0.02734,0.0137 c 1.458712,0.72134 3.04783,0.98633 4.673828,0.98633 0.359851,0 0.714951,-0.0238 1.070313,-0.0664 a 3.5452909,3.5452909 0 0 0 0.138671,-0.0195 c 0.03191,-0.005 0.07737,-0.01 0.154297,-0.01 0.900634,0 1.417926,-0.18984 1.861328,-0.40429 0.821526,0.31034 1.678373,0.52734 2.535157,0.52734 1.239097,0 2.514676,-0.31957 3.609375,-0.92773 0.466616,-0.25924 0.746808,-0.74135 1.148437,-1.09961 1.873304,1.38595 4.266491,2.02734 6.720703,2.02734 1.127692,0 2.324005,-0.18557 3.544922,-0.41015 0.578948,0.14225 1.130361,0.4375 1.707031,0.4375 1.58937,0 3.161819,-0.26567 4.59961,-1.06446 a 3.5452909,3.5452909 0 0 0 0.0293,-0.0176 c 0.390299,-0.22165 0.736456,-0.53189 1.09375,-0.82031 0.413799,0.30445 0.822998,0.61898 1.27539,0.84766 a 3.5452909,3.5452909 0 0 0 0.02734,0.0137 c 1.458712,0.72134 3.04783,0.98633 4.673828,0.98633 0.359851,0 0.715356,-0.0241 1.06836,-0.0664 a 3.5452909,3.5452909 0 0 0 0.138671,-0.0195 c 0.02882,-0.005 0.07932,-0.01 0.15625,-0.01 0.900631,0 1.417925,-0.18984 1.861329,-0.40429 0.821526,0.31034 1.678372,0.52734 2.535156,0.52734 1.239097,0 2.514676,-0.31957 3.609375,-0.92773 0.314186,-0.17455 0.487015,-0.51876 0.773437,-0.74024 0.299823,0.21793 0.579137,0.47304 0.898438,0.64649 a 3.5452909,3.5452909 0 0 0 0.04492,0.0234 c 1.40196,0.73518 2.931154,0.99805 4.472656,0.99805 1.251397,0 2.540581,-0.33783 3.634766,-0.96094 0.414933,-0.23447 0.664743,-0.6742 1.03125,-0.98828 0.372151,0.31812 0.628629,0.76058 1.050781,0.99805 1.088097,0.61204 2.371606,0.95117 3.625,0.95117 1.547368,0 3.079388,-0.25792 4.488278,-1.00586 a 3.5452909,3.5452909 0 0 0 0.0293,-0.0156 c 0.45519,-0.24726 0.86754,-0.58652 1.27734,-0.92383 0.44458,0.3369 0.89449,0.67013 1.38477,0.91797 a 3.5452909,3.5452909 0 0 0 0.0273,0.0137 c 1.45674,0.72036 3.04587,0.98633 4.67188,0.98633 0.35985,0 0.71495,-0.0238 1.07031,-0.0664 a 3.5452909,3.5452909 0 0 0 0.13867,-0.0195 c 0.0288,-0.005 0.0793,-0.01 0.15625,-0.01 0.89955,0 1.41624,-0.19017 1.85938,-0.40429 0.82153,0.31035 1.67837,0.52734 2.53515,0.52734 1.2391,0 2.51468,-0.31958 3.60938,-0.92773 0.63413,-0.3523 1.05814,-0.97029 1.56641,-1.49805 0.64707,0.52876 1.21892,1.15749 1.9746,1.51172 1.45404,0.68157 3.04038,0.95508 4.66016,0.95508 1.19977,0 2.39507,-0.15397 3.55664,-0.46289 a 3.5452909,3.5452909 0 0 0 0.0254,-0.006 c 1.19826,-0.32795 2.34045,-0.82908 3.36914,-1.50586 0.16606,-0.10925 0.25677,-0.30577 0.41602,-0.42578 0.49902,0.47393 1.04086,0.90155 1.625,1.23437 a 3.5452909,3.5452909 0 0 0 0.0273,0.0156 c 1.47857,0.82526 3.1099,1.10937 4.76172,1.10937 1.31034,0 2.64511,-0.51641 3.79492,-1.27734 0.0633,0.0421 0.0938,0.12195 0.15821,0.16211 a 3.5452909,3.5452909 0 0 0 0.0312,0.0195 c 1.17343,0.71426 2.57907,1.0957 3.9375,1.0957 1.06288,0 2.11325,-0.22382 3.08203,-0.61133 0.56442,-0.22577 1.01875,-0.6759 1.52734,-1.0332 0.31072,0.20701 0.60003,0.45055 0.92969,0.61719 a 3.5452909,3.5452909 0 0 0 0.0273,0.0137 c 1.45872,0.72134 3.04783,0.98633 4.67383,0.98633 0.35985,0 0.71535,-0.0241 1.06836,-0.0664 a 3.5452909,3.5452909 0 0 0 0.13867,-0.0195 c 0.0289,-0.005 0.0793,-0.01 0.15625,-0.01 0.90063,0 1.41792,-0.18983 1.86133,-0.40429 0.82152,0.31034 1.67837,0.52734 2.53516,0.52734 1.23909,0 2.51467,-0.31958 3.60937,-0.92773 0.4662,-0.25901 0.74515,-0.74175 1.14648,-1.09961 1.87425,1.3868 4.26801,2.02734 6.72266,2.02734 1.12759,0 2.32287,-0.18566 3.54297,-0.41015 0.57924,0.1424 1.13006,0.4375 1.70703,0.4375 1.58937,0 3.16147,-0.26439 4.60156,-1.06446 a 3.5452909,3.5452909 0 0 0 0.0293,-0.0176 c 0.63734,-0.36194 1.2326,-0.82691 1.76563,-1.36328 0.87094,0.69262 1.78468,1.34506 2.82226,1.72852 1.22382,0.45227 2.52613,0.68945 3.83203,0.68945 1.27397,0 2.55019,-0.22825 3.75977,-0.66211 a 3.5452909,3.5452909 0 0 0 0.0312,-0.0117 c 1.28661,-0.4755 2.47397,-1.21567 3.47851,-2.15234 a 3.5452909,3.5452909 0 0 0 0.0176,-0.0156 c 1.07954,-1.02116 1.89732,-2.28797 2.46289,-3.66015 0.63139,-1.51865 0.89258,-3.16498 0.89258,-4.88281 0,-1.77757 -0.24876,-3.46604 -0.82617,-5.03321 -0.52669,-1.46208 -1.29195,-2.81306 -2.33203,-3.93945 -0.97643,-1.06604 -2.16342,-1.94284 -3.49414,-2.51758 -1.2723,-0.55822 -2.65774,-0.86133 -4.04493,-0.86133 -1.85065,0 -3.6872,0.559 -5.26171,1.53125 -4.3e-4,2.7e-4 -0.002,-2.6e-4 -0.002,0 -0.59218,0.36455 -1.07315,0.86592 -1.57031,1.34571 0.0471,-0.28001 0.20899,-0.44363 0.20898,-0.76563 0,-1.29701 -0.75583,-2.92336 -1.83789,-3.76758 -0.82629,-0.64789 -1.76123,-1.01972 -2.65429,-1.20507 -0.74392,-0.1544 -1.49833,-0.22461 -2.25,-0.22461 -0.84083,0 -1.68691,0.12868 -2.49414,0.3789 -0.84651,0.2558 -1.70797,0.67696 -2.45118,1.33008 a 3.5452909,3.5452909 0 0 0 -0.041,0.0352 c -0.89053,0.80707 -1.54248,2.22253 -1.57813,3.48632 -0.52038,0.14473 -1.04825,0.2674 -1.54296,0.48438 a 3.5452909,3.5452909 0 0 0 -0.01,0.004 c -1.09773,0.48573 -2.02077,1.26337 -2.92578,2.04687 -0.3164,-1.01053 -0.79723,-1.98455 -1.56445,-2.64648 -1.00647,-0.86834 -2.18698,-1.36442 -3.37891,-1.64453 -1.10856,-0.26923 -2.2623,-0.38868 -3.45703,-0.38868 -1.05111,0 -2.10522,0.0925 -3.15235,0.26953 -1.07313,0.17228 -2.09989,0.43613 -3.06836,0.8086 -1.01852,0.39174 -1.98129,0.91522 -2.82812,1.67383 -0.24696,0.22123 -0.42745,0.57577 -0.64648,0.86914 -0.82029,-0.90191 -1.79351,-1.67517 -2.90821,-2.16016 -1.20594,-0.53296 -2.5255,-0.8036 -3.84375,-0.81836 -0.33278,-0.86779 -0.80561,-1.67789 -1.43945,-2.17773 -0.79172,-0.62728 -1.67033,-0.99894 -2.5293,-1.22071 -0.79776,-0.21707 -1.62318,-0.33007 -2.44726,-0.33007 -0.75701,0 -1.52314,0.0814 -2.27539,0.26562 -0.86396,0.21159 -1.7565,0.59724 -2.53711,1.25195 -0.7852,0.65857 -1.29022,1.77189 -1.50391,2.84571 -1.50149,-0.81378 -3.18532,-1.26367 -4.90039,-1.26367 -1.72629,0 -3.45859,0.42594 -4.95312,1.28906 -0.98979,0.56906 -1.7569,1.43281 -2.5293,2.27539 -0.31296,-0.57131 -0.64794,-1.14176 -1.11524,-1.54492 -1.00277,-0.86514 -2.18377,-1.36409 -3.37695,-1.64453 -1.10986,-0.26954 -2.26425,-0.38868 -3.45898,-0.38868 -1.05111,0 -2.10522,0.0925 -3.15235,0.26953 -1.07313,0.17228 -2.09988,0.43612 -3.06836,0.8086 -0.42418,0.16315 -0.77704,0.48089 -1.17773,0.69726 -0.12433,-1.18689 -0.71449,-2.5004 -1.62109,-3.26757 -0.77294,-0.66097 -1.67234,-1.08321 -2.54883,-1.30664 -0.77598,-0.19778 -1.56729,-0.28711 -2.349613,-0.28711 -0.933944,0 -1.835131,0.16709 -2.699218,0.4414 -0.98693,0.31332 -1.868387,0.93247 -2.607422,1.66016 -0.734195,-0.72312 -1.6115,-1.3398 -2.595703,-1.6543 -0.866513,-0.27899 -1.775473,-0.44726 -2.708985,-0.44726 -0.782324,0 -1.573616,0.0893 -2.349609,0.28711 -0.885269,0.22567 -1.790658,0.63688 -2.570313,1.29687 -0.816601,0.69065 -1.303839,1.81389 -1.509765,2.88281 -0.754656,-0.44704 -1.54482,-0.79984 -2.363281,-0.99218 -1.108564,-0.26923 -2.262296,-0.38868 -3.457032,-0.38868 -1.051106,0 -2.105214,0.0925 -3.152343,0.26953 -1.073136,0.17228 -2.099892,0.43612 -3.06836,0.8086 -0.645105,0.24812 -1.205645,0.68038 -1.791015,1.06055 6.7e-5,-0.0113 0.0078,-0.0159 0.0078,-0.0274 0,-1.29703 -0.755853,-2.92336 -1.837891,-3.76758 -0.826315,-0.64791 -1.76124,-1.01972 -2.654296,-1.20507 -0.743914,-0.15439 -1.498322,-0.22461 -2.25,-0.22461 -0.840831,0 -1.686921,0.12868 -2.494141,0.3789 -0.849106,0.25662 -1.711635,0.6819 -2.449219,1.33008 a 3.5452909,3.5452909 0 0 0 -0.04102,0.0352 c -0.884972,0.80203 -1.54415,2.21151 -1.580079,3.48632 -0.520382,0.14473 -1.048249,0.2674 -1.542968,0.48438 a 3.5452909,3.5452909 0 0 0 -0.0098,0.004 c -1.097732,0.48573 -2.020764,1.26337 -2.925781,2.04687 -0.316397,-1.01054 -0.79722,-1.98455 -1.564453,-2.64648 -1.006456,-0.86833 -2.186976,-1.36442 -3.378907,-1.64453 -1.108563,-0.26923 -2.262295,-0.38868 -3.457031,-0.38868 -1.051106,0 -2.105214,0.0925 -3.152344,0.26953 -0.685724,0.11009 -1.316687,0.32577 -1.960937,0.51563 -0.04949,-0.19027 -0.03737,-0.40165 -0.103516,-0.58203 -0.272376,-0.74283 -0.772727,-1.49094 -1.421875,-2.07227 -0.84605,-0.76393 -2.089442,-1.20312 -3.091797,-1.20312 -0.22169,0 -0.570078,-0.008 -1.017578,-0.0254 h -0.002 c -0.764025,-0.0297 -1.594383,-0.043 -2.49414,-0.043 z"
       id="path6"
       style="fill:#2b5ba7;fill-opacity:1"
       inkscape:export-filename="fadamachado-bg.svg"
       inkscape:export-xdpi="96"
       inkscape:export-ydpi="96" />
    <path
       style="font-size:28.2223px;font-family:'Super Magic';-inkscape-font-specification:'Super Magic, Normal';fill:#2b5ba7;stroke-width:0.264583"
       sodipodi:type="inkscape:offset"
       inkscape:radius="3.5449364"
       inkscape:original="M 29.197266 165.83789 C 27.323128 165.83789 25.834855 165.96991 24.732422 166.23633 C 23.26251 166.58543 22.527344 167.20652 22.527344 168.09766 C 22.527344 168.49269 22.688222 168.95992 23.009766 169.50195 C 23.524235 170.34715 23.78125 171.28552 23.78125 172.31445 C 23.78125 173.0586 23.680629 173.80722 23.478516 174.56055 C 23.276403 175.30469 23.046297 176.04434 22.789062 176.7793 C 22.541015 177.4775 22.326317 178.16138 22.142578 178.83203 C 21.958839 179.50268 21.867188 180.15068 21.867188 180.77539 C 21.867187 181.62978 22.054975 182.42324 22.431641 183.1582 C 22.817492 183.89316 23.40972 184.49183 24.208984 184.95117 C 25.008248 185.40133 26.02734 185.625 27.267578 185.625 C 28.259768 185.625 29.202616 185.49298 30.09375 185.22656 C 30.984884 184.96014 31.711081 184.55571 32.271484 184.01367 C 32.831888 183.46246 33.111328 182.7542 33.111328 181.89062 C 33.111328 181.07298 32.968389 180.36668 32.683594 179.76953 C 32.407985 179.16319 32.054834 178.62478 31.623047 178.15625 C 31.191261 177.67853 30.746457 177.23373 30.287109 176.82031 C 29.910445 176.4804 29.55534 176.1407 29.224609 175.80078 C 28.893879 175.45168 28.618924 175.07863 28.398438 174.68359 C 28.076895 174.15075 27.916016 173.73285 27.916016 173.42969 C 27.916016 173.15408 28.041015 172.97526 28.289062 172.89258 C 28.546297 172.80071 28.948783 172.75391 29.5 172.75391 C 30.023656 172.75391 30.483868 172.8052 30.878906 172.90625 C 31.172888 172.96138 31.420934 172.98828 31.623047 172.98828 C 31.880282 172.98828 32.068069 172.87421 32.1875 172.64453 C 32.30693 172.41486 32.367188 172.16233 32.367188 171.88672 C 32.367188 171.52843 32.280021 171.18425 32.105469 170.85352 C 31.930917 170.5136 31.691841 170.34375 31.388672 170.34375 C 31.131438 170.34375 30.80071 170.41746 30.396484 170.56445 C 30.130063 170.65633 29.846138 170.73901 29.542969 170.8125 C 29.239799 170.88599 28.927011 170.92187 28.605469 170.92188 C 28.274738 170.92187 28.017723 170.83919 27.833984 170.67383 C 27.659432 170.49928 27.572266 170.27815 27.572266 170.01172 C 27.572266 169.8188 27.626085 169.62204 27.736328 169.41992 C 27.855759 169.20862 28.030092 169.02981 28.259766 168.88281 C 28.498626 168.73582 28.802444 168.66211 29.169922 168.66211 C 29.959999 168.66211 30.621454 168.68454 31.154297 168.73047 C 31.696327 168.7764 32.219327 168.88151 32.724609 169.04688 C 32.84404 169.08361 32.960069 169.10352 33.070312 169.10352 C 33.391855 169.10352 33.635416 168.96058 33.800781 168.67578 C 33.966146 168.39099 34.048828 168.06475 34.048828 167.69727 C 34.048828 167.41247 33.99754 167.13303 33.896484 166.85742 C 33.795428 166.58182 33.643519 166.35619 33.441406 166.18164 C 33.24848 165.9979 33.004919 165.90625 32.710938 165.90625 C 32.416955 165.90625 32.032409 165.89731 31.554688 165.87891 C 30.847293 165.85137 30.060838 165.83789 29.197266 165.83789 z M 61.884766 165.89258 C 61.379484 165.89258 60.892362 165.96629 60.423828 166.11328 C 59.964481 166.25108 59.584419 166.45233 59.28125 166.71875 C 58.987268 166.98518 58.839844 167.30693 58.839844 167.68359 C 58.839844 168.02351 59.005208 168.40552 59.335938 168.82812 C 59.832032 169.42528 60.080078 169.86111 60.080078 170.13672 C 60.080078 170.32962 59.955079 170.45715 59.707031 170.52148 C 59.458984 170.58582 59.101347 170.61914 58.632812 170.61914 C 57.392575 170.61914 56.248484 170.84925 55.201172 171.30859 C 54.163047 171.76795 53.262516 172.39605 52.5 173.19531 C 51.74667 173.98539 51.158927 174.89489 50.736328 175.92383 C 50.322915 176.95277 50.117188 178.0366 50.117188 179.17578 C 50.117188 180.96724 50.604309 182.43757 51.578125 183.58594 C 52.73568 184.9456 54.543757 185.625 57.005859 185.625 C 58.043984 185.625 59.212453 185.4885 60.507812 185.21289 C 61.031469 185.50687 61.614726 185.65234 62.257812 185.65234 C 63.433741 185.65234 64.392576 185.44662 65.136719 185.0332 C 65.880861 184.6106 66.42824 184.07668 66.777344 183.43359 C 67.126448 182.78132 67.300781 182.11538 67.300781 181.43555 C 67.300781 180.59035 66.80469 179.08861 65.8125 176.92969 C 65.527705 176.27741 65.257235 175.62941 65 174.98633 C 64.412035 173.51641 64.117188 172.25377 64.117188 171.19727 C 64.117188 170.28776 64.320383 169.46094 64.724609 168.7168 C 64.96347 168.26663 65.082031 167.87565 65.082031 167.54492 C 65.082031 167.13151 64.925637 166.80527 64.613281 166.56641 C 64.300925 166.31836 63.90097 166.14403 63.414062 166.04297 C 62.927155 165.94192 62.417609 165.89258 61.884766 165.89258 z M 88.880859 165.89258 C 88.366391 165.89258 87.874785 165.95089 87.40625 166.07031 C 86.937716 166.18975 86.551216 166.37949 86.248047 166.63672 C 85.954065 166.88477 85.808594 167.21101 85.808594 167.61523 C 85.808594 167.95515 85.945095 168.35959 86.220703 168.82812 C 86.505498 169.29666 86.708694 169.76837 86.828125 170.24609 C 86.956742 170.71463 87.019531 171.19726 87.019531 171.69336 C 87.019531 172.54775 86.883031 173.43034 86.607422 174.33984 C 86.341001 175.24016 86.028213 176.15415 85.669922 177.08203 C 85.247322 178.18446 84.889685 179.28624 84.595703 180.38867 C 84.51302 180.73778 84.470703 181.08645 84.470703 181.43555 C 84.470703 182.15213 84.654006 182.83348 85.021484 183.47656 C 85.388962 184.11046 85.94531 184.62898 86.689453 185.0332 C 87.442782 185.42824 88.38563 185.625 89.515625 185.625 C 90.195459 185.625 90.823566 185.45963 91.402344 185.12891 C 91.990308 184.79817 92.463975 184.3444 92.822266 183.76562 C 93.189744 183.17766 93.373047 182.49827 93.373047 181.72656 C 93.373047 180.82624 93.069229 179.84303 92.462891 178.77734 C 92.067851 178.12507 91.701245 177.27388 91.361328 176.22656 C 91.030598 175.17007 90.865234 174.09071 90.865234 172.98828 L 90.865234 172.50586 C 90.865234 171.88115 90.952401 171.57031 91.126953 171.57031 C 91.218822 171.57031 91.357277 171.69336 91.541016 171.94141 C 91.724755 172.18945 91.890118 172.51121 92.037109 172.90625 C 92.1841 173.2921 92.257812 173.69654 92.257812 174.11914 C 92.257813 174.47743 92.188585 174.83059 92.050781 175.17969 C 91.949725 175.41855 91.898437 175.64417 91.898438 175.85547 C 91.898437 176.19539 92.008029 176.47931 92.228516 176.70898 C 92.449002 176.92947 92.73488 177.09932 93.083984 177.21875 C 93.442276 177.329 93.808882 177.38477 94.185547 177.38477 C 94.571399 177.38477 94.939958 177.329 95.289062 177.21875 C 95.638166 177.09932 95.922091 176.92947 96.142578 176.70898 C 96.363065 176.47931 96.474609 176.19539 96.474609 175.85547 C 96.474609 175.64417 96.423322 175.41855 96.322266 175.17969 C 96.184462 174.8214 96.115234 174.46376 96.115234 174.10547 C 96.115234 173.69206 96.184462 173.2921 96.322266 172.90625 C 96.469257 172.5204 96.630135 172.20313 96.804688 171.95508 C 96.988426 171.70703 97.131365 171.58398 97.232422 171.58398 C 97.425348 171.62992 97.521484 171.89141 97.521484 172.36914 C 97.521484 173.52669 97.356121 174.70667 97.025391 175.91016 C 96.703848 177.10446 96.330803 178.06076 95.908203 178.77734 C 95.301865 179.84303 95 180.82624 95 181.72656 C 95 182.49827 95.178819 183.17766 95.537109 183.76562 C 95.904587 184.34441 96.382738 184.79817 96.970703 185.12891 C 97.558668 185.45963 98.186775 185.625 98.857422 185.625 C 99.996607 185.625 100.93945 185.42824 101.68359 185.0332 C 102.42773 184.62898 102.98213 184.10598 103.34961 183.46289 C 103.71709 182.81981 103.90234 182.13846 103.90234 181.42188 C 103.90234 181.07277 103.86003 180.72859 103.77734 180.38867 C 103.48336 179.28624 103.12572 178.18446 102.70312 177.08203 C 102.34483 176.15415 102.02756 175.24016 101.75195 174.33984 C 101.48553 173.43034 101.35156 172.54775 101.35156 171.69336 C 101.35156 171.20645 101.41182 170.72381 101.53125 170.24609 C 101.65987 169.76837 101.86111 169.29666 102.13672 168.82812 C 102.42152 168.35959 102.56445 167.95515 102.56445 167.61523 C 102.56445 167.21101 102.41255 166.88477 102.10938 166.63672 C 101.8154 166.37949 101.43533 166.18975 100.9668 166.07031 C 100.49826 165.95089 100.00666 165.89258 99.492188 165.89258 C 98.986905 165.89258 98.444012 165.98423 97.865234 166.16797 C 97.286457 166.35171 96.799336 166.68692 96.404297 167.17383 C 95.834706 167.92715 95.385418 168.48799 95.054688 168.85547 C 94.723957 169.21376 94.424624 169.39258 94.158203 169.39258 C 93.910156 169.39258 93.64417 169.23619 93.359375 168.92383 C 93.07458 168.61147 92.703488 168.14678 92.244141 167.53125 L 91.966797 167.17383 C 91.571758 166.68692 91.08659 166.35171 90.507812 166.16797 C 89.938222 165.98423 89.395329 165.89258 88.880859 165.89258 z M 140.06055 165.89258 C 139.55527 165.89258 139.07907 165.9464 138.62891 166.05664 C 138.17874 166.16689 137.81018 166.34317 137.52539 166.58203 C 137.2406 166.82089 137.09766 167.12724 137.09766 167.50391 C 137.09766 167.88976 137.27395 168.34549 137.62305 168.86914 C 137.98134 169.38361 138.23835 169.92006 138.39453 170.48047 C 138.55071 171.04087 138.62891 171.61516 138.62891 172.20312 C 138.62891 172.80946 138.54174 173.43504 138.36719 174.07812 C 138.20182 174.71203 138.00311 175.36451 137.77344 176.03516 C 137.5162 176.80686 137.27713 177.60481 137.05664 178.43164 C 136.84534 179.24928 136.74023 180.10496 136.74023 180.99609 C 136.74023 181.77699 136.92802 182.52112 137.30469 183.22852 C 137.68135 183.93591 138.26461 184.51468 139.05469 184.96484 C 139.84476 185.40582 140.85684 185.625 142.08789 185.625 C 143.00658 185.625 143.76866 185.33211 144.375 184.74414 C 144.98134 184.15618 145.2832 183.37421 145.2832 182.40039 C 145.2832 181.27958 144.86531 180.09513 144.0293 178.8457 C 143.20247 177.59628 142.78906 176.45667 142.78906 175.42773 C 142.78906 174.78465 142.932 174.28407 143.2168 173.92578 C 143.51078 173.56749 143.83703 173.38867 144.19531 173.38867 C 144.53523 173.38867 144.8525 173.56749 145.14648 173.92578 C 145.44966 174.27489 145.65538 174.83572 145.76562 175.60742 C 145.83913 176.33319 145.87695 177.12218 145.87695 177.97656 C 145.87695 178.61046 145.86347 179.21362 145.83594 179.7832 L 145.80859 181.28516 C 145.80859 182.08442 146.00087 182.8151 146.38672 183.47656 C 146.77257 184.12884 147.28212 184.65184 147.91602 185.04688 C 148.54992 185.43273 149.24725 185.625 150.00977 185.625 C 150.58855 185.625 151.17824 185.50644 151.77539 185.26758 C 152.37254 185.02872 152.87312 184.69351 153.27734 184.26172 C 153.68157 183.82075 153.88281 183.31569 153.88281 182.74609 C 153.88281 182.20407 153.65271 181.62529 153.19336 181.00977 C 152.65133 180.284 152.31163 179.49754 152.17383 178.65234 C 152.03602 177.79796 151.9668 176.91732 151.9668 176.00781 C 151.9484 175.46578 151.9215 174.92289 151.88477 174.38086 C 151.78371 173.31517 151.46195 172.4281 150.91992 171.7207 C 150.37789 171.0133 149.70298 170.48582 148.89453 170.13672 C 148.08608 169.77843 147.24581 169.59961 146.37305 169.59961 C 145.34411 169.59961 144.36538 169.84766 143.4375 170.34375 C 142.85873 170.68367 142.4498 170.85352 142.21094 170.85352 C 142.06395 170.84433 141.99023 170.77062 141.99023 170.63281 C 141.99023 170.30209 142.32545 169.64063 142.99609 168.64844 C 143.22577 168.27178 143.3418 167.94105 143.3418 167.65625 C 143.3418 167.26121 143.17644 166.93497 142.8457 166.67773 C 142.52416 166.4205 142.11075 166.22822 141.60547 166.09961 C 141.10937 165.9618 140.59339 165.89258 140.06055 165.89258 z M 182.36719 165.89258 C 181.86191 165.89258 181.37478 165.96629 180.90625 166.11328 C 180.4469 166.25108 180.06489 166.45233 179.76172 166.71875 C 179.46774 166.98518 179.32227 167.30693 179.32227 167.68359 C 179.32227 168.02351 179.48763 168.40552 179.81836 168.82812 C 180.31445 169.42528 180.5625 169.86111 180.5625 170.13672 C 180.5625 170.32962 180.4375 170.45715 180.18945 170.52148 C 179.94141 170.58582 179.58377 170.61914 179.11523 170.61914 C 177.87499 170.61914 176.73091 170.84925 175.68359 171.30859 C 174.64547 171.76795 173.74494 172.39605 172.98242 173.19531 C 172.22909 173.98539 171.64135 174.89489 171.21875 175.92383 C 170.80534 176.95277 170.59961 178.0366 170.59961 179.17578 C 170.59961 180.96724 171.08478 182.43757 172.05859 183.58594 C 173.21615 184.9456 175.02617 185.625 177.48828 185.625 C 178.5264 185.625 179.69292 185.4885 180.98828 185.21289 C 181.51194 185.50687 182.09519 185.65234 182.73828 185.65234 C 183.91421 185.65234 184.875 185.44662 185.61914 185.0332 C 186.36329 184.6106 186.91067 184.07668 187.25977 183.43359 C 187.60887 182.78132 187.7832 182.11538 187.7832 181.43555 C 187.7832 180.59035 187.28712 179.08861 186.29492 176.92969 C 186.01013 176.27741 185.73966 175.62941 185.48242 174.98633 C 184.89446 173.51641 184.59961 172.25377 184.59961 171.19727 C 184.59961 170.28776 184.80085 169.46094 185.20508 168.7168 C 185.44394 168.26663 185.56445 167.87565 185.56445 167.54492 C 185.56445 167.13151 185.40806 166.80527 185.0957 166.56641 C 184.78334 166.31836 184.38339 166.14403 183.89648 166.04297 C 183.40958 165.94192 182.90003 165.89258 182.36719 165.89258 z M 42.441406 168.97852 C 41.58702 168.97852 40.726855 169.05223 39.863281 169.19922 C 38.999709 169.33703 38.210723 169.54471 37.494141 169.82031 C 36.777559 170.09592 36.198786 170.43113 35.757812 170.82617 C 35.316839 171.22121 35.095703 171.66602 35.095703 172.16211 C 35.095703 172.66739 35.256582 173.15003 35.578125 173.60938 C 35.908855 174.06873 36.313294 174.4443 36.791016 174.73828 C 37.277924 175.02307 37.756075 175.16602 38.224609 175.16602 C 38.720705 175.16602 39.073856 174.96029 39.285156 174.54688 C 39.63426 173.8946 40.047669 173.42093 40.525391 173.12695 C 41.012299 172.82379 41.430193 172.67188 41.779297 172.67188 C 42.183522 172.68106 42.384766 172.824 42.384766 173.09961 C 42.384766 173.26498 42.288629 173.4707 42.095703 173.71875 C 41.911964 173.95761 41.60113 174.23901 41.160156 174.56055 C 40.553818 174.98315 39.88144 175.41001 39.146484 175.8418 C 38.540146 176.20928 37.943433 176.58485 37.355469 176.9707 C 36.767504 177.35655 36.231049 177.76996 35.744141 178.21094 C 35.257233 178.64272 34.866248 179.10742 34.572266 179.60352 C 34.278284 180.09961 34.130859 180.6425 34.130859 181.23047 C 34.130859 181.97461 34.343026 182.68092 34.765625 183.35156 C 35.197412 184.01302 35.830004 184.55592 36.666016 184.97852 C 37.502028 185.39193 38.536527 185.59766 39.767578 185.59766 C 39.969691 185.59766 40.186342 185.58417 40.416016 185.55664 C 40.64569 185.51991 40.882812 185.50195 41.130859 185.50195 C 41.314598 185.50195 41.567129 185.41479 41.888672 185.24023 C 42.384767 184.983 42.748842 184.85352 42.978516 184.85352 C 43.097946 184.85352 43.207538 184.88237 43.308594 184.9375 C 43.418837 184.98343 43.539351 185.04174 43.667969 185.11523 C 44.228373 185.45515 44.84751 185.625 45.527344 185.625 C 46.207178 185.625 46.837238 185.46412 47.416016 185.14258 C 47.994794 184.82103 48.462022 184.37175 48.820312 183.79297 C 49.178604 183.20501 49.359375 182.52561 49.359375 181.75391 C 49.359375 180.88115 49.077982 179.91139 48.517578 178.8457 C 47.461079 177.0175 46.933594 175.59397 46.933594 174.57422 C 46.933594 174.29861 47.06561 173.78262 47.332031 173.0293 C 47.552518 172.36784 47.664062 171.93649 47.664062 171.73438 C 47.664063 171.0821 47.429472 170.55462 46.960938 170.15039 C 46.492403 169.74616 45.862343 169.45132 45.072266 169.26758 C 44.282188 169.07465 43.406036 168.97852 42.441406 168.97852 z M 76.630859 168.97852 C 75.776473 168.97852 74.916307 169.05223 74.052734 169.19922 C 73.189161 169.33703 72.400176 169.54471 71.683594 169.82031 C 70.967012 170.09592 70.388239 170.43113 69.947266 170.82617 C 69.506292 171.22121 69.285156 171.66602 69.285156 172.16211 C 69.285156 172.66739 69.446035 173.15003 69.767578 173.60938 C 70.098308 174.06873 70.502747 174.4443 70.980469 174.73828 C 71.467377 175.02307 71.945528 175.16602 72.414062 175.16602 C 72.910157 175.16602 73.263309 174.96029 73.474609 174.54688 C 73.823713 173.8946 74.237122 173.42093 74.714844 173.12695 C 75.201752 172.82379 75.619646 172.67188 75.96875 172.67188 C 76.372975 172.68106 76.574219 172.824 76.574219 173.09961 C 76.574219 173.26498 76.478082 173.4707 76.285156 173.71875 C 76.101417 173.95761 75.78863 174.23901 75.347656 174.56055 C 74.741318 174.98315 74.070893 175.41001 73.335938 175.8418 C 72.729599 176.20928 72.132887 176.58485 71.544922 176.9707 C 70.956957 177.35655 70.420502 177.76996 69.933594 178.21094 C 69.446686 178.64272 69.055701 179.10742 68.761719 179.60352 C 68.467737 180.09961 68.320313 180.6425 68.320312 181.23047 C 68.320313 181.97461 68.532479 182.68092 68.955078 183.35156 C 69.386865 184.01302 70.019457 184.55592 70.855469 184.97852 C 71.691481 185.39193 72.72598 185.59766 73.957031 185.59766 C 74.159144 185.59766 74.373842 185.58417 74.603516 185.55664 C 74.83319 185.51991 75.072265 185.50195 75.320312 185.50195 C 75.504052 185.50195 75.756582 185.41479 76.078125 185.24023 C 76.57422 184.983 76.938295 184.85352 77.167969 184.85352 C 77.287399 184.85352 77.39699 184.88237 77.498047 184.9375 C 77.60829 184.98343 77.728805 185.04174 77.857422 185.11523 C 78.417825 185.45515 79.036963 185.625 79.716797 185.625 C 80.396631 185.625 81.026691 185.46412 81.605469 185.14258 C 82.184246 184.82103 82.651475 184.37175 83.009766 183.79297 C 83.368057 183.20501 83.546875 182.52561 83.546875 181.75391 C 83.546875 180.88115 83.267435 179.91139 82.707031 178.8457 C 81.650533 177.0175 81.123047 175.59397 81.123047 174.57422 C 81.123047 174.29861 81.255063 173.78262 81.521484 173.0293 C 81.741971 172.36784 81.853516 171.93649 81.853516 171.73438 C 81.853516 171.0821 81.618925 170.55462 81.150391 170.15039 C 80.681856 169.74616 80.051796 169.45132 79.261719 169.26758 C 78.471641 169.07465 77.595489 168.97852 76.630859 168.97852 z M 113.41016 168.97852 C 112.55577 168.97852 111.6956 169.05223 110.83203 169.19922 C 109.96846 169.33703 109.17947 169.54471 108.46289 169.82031 C 107.74631 170.09592 107.16754 170.43113 106.72656 170.82617 C 106.28559 171.22121 106.06445 171.66602 106.06445 172.16211 C 106.06445 172.66739 106.22534 173.15003 106.54688 173.60938 C 106.87761 174.06873 107.28205 174.4443 107.75977 174.73828 C 108.24667 175.02307 108.72483 175.16602 109.19336 175.16602 C 109.68945 175.16602 110.04261 174.96029 110.25391 174.54688 C 110.60301 173.8946 111.01642 173.42093 111.49414 173.12695 C 111.98105 172.82379 112.39894 172.67188 112.74805 172.67188 C 113.15227 172.68106 113.35547 172.824 113.35547 173.09961 C 113.35547 173.26498 113.25933 173.4707 113.06641 173.71875 C 112.88267 173.95761 112.56988 174.23901 112.12891 174.56055 C 111.52257 174.98315 110.85214 175.41001 110.11719 175.8418 C 109.51085 176.20928 108.91219 176.58485 108.32422 176.9707 C 107.73626 177.35655 107.1998 177.76996 106.71289 178.21094 C 106.22598 178.64272 105.835 179.10742 105.54102 179.60352 C 105.24704 180.09961 105.09961 180.6425 105.09961 181.23047 C 105.09961 181.97461 105.31177 182.68092 105.73438 183.35156 C 106.16616 184.01302 106.80071 184.55592 107.63672 184.97852 C 108.47273 185.39193 109.50527 185.59766 110.73633 185.59766 C 110.93844 185.59766 111.15509 185.58417 111.38477 185.55664 C 111.61444 185.51991 111.85352 185.50195 112.10156 185.50195 C 112.2853 185.50195 112.53784 185.41479 112.85938 185.24023 C 113.35547 184.983 113.71759 184.85352 113.94727 184.85352 C 114.06669 184.85352 114.17628 184.88237 114.27734 184.9375 C 114.38758 184.98343 114.5081 185.04174 114.63672 185.11523 C 115.19712 185.45515 115.81626 185.625 116.49609 185.625 C 117.17593 185.625 117.80599 185.46412 118.38477 185.14258 C 118.96355 184.82103 119.43273 184.37175 119.79102 183.79297 C 120.14931 183.20501 120.32813 182.52561 120.32812 181.75391 C 120.32812 180.88115 120.04673 179.91139 119.48633 178.8457 C 118.42983 177.0175 117.90234 175.59397 117.90234 174.57422 C 117.90234 174.29861 118.03631 173.78262 118.30273 173.0293 C 118.52322 172.36784 118.63281 171.93649 118.63281 171.73438 C 118.63281 171.0821 118.39822 170.55462 117.92969 170.15039 C 117.46115 169.74616 116.83305 169.45132 116.04297 169.26758 C 115.25289 169.07465 114.37478 168.97852 113.41016 168.97852 z M 162.92383 168.97852 C 162.06944 168.97852 161.20927 169.05223 160.3457 169.19922 C 159.48213 169.33703 158.69315 169.54471 157.97656 169.82031 C 157.25998 170.09592 156.68121 170.43113 156.24023 170.82617 C 155.79926 171.22121 155.57812 171.66602 155.57812 172.16211 C 155.57813 172.66739 155.73901 173.15003 156.06055 173.60938 C 156.39128 174.06873 156.79572 174.4443 157.27344 174.73828 C 157.76034 175.02307 158.23849 175.16602 158.70703 175.16602 C 159.20312 175.16602 159.55628 174.96029 159.76758 174.54688 C 160.11668 173.8946 160.53009 173.42093 161.00781 173.12695 C 161.49472 172.82379 161.91262 172.67188 162.26172 172.67188 C 162.66595 172.68106 162.86719 172.824 162.86719 173.09961 C 162.86719 173.26498 162.77105 173.4707 162.57812 173.71875 C 162.39439 173.95761 162.0816 174.23901 161.64062 174.56055 C 161.03429 174.98315 160.36387 175.41001 159.62891 175.8418 C 159.02257 176.20928 158.42586 176.58485 157.83789 176.9707 C 157.24992 177.35655 156.71347 177.76996 156.22656 178.21094 C 155.73966 178.64272 155.34867 179.10742 155.05469 179.60352 C 154.76071 180.09961 154.61328 180.6425 154.61328 181.23047 C 154.61328 181.97461 154.82545 182.68092 155.24805 183.35156 C 155.67983 184.01302 156.31242 184.55592 157.14844 184.97852 C 157.98445 185.39193 159.01895 185.59766 160.25 185.59766 C 160.45211 185.59766 160.66681 185.58417 160.89648 185.55664 C 161.12616 185.51991 161.36523 185.50195 161.61328 185.50195 C 161.79702 185.50195 162.04955 185.41479 162.37109 185.24023 C 162.86719 184.983 163.23126 184.85352 163.46094 184.85352 C 163.58037 184.85352 163.68996 184.88237 163.79102 184.9375 C 163.90126 184.98343 164.02178 185.04174 164.15039 185.11523 C 164.7108 185.45515 165.32993 185.625 166.00977 185.625 C 166.6896 185.625 167.31966 185.46412 167.89844 185.14258 C 168.47721 184.82103 168.94444 184.37175 169.30273 183.79297 C 169.66102 183.20501 169.83984 182.52561 169.83984 181.75391 C 169.83984 180.88115 169.5604 179.91139 169 178.8457 C 167.9435 177.0175 167.41602 175.59397 167.41602 174.57422 C 167.41602 174.29861 167.54803 173.78262 167.81445 173.0293 C 168.03494 172.36784 168.14648 171.93649 168.14648 171.73438 C 168.14648 171.0821 167.91189 170.55462 167.44336 170.15039 C 166.97483 169.74616 166.34477 169.45132 165.55469 169.26758 C 164.76461 169.07465 163.88846 168.97852 162.92383 168.97852 z M 195.73438 168.97852 C 194.54926 168.97852 193.41414 169.31373 192.33008 169.98438 C 191.2552 170.64583 190.38354 171.65147 189.71289 173.00195 C 189.0514 174.35243 188.70527 176.05288 188.67773 178.10156 C 188.67773 179.35099 188.88094 180.44828 189.28516 181.39453 C 189.68938 182.3316 190.22584 183.11805 190.89648 183.75195 C 191.57632 184.37667 192.34035 184.84389 193.18555 185.15625 C 194.03075 185.4686 194.89793 185.625 195.78906 185.625 C 196.65264 185.625 197.50636 185.47504 198.35156 185.17188 C 199.19676 184.85951 199.96079 184.38585 200.64062 183.75195 C 201.32046 183.10887 201.8614 182.2955 202.26562 181.3125 C 202.67904 180.32031 202.88672 179.14482 202.88672 177.78516 C 202.88672 176.33362 202.68352 175.06004 202.2793 173.9668 C 201.88426 172.86436 201.3478 171.94589 200.66797 171.21094 C 199.98814 170.4668 199.22157 169.91045 198.36719 169.54297 C 197.5128 169.1663 196.63469 168.97852 195.73438 168.97852 z M 128.84375 168.99219 C 127.65864 168.99219 126.59722 169.26461 125.66016 169.80664 C 124.73227 170.33948 123.94329 171.05027 123.29102 171.94141 C 122.63875 172.82335 122.13817 173.81105 121.78906 174.9043 C 121.44914 175.98836 121.2793 177.08565 121.2793 178.19727 C 121.2793 179.1619 121.41579 180.09577 121.69141 180.99609 C 121.96701 181.88723 122.3894 182.6807 122.95898 183.37891 C 123.53776 184.07711 124.26844 184.63346 125.15039 185.04688 C 126.03234 185.46029 127.08477 185.66602 128.30664 185.66602 C 129.20696 185.66602 130.08955 185.55194 130.95312 185.32227 C 131.82588 185.08341 132.61039 184.73474 133.30859 184.27539 C 134.0068 183.81604 134.56315 183.25072 134.97656 182.58008 C 135.39916 181.90024 135.60938 181.12471 135.60938 180.25195 C 135.60938 179.48943 135.4953 178.78566 135.26562 178.14258 C 135.03595 177.4903 134.70971 176.96282 134.28711 176.55859 C 133.8737 176.15437 133.37761 175.95117 132.79883 175.95117 C 132.37623 175.95117 131.91154 176.09411 131.40625 176.37891 C 131.06634 176.57183 130.72215 176.7058 130.37305 176.7793 C 130.03313 176.84363 129.66204 176.875 129.25781 176.875 C 128.70659 176.875 128.25984 176.7186 127.91992 176.40625 C 127.58 176.0939 127.33196 175.69843 127.17578 175.2207 C 127.01961 174.74298 126.94141 174.2623 126.94141 173.77539 C 126.94141 173.12312 127.06192 172.54434 127.30078 172.03906 C 127.53964 171.52459 127.85691 171.26562 128.25195 171.26562 C 128.54593 171.26562 128.77604 171.38165 128.94141 171.61133 C 129.11596 171.83181 129.24798 172.08883 129.33984 172.38281 C 129.43173 172.67679 129.49647 172.9383 129.5332 173.16797 C 129.57 173.33334 129.60137 173.45385 129.62891 173.52734 C 129.75752 173.82133 129.97417 174.04051 130.27734 174.1875 C 130.58051 174.32531 130.91572 174.39453 131.2832 174.39453 C 131.69662 174.39453 132.11451 174.31634 132.53711 174.16016 C 132.95971 174.00398 133.30838 173.77835 133.58398 173.48438 C 133.86878 173.18121 134.01172 172.82357 134.01172 172.41016 C 133.96579 171.40878 133.4383 170.59093 132.42773 169.95703 C 131.42636 169.31394 130.23098 168.99219 128.84375 168.99219 z M 195.78906 170.82617 C 196.21166 170.82617 196.58919 171.14793 196.91992 171.79102 C 197.25981 172.4341 197.43863 173.39294 197.45703 174.66992 C 197.45703 175.54268 197.28718 176.19965 196.94727 176.64062 C 196.61653 177.0816 196.24798 177.30273 195.84375 177.30273 C 195.36603 177.30273 194.98597 177.05469 194.70117 176.55859 C 194.41639 176.0625 194.26897 175.30939 194.25977 174.29883 C 194.25977 173.52712 194.33348 172.88361 194.48047 172.36914 C 194.63665 171.85467 194.82892 171.46817 195.05859 171.21094 C 195.28827 170.9537 195.53183 170.82617 195.78906 170.82617 z M 59.251953 172.94727 C 59.702114 172.94727 60.032841 173.0633 60.244141 173.29297 C 60.464628 173.52265 60.576172 173.80657 60.576172 174.14648 C 60.576172 174.63339 60.364006 175.14742 59.941406 175.68945 C 59.527994 176.23148 58.944736 176.62247 58.191406 176.86133 C 57.686124 176.99913 57.263745 177.06836 56.923828 177.06836 C 56.464481 177.06836 56.133753 176.97222 55.931641 176.7793 C 55.729528 176.57718 55.628906 176.32465 55.628906 176.02148 C 55.628906 175.50701 55.881437 174.95066 56.386719 174.35352 C 56.892001 173.75636 57.553456 173.33398 58.371094 173.08594 C 58.711011 172.99406 59.003906 172.94727 59.251953 172.94727 z M 179.73438 172.94727 C 180.18453 172.94727 180.51526 173.0633 180.72656 173.29297 C 180.94705 173.52265 181.05859 173.80657 181.05859 174.14648 C 181.05859 174.63339 180.84642 175.14742 180.42383 175.68945 C 180.01041 176.23148 179.42716 176.62247 178.67383 176.86133 C 178.16855 176.99913 177.74617 177.06836 177.40625 177.06836 C 176.9469 177.06836 176.61618 176.97222 176.41406 176.7793 C 176.21195 176.57718 176.11133 176.32465 176.11133 176.02148 C 176.11133 175.50701 176.36385 174.95066 176.86914 174.35352 C 177.37442 173.75636 178.03588 173.33398 178.85352 173.08594 C 179.19343 172.99406 179.48633 172.94727 179.73438 172.94727 z M 41.558594 176.48828 C 41.705585 176.48828 41.779297 176.6088 41.779297 176.84766 C 41.779297 177.12327 41.687646 177.48987 41.503906 177.94922 C 41.329354 178.39938 41.090279 178.80831 40.787109 179.17578 C 40.483941 179.53407 40.157698 179.71289 39.808594 179.71289 C 39.551359 179.71289 39.377026 179.67252 39.285156 179.58984 C 39.193287 179.50716 39.146484 179.39308 39.146484 179.24609 C 39.146484 178.96129 39.293909 178.60171 39.587891 178.16992 C 39.881873 177.72895 40.217085 177.33991 40.59375 177 C 40.979601 176.66008 41.301359 176.48828 41.558594 176.48828 z M 75.748047 176.48828 C 75.895038 176.48828 75.96875 176.6088 75.96875 176.84766 C 75.96875 177.12327 75.877098 177.48987 75.693359 177.94922 C 75.518807 178.39938 75.279732 178.80831 74.976562 179.17578 C 74.673393 179.53407 74.347151 179.71289 73.998047 179.71289 C 73.740812 179.71289 73.566479 179.67252 73.474609 179.58984 C 73.38274 179.50716 73.335938 179.39308 73.335938 179.24609 C 73.335937 178.96129 73.483362 178.60171 73.777344 178.16992 C 74.071326 177.72895 74.406538 177.33991 74.783203 177 C 75.169055 176.66008 75.490813 176.48828 75.748047 176.48828 z M 112.52734 176.48828 C 112.67434 176.48828 112.74805 176.6088 112.74805 176.84766 C 112.74805 177.12327 112.6564 177.48987 112.47266 177.94922 C 112.2981 178.39938 112.05903 178.80831 111.75586 179.17578 C 111.45269 179.53407 111.12645 179.71289 110.77734 179.71289 C 110.52011 179.71289 110.34578 179.67252 110.25391 179.58984 C 110.16204 179.50716 110.11719 179.39308 110.11719 179.24609 C 110.11719 178.96129 110.26266 178.60171 110.55664 178.16992 C 110.85063 177.72895 111.18584 177.33991 111.5625 177 C 111.94835 176.66008 112.27011 176.48828 112.52734 176.48828 z M 162.04102 176.48828 C 162.188 176.48828 162.26172 176.6088 162.26172 176.84766 C 162.26172 177.12327 162.17006 177.48987 161.98633 177.94922 C 161.81177 178.39938 161.5727 178.80831 161.26953 179.17578 C 160.96636 179.53407 160.64012 179.71289 160.29102 179.71289 C 160.03378 179.71289 159.85944 179.67252 159.76758 179.58984 C 159.6757 179.50716 159.62891 179.39308 159.62891 179.24609 C 159.62891 178.96129 159.77633 178.60171 160.07031 178.16992 C 160.36429 177.72895 160.69951 177.33991 161.07617 177 C 161.46202 176.66008 161.78378 176.48828 162.04102 176.48828 z "
       xlink:href="#text5"
       id="path5"
       inkscape:href="#text5"
       d="m 29.197266,162.29297 c -2.03987,0 -3.744769,0.12364 -5.294922,0.49805 -1.061449,0.25295 -2.108194,0.6179 -3.111328,1.46484 -1.006872,0.85009 -1.808594,2.4214 -1.808594,3.8418 0,1.35749 0.465616,2.34829 0.978515,3.21289 a 3.5452909,3.5452909 0 0 0 0.02148,0.0351 c 0.181201,0.29769 0.253906,0.53015 0.253906,0.96875 0,0.42145 -0.05555,0.85236 -0.179687,1.31836 -0.179351,0.66016 -0.38348,1.31803 -0.613282,1.97461 -0.274089,0.77272 -0.512768,1.53527 -0.71875,2.28711 -0.258123,0.94216 -0.402343,1.90943 -0.402343,2.88086 -2e-6,1.37383 0.324207,2.76903 0.955078,4 a 3.5452909,3.5452909 0 0 0 0.01563,0.0312 c 0.711508,1.35526 1.853322,2.47332 3.15039,3.21875 a 3.5452909,3.5452909 0 0 0 0.02539,0.0137 c 1.484411,0.83605 3.132384,1.13086 4.798828,1.13086 1.306648,0 2.601127,-0.17595 3.841797,-0.54687 0.949266,-0.2838 1.833301,-0.76433 2.65625,-1.34571 0.421122,0.31212 0.839268,0.63195 1.300781,0.86524 a 3.5452909,3.5452909 0 0 0 0.02734,0.0137 c 1.458712,0.72134 3.04783,0.98633 4.673828,0.98633 0.359851,0 0.714951,-0.0238 1.070313,-0.0664 a 3.5452909,3.5452909 0 0 0 0.138671,-0.0195 c 0.03191,-0.005 0.07737,-0.01 0.154297,-0.01 0.900634,0 1.417926,-0.18984 1.861328,-0.40429 0.821526,0.31034 1.678373,0.52734 2.535157,0.52734 1.239097,0 2.514676,-0.31957 3.609375,-0.92773 0.466616,-0.25924 0.746808,-0.74135 1.148437,-1.09961 1.873304,1.38595 4.266491,2.02734 6.720703,2.02734 1.127692,0 2.324005,-0.18557 3.544922,-0.41015 0.578948,0.14225 1.130361,0.4375 1.707031,0.4375 1.58937,0 3.161819,-0.26567 4.59961,-1.06446 a 3.5452909,3.5452909 0 0 0 0.0293,-0.0176 c 0.390299,-0.22165 0.736456,-0.53189 1.09375,-0.82031 0.413799,0.30445 0.822998,0.61898 1.27539,0.84766 a 3.5452909,3.5452909 0 0 0 0.02734,0.0137 c 1.458712,0.72134 3.04783,0.98633 4.673828,0.98633 0.359851,0 0.715356,-0.0241 1.06836,-0.0664 a 3.5452909,3.5452909 0 0 0 0.138671,-0.0195 c 0.02882,-0.005 0.07932,-0.01 0.15625,-0.01 0.900631,0 1.417925,-0.18984 1.861329,-0.40429 0.821526,0.31034 1.678372,0.52734 2.535156,0.52734 1.239097,0 2.514676,-0.31957 3.609375,-0.92773 0.314186,-0.17455 0.487015,-0.51876 0.773437,-0.74024 0.299823,0.21793 0.579137,0.47304 0.898438,0.64649 a 3.5452909,3.5452909 0 0 0 0.04492,0.0234 c 1.40196,0.73518 2.931154,0.99805 4.472656,0.99805 1.251397,0 2.540581,-0.33783 3.634766,-0.96094 0.414933,-0.23447 0.664743,-0.6742 1.03125,-0.98828 0.372151,0.31812 0.628629,0.76058 1.050781,0.99805 1.088097,0.61204 2.371606,0.95117 3.625,0.95117 1.547368,0 3.079388,-0.25792 4.488278,-1.00586 a 3.5452909,3.5452909 0 0 0 0.0293,-0.0156 c 0.45519,-0.24726 0.86754,-0.58652 1.27734,-0.92383 0.44458,0.3369 0.89449,0.67013 1.38477,0.91797 a 3.5452909,3.5452909 0 0 0 0.0273,0.0137 c 1.45674,0.72036 3.04587,0.98633 4.67188,0.98633 0.35985,0 0.71495,-0.0238 1.07031,-0.0664 a 3.5452909,3.5452909 0 0 0 0.13867,-0.0195 c 0.0288,-0.005 0.0793,-0.01 0.15625,-0.01 0.89955,0 1.41624,-0.19017 1.85938,-0.40429 0.82153,0.31035 1.67837,0.52734 2.53515,0.52734 1.2391,0 2.51468,-0.31958 3.60938,-0.92773 0.63413,-0.3523 1.05814,-0.97029 1.56641,-1.49805 0.64707,0.52876 1.21892,1.15749 1.9746,1.51172 1.45404,0.68157 3.04038,0.95508 4.66016,0.95508 1.19977,0 2.39507,-0.15397 3.55664,-0.46289 a 3.5452909,3.5452909 0 0 0 0.0254,-0.006 c 1.19826,-0.32795 2.34045,-0.82908 3.36914,-1.50586 0.16606,-0.10925 0.25677,-0.30577 0.41602,-0.42578 0.49902,0.47393 1.04086,0.90155 1.625,1.23437 a 3.5452909,3.5452909 0 0 0 0.0273,0.0156 c 1.47857,0.82526 3.1099,1.10937 4.76172,1.10937 1.31034,0 2.64511,-0.51641 3.79492,-1.27734 0.0633,0.0421 0.0938,0.12195 0.15821,0.16211 a 3.5452909,3.5452909 0 0 0 0.0312,0.0195 c 1.17343,0.71426 2.57907,1.0957 3.9375,1.0957 1.06288,0 2.11325,-0.22382 3.08203,-0.61133 0.56442,-0.22577 1.01875,-0.6759 1.52734,-1.0332 0.31072,0.20701 0.60003,0.45055 0.92969,0.61719 a 3.5452909,3.5452909 0 0 0 0.0273,0.0137 c 1.45872,0.72134 3.04783,0.98633 4.67383,0.98633 0.35985,0 0.71535,-0.0241 1.06836,-0.0664 a 3.5452909,3.5452909 0 0 0 0.13867,-0.0195 c 0.0289,-0.005 0.0793,-0.01 0.15625,-0.01 0.90063,0 1.41792,-0.18983 1.86133,-0.40429 0.82152,0.31034 1.67837,0.52734 2.53516,0.52734 1.23909,0 2.51467,-0.31958 3.60937,-0.92773 0.4662,-0.25901 0.74515,-0.74175 1.14648,-1.09961 1.87425,1.3868 4.26801,2.02734 6.72266,2.02734 1.12759,0 2.32287,-0.18566 3.54297,-0.41015 0.57924,0.1424 1.13006,0.4375 1.70703,0.4375 1.58937,0 3.16147,-0.26439 4.60156,-1.06446 a 3.5452909,3.5452909 0 0 0 0.0293,-0.0176 c 0.63734,-0.36194 1.2326,-0.82691 1.76563,-1.36328 0.87094,0.69262 1.78468,1.34506 2.82226,1.72852 1.22382,0.45227 2.52613,0.68945 3.83203,0.68945 1.27397,0 2.55019,-0.22825 3.75977,-0.66211 a 3.5452909,3.5452909 0 0 0 0.0312,-0.0117 c 1.28661,-0.4755 2.47397,-1.21567 3.47851,-2.15234 a 3.5452909,3.5452909 0 0 0 0.0176,-0.0156 c 1.07954,-1.02116 1.89732,-2.28797 2.46289,-3.66015 0.63139,-1.51865 0.89258,-3.16498 0.89258,-4.88281 0,-1.77757 -0.24876,-3.46604 -0.82617,-5.03321 -0.52669,-1.46208 -1.29195,-2.81306 -2.33203,-3.93945 -0.97643,-1.06604 -2.16342,-1.94284 -3.49414,-2.51758 -1.2723,-0.55822 -2.65774,-0.86133 -4.04493,-0.86133 -1.85065,0 -3.6872,0.559 -5.26171,1.53125 -4.3e-4,2.7e-4 -0.002,-2.6e-4 -0.002,0 -0.59218,0.36455 -1.07315,0.86592 -1.57031,1.34571 0.0471,-0.28001 0.20899,-0.44363 0.20898,-0.76563 0,-1.29701 -0.75583,-2.92336 -1.83789,-3.76758 -0.82629,-0.64789 -1.76123,-1.01972 -2.65429,-1.20507 -0.74392,-0.1544 -1.49833,-0.22461 -2.25,-0.22461 -0.84083,0 -1.68691,0.12868 -2.49414,0.3789 -0.84651,0.2558 -1.70797,0.67696 -2.45118,1.33008 a 3.5452909,3.5452909 0 0 0 -0.041,0.0352 c -0.89053,0.80707 -1.54248,2.22253 -1.57813,3.48632 -0.52038,0.14473 -1.04825,0.2674 -1.54296,0.48438 a 3.5452909,3.5452909 0 0 0 -0.01,0.004 c -1.09773,0.48573 -2.02077,1.26337 -2.92578,2.04687 -0.3164,-1.01053 -0.79723,-1.98455 -1.56445,-2.64648 -1.00647,-0.86834 -2.18698,-1.36442 -3.37891,-1.64453 -1.10856,-0.26923 -2.2623,-0.38868 -3.45703,-0.38868 -1.05111,0 -2.10522,0.0925 -3.15235,0.26953 -1.07313,0.17228 -2.09989,0.43613 -3.06836,0.8086 -1.01852,0.39174 -1.98129,0.91522 -2.82812,1.67383 -0.24696,0.22123 -0.42745,0.57577 -0.64648,0.86914 -0.82029,-0.90191 -1.79351,-1.67517 -2.90821,-2.16016 -1.20594,-0.53296 -2.5255,-0.8036 -3.84375,-0.81836 -0.33278,-0.86779 -0.80561,-1.67789 -1.43945,-2.17773 -0.79172,-0.62728 -1.67033,-0.99894 -2.5293,-1.22071 -0.79776,-0.21707 -1.62318,-0.33007 -2.44726,-0.33007 -0.75701,0 -1.52314,0.0814 -2.27539,0.26562 -0.86396,0.21159 -1.7565,0.59724 -2.53711,1.25195 -0.7852,0.65857 -1.29022,1.77189 -1.50391,2.84571 -1.50149,-0.81378 -3.18532,-1.26367 -4.90039,-1.26367 -1.72629,0 -3.45859,0.42594 -4.95312,1.28906 -0.98979,0.56906 -1.7569,1.43281 -2.5293,2.27539 -0.31296,-0.57131 -0.64794,-1.14176 -1.11524,-1.54492 -1.00277,-0.86514 -2.18377,-1.36409 -3.37695,-1.64453 -1.10986,-0.26954 -2.26425,-0.38868 -3.45898,-0.38868 -1.05111,0 -2.10522,0.0925 -3.15235,0.26953 -1.07313,0.17228 -2.09988,0.43612 -3.06836,0.8086 -0.42418,0.16315 -0.77704,0.48089 -1.17773,0.69726 -0.12433,-1.18689 -0.71449,-2.5004 -1.62109,-3.26757 -0.77294,-0.66097 -1.67234,-1.08321 -2.54883,-1.30664 -0.77598,-0.19778 -1.56729,-0.28711 -2.349613,-0.28711 -0.933944,0 -1.835131,0.16709 -2.699218,0.4414 -0.98693,0.31332 -1.868387,0.93247 -2.607422,1.66016 -0.734195,-0.72312 -1.6115,-1.3398 -2.595703,-1.6543 -0.866513,-0.27899 -1.775473,-0.44726 -2.708985,-0.44726 -0.782324,0 -1.573616,0.0893 -2.349609,0.28711 -0.885269,0.22567 -1.790658,0.63688 -2.570313,1.29687 -0.816601,0.69065 -1.303839,1.81389 -1.509765,2.88281 -0.754656,-0.44704 -1.54482,-0.79984 -2.363281,-0.99218 -1.108564,-0.26923 -2.262296,-0.38868 -3.457032,-0.38868 -1.051106,0 -2.105214,0.0925 -3.152343,0.26953 -1.073136,0.17228 -2.099892,0.43612 -3.06836,0.8086 -0.645105,0.24812 -1.205645,0.68038 -1.791015,1.06055 6.7e-5,-0.0113 0.0078,-0.0159 0.0078,-0.0274 0,-1.29703 -0.755853,-2.92336 -1.837891,-3.76758 -0.826315,-0.64791 -1.76124,-1.01972 -2.654296,-1.20507 -0.743914,-0.15439 -1.498322,-0.22461 -2.25,-0.22461 -0.840831,0 -1.686921,0.12868 -2.494141,0.3789 -0.849106,0.25662 -1.711635,0.6819 -2.449219,1.33008 a 3.5452909,3.5452909 0 0 0 -0.04102,0.0352 c -0.884972,0.80203 -1.54415,2.21151 -1.580079,3.48632 -0.520382,0.14473 -1.048249,0.2674 -1.542968,0.48438 a 3.5452909,3.5452909 0 0 0 -0.0098,0.004 c -1.097732,0.48573 -2.020764,1.26337 -2.925781,2.04687 -0.316397,-1.01054 -0.79722,-1.98455 -1.564453,-2.64648 -1.006456,-0.86833 -2.186976,-1.36442 -3.378907,-1.64453 -1.108563,-0.26923 -2.262295,-0.38868 -3.457031,-0.38868 -1.051106,0 -2.105214,0.0925 -3.152344,0.26953 -0.685724,0.11009 -1.316687,0.32577 -1.960937,0.51563 -0.04949,-0.19027 -0.03737,-0.40165 -0.103516,-0.58203 -0.272376,-0.74283 -0.772727,-1.49094 -1.421875,-2.07227 -0.84605,-0.76393 -2.089442,-1.20312 -3.091797,-1.20312 -0.22169,0 -0.570078,-0.008 -1.017578,-0.0254 h -0.002 c -0.764025,-0.0297 -1.594383,-0.043 -2.49414,-0.043 z m 105.113284,4.66015 c 0.0111,0.007 0.0189,0.015 0.0117,0.0117 -0.004,-0.003 -0.007,-0.009 -0.0117,-0.0117 z m -77.183597,6.66602 c 1.06688,0.14138 1.252073,0.63544 1.310547,0.6543 0.889883,1.64986 0.900513,1.10115 0.679687,2.18945 -0.254003,-0.0252 -0.881818,-0.16191 -1.441406,-0.74219 -0.366773,-0.39822 -0.644531,-1.14608 -0.644531,-1.57422 0,-0.44965 0.104694,-0.53812 0.0957,-0.52734 z m 120.482417,0 c 1.0671,0.14154 1.25198,0.63539 1.31055,0.6543 0.88988,1.64987 0.90052,1.10115 0.67969,2.18945 -0.25402,-0.0252 -0.88181,-0.1619 -1.44141,-0.74219 -0.36679,-0.39824 -0.64453,-1.14611 -0.64453,-1.57422 0,-0.44967 0.1047,-0.53813 0.0957,-0.52734 z m 18.23438,0.13867 c 0.30666,0 0.65551,0.17599 0.97852,0.34961 -0.30756,0.13411 -0.64614,0.26367 -1.03321,0.26367 -0.37621,0 -0.6114,-0.1961 -0.92969,-0.33203 0.28747,-0.14026 0.60995,-0.28125 0.98438,-0.28125 z m -107.058594,0.041 c -0.03405,0.0805 -0.02909,0.20042 -0.06055,0.28515 -1.05e-4,-2.2e-4 -0.0038,-0.006 -0.0039,-0.006 0.0068,-0.0825 0.02233,-0.17168 0.0332,-0.19921 z m 10.802735,0 c 0.01432,0.0358 0.05859,0.21159 0.06641,0.26367 l -0.002,0.002 c -8.1e-5,1.1e-4 -0.0077,0.008 -0.0078,0.008 -0.03025,-0.081 -0.02402,-0.19634 -0.05664,-0.27344 z m -57.146485,2.36133 c -0.218206,0.4144 -0.09846,0.0888 -0.03906,0.0391 0.0081,-0.0151 0.03129,-0.0239 0.03906,-0.0391 z m 34.189453,0 c -0.218206,0.4144 -0.09846,0.0888 -0.03906,0.0391 0.0081,-0.0151 0.03129,-0.0239 0.03906,-0.0391 z m 36.779301,0 c -0.21894,0.41575 -0.0985,0.0889 -0.0391,0.0391 0.008,-0.0151 0.0313,-0.0239 0.0391,-0.0391 z m 49.51367,0 c -0.21894,0.41575 -0.0985,0.0889 -0.0391,0.0391 0.008,-0.0151 0.0313,-0.0239 0.0391,-0.0391 z m -121.279299,0.78906 c 1.193382,1.76014 0.857235,0.67719 1.046875,2.29687 0,0.61915 -0.0631,0.5384 -0.115234,0.60547 -0.211537,0.0867 -0.466994,0.18164 -1.017578,0.18164 -0.856666,0 -2.179158,-0.71372 -2.744141,-1.50586 1.041449,-0.17599 2.039547,-0.7538 2.830078,-1.57812 z m 34.189453,0 c 1.193395,1.76015 0.857235,0.67722 1.046875,2.29687 3e-6,0.61916 -0.0631,0.5384 -0.115234,0.60547 -0.211536,0.0867 -0.466991,0.18164 -1.017578,0.18164 -0.856665,0 -2.179158,-0.71372 -2.744141,-1.50586 1.041449,-0.17599 2.039547,-0.7538 2.830078,-1.57812 z m 36.779296,0 c 1.22287,1.78683 0.85607,0.73715 1.04883,2.29687 0,0.60821 -0.0625,0.53478 -0.11523,0.60547 -0.21143,0.0869 -0.46791,0.18164 -1.01954,0.18164 -0.85663,0 -2.17917,-0.71367 -2.74414,-1.50586 1.04145,-0.17599 2.03955,-0.7538 2.83008,-1.57812 z m 49.51367,0 c 1.19361,1.76027 0.85726,0.67763 1.04688,2.29687 0,0.61912 -0.0631,0.5384 -0.11524,0.60547 -0.21153,0.0867 -0.467,0.18164 -1.01757,0.18164 -0.85674,0 -2.17918,-0.71375 -2.74415,-1.50586 1.04145,-0.17599 2.03955,-0.7538 2.83008,-1.57812 z m -126.244138,1.29492 c 0.0091,0.0195 0.01302,0.0365 0.0059,0.0254 -0.0038,-0.008 -0.002,-0.0173 -0.0059,-0.0254 z m 102.111328,6.19531 c -0.003,0.004 -0.007,0.008 -0.006,0.006 0.001,-0.002 0.004,-0.003 0.006,-0.006 z m -42.158203,1.19141 c -0.0026,0.005 -0.0052,0.007 -0.0039,0.004 9.74e-4,-0.002 0.0029,-0.002 0.0039,-0.004 z m -52.255859,2.72461 c -0.02018,0.0104 -0.06315,0.0312 -0.06445,0.0312 0.01939,-0.0106 0.0451,-0.0207 0.06445,-0.0312 z m 34.189453,0 c -0.02018,0.0104 -0.06315,0.0312 -0.06445,0.0312 0.01939,-0.0106 0.0451,-0.0207 0.06445,-0.0312 z m 36.781249,0 c -0.0202,0.0104 -0.0632,0.0312 -0.0645,0.0312 0.0194,-0.0107 0.0451,-0.0207 0.0645,-0.0312 z m 49.51172,0 c -0.0202,0.0104 -0.0632,0.0312 -0.0644,0.0312 0.0194,-0.0106 0.0451,-0.0207 0.0644,-0.0312 z" />
    <path
       d="m 27.268533,185.62561 q -1.860357,0 -3.059253,-0.67524 -1.198897,-0.68902 -1.777674,-1.79145 -0.564998,-1.10244 -0.564998,-2.38402 0,-0.93707 0.275609,-1.94304 0.275608,-1.00597 0.647679,-2.05328 0.385852,-1.10243 0.689021,-2.21865 0.30317,-1.12999 0.30317,-2.24621 0,-1.5434 -0.771704,-2.8112 -0.482315,-0.81305 -0.482315,-1.4056 0,-1.3367 2.204868,-1.86036 1.65365,-0.39963 4.464856,-0.39963 1.295359,0 2.356451,0.0413 0.716582,0.0276 1.157556,0.0276 0.440973,0 0.730362,0.27561 0.303169,0.26183 0.454754,0.67524 0.151584,0.41341 0.151584,0.8406 0,0.55122 -0.248047,0.97841 -0.248048,0.4272 -0.730362,0.4272 -0.165365,0 -0.344511,-0.0551 -0.757923,-0.24805 -1.570968,-0.31695 -0.799264,-0.0689 -1.98438,-0.0689 -0.551217,0 -0.909508,0.22049 -0.34451,0.22049 -0.523656,0.53744 -0.165365,0.30317 -0.165365,0.59255 0,0.39964 0.261828,0.66146 0.275608,0.24805 0.771704,0.24805 0.482314,0 0.937068,-0.11024 0.454754,-0.11024 0.854386,-0.24805 0.606339,-0.22049 0.99219,-0.22049 0.454754,0 0.716582,0.50988 0.261828,0.4961 0.261828,1.03353 0,0.41341 -0.179145,0.75792 -0.179146,0.34452 -0.564998,0.34452 -0.303169,0 -0.744142,-0.0827 -0.592558,-0.15158 -1.378042,-0.15158 -0.826825,0 -1.212677,0.1378 -0.372071,0.12403 -0.372071,0.53744 0,0.45475 0.482314,1.25402 0.33073,0.59256 0.826825,1.11621 0.496096,0.50988 1.061093,1.01975 0.689021,0.62012 1.3367,1.3367 0.64768,0.7028 1.061093,1.61231 0.427193,0.89573 0.427193,2.12219 0,1.29536 -0.840606,2.12218 -0.840605,0.81305 -2.177306,1.21268 -1.336701,0.39963 -2.824986,0.39963 z m 18.259056,0 q -1.019751,0 -1.860357,-0.50988 -0.192926,-0.11024 -0.358291,-0.17914 -0.151584,-0.0827 -0.33073,-0.0827 -0.34451,0 -1.088653,0.38585 -0.482315,0.26183 -0.757923,0.26183 -0.372071,0 -0.716582,0.0551 -0.34451,0.0413 -0.64768,0.0413 -1.846576,0 -3.100594,-0.62012 -1.254018,-0.6339 -1.901698,-1.62609 -0.633899,-1.00597 -0.633899,-2.12218 0,-0.88195 0.440973,-1.62609 0.440974,-0.74415 1.171336,-1.39183 0.730362,-0.66146 1.612309,-1.24023 0.881947,-0.57878 1.791455,-1.13 1.102433,-0.64768 2.011941,-1.28158 0.66146,-0.48231 0.937068,-0.8406 0.289389,-0.37207 0.289389,-0.62012 0,-0.41341 -0.606338,-0.42719 -0.523656,0 -1.254018,0.45475 -0.716582,0.44097 -1.240238,1.41938 -0.31695,0.62012 -1.061093,0.62012 -0.702801,0 -1.433163,-0.42719 -0.716582,-0.44097 -1.212677,-1.13 -0.482315,-0.68902 -0.482315,-1.44694 0,-0.74414 0.66146,-1.3367 0.66146,-0.59256 1.736333,-1.00597 1.074873,-0.41341 2.370232,-0.62012 1.29536,-0.22049 2.576939,-0.22049 1.446944,0 2.63206,0.28939 1.185116,0.27561 1.887918,0.88195 0.702801,0.60634 0.702801,1.58475 0,0.30317 -0.33073,1.29536 -0.399632,1.12999 -0.399632,1.5434 0,1.52963 1.584748,4.27193 0.840606,1.59853 0.840606,2.90767 0,1.15756 -0.537437,2.0395 -0.537436,0.86817 -1.405603,1.35049 -0.868166,0.48231 -1.887917,0.48231 z m -5.718874,-5.9118 q 0.523656,0 0.978409,-0.53744 0.454754,-0.55121 0.716582,-1.22645 0.275609,-0.68902 0.275609,-1.10244 0,-0.35829 -0.220487,-0.35829 -0.385852,0 -0.964629,0.50988 -0.564998,0.50987 -1.005971,1.17133 -0.440973,0.64768 -0.440973,1.07488 0,0.22048 0.137804,0.34451 0.137804,0.12402 0.523656,0.12402 z m 22.448305,5.93936 q -0.96463,0 -1.750114,-0.44097 -1.943039,0.41341 -3.500226,0.41341 -3.693153,0 -5.429486,-2.0395 -1.460724,-1.72255 -1.460724,-4.40974 0,-1.70877 0.620119,-3.25218 0.633899,-1.5434 1.763894,-2.72852 1.143774,-1.19889 2.700962,-1.88792 1.570968,-0.68902 3.431324,-0.68902 0.702802,0 1.074873,-0.0965 0.372071,-0.0965 0.372071,-0.38585 0,-0.41341 -0.744142,-1.30914 -0.496095,-0.6339 -0.496095,-1.14378 0,-0.56499 0.440973,-0.96463 0.454754,-0.39963 1.143775,-0.60633 0.702801,-0.22049 1.460724,-0.22049 0.799265,0 1.529627,0.15158 0.730362,0.15159 1.198897,0.52366 0.468534,0.35829 0.468534,0.97841 0,0.49609 -0.358291,1.17134 -0.606339,1.11621 -0.606339,2.48047 0,1.58475 0.881947,3.78962 0.385852,0.96463 0.813045,1.94304 1.488285,3.23839 1.488285,4.50619 0,1.01975 -0.523656,1.99816 -0.523656,0.96463 -1.63987,1.59853 -1.116214,0.62012 -2.880107,0.62012 z m -5.333023,-8.5852 q 0.509876,0 1.267799,-0.20671 1.129994,-0.35829 1.750113,-1.17133 0.6339,-0.81305 0.6339,-1.54341 0,-0.50987 -0.330731,-0.85439 -0.316949,-0.34451 -0.99219,-0.34451 -0.372071,0 -0.881947,0.13781 -1.226457,0.37207 -1.98438,1.2678 -0.757923,0.89572 -0.757923,1.66743 0,0.45475 0.303169,0.75792 0.303169,0.28939 0.99219,0.28939 z m 22.792815,8.55764 q -1.019751,0 -1.860356,-0.50988 -0.192926,-0.11024 -0.358291,-0.17914 -0.151585,-0.0827 -0.33073,-0.0827 -0.344511,0 -1.088654,0.38585 -0.482314,0.26183 -0.757923,0.26183 -0.372071,0 -0.716582,0.0551 -0.34451,0.0413 -0.647679,0.0413 -1.846577,0 -3.100595,-0.62012 -1.254018,-0.6339 -1.901698,-1.62609 -0.633899,-1.00597 -0.633899,-2.12218 0,-0.88195 0.440973,-1.62609 0.440974,-0.74415 1.171336,-1.39183 0.730362,-0.66146 1.612309,-1.24023 0.881947,-0.57878 1.791455,-1.13 1.102433,-0.64768 2.011941,-1.28158 0.66146,-0.48231 0.937069,-0.8406 0.289388,-0.37207 0.289388,-0.62012 0,-0.41341 -0.606338,-0.42719 -0.523656,0 -1.254018,0.45475 -0.716582,0.44097 -1.240238,1.41938 -0.31695,0.62012 -1.061092,0.62012 -0.702802,0 -1.433164,-0.42719 -0.716582,-0.44097 -1.212677,-1.13 -0.482315,-0.68902 -0.482315,-1.44694 0,-0.74414 0.661461,-1.3367 0.66146,-0.59256 1.736332,-1.00597 1.074873,-0.41341 2.370233,-0.62012 1.295359,-0.22049 2.576938,-0.22049 1.446944,0 2.63206,0.28939 1.185116,0.27561 1.887918,0.88195 0.702801,0.60634 0.702801,1.58475 0,0.30317 -0.33073,1.29536 -0.399632,1.12999 -0.399632,1.5434 0,1.52963 1.584748,4.27193 0.840606,1.59853 0.840606,2.90767 0,1.15756 -0.537437,2.0395 -0.537436,0.86817 -1.405602,1.35049 -0.868167,0.48231 -1.887918,0.48231 z m -5.718874,-5.9118 q 0.523656,0 0.97841,-0.53744 0.454754,-0.55121 0.716582,-1.22645 0.275608,-0.68902 0.275608,-1.10244 0,-0.35829 -0.220487,-0.35829 -0.385851,0 -0.964629,0.50988 -0.564997,0.50987 -1.005971,1.17133 -0.440973,0.64768 -0.440973,1.07488 0,0.22048 0.137804,0.34451 0.137804,0.12402 0.523656,0.12402 z m 24.859875,5.9118 q -1.00597,0 -1.887917,-0.49609 -0.881947,-0.4961 -1.433164,-1.36427 -0.537436,-0.88194 -0.537436,-2.0395 0,-1.35048 0.909507,-2.94901 0.6339,-1.07487 1.116214,-2.86633 0.496096,-1.80523 0.496096,-3.54156 0,-0.71659 -0.289389,-0.78549 -0.151585,0 -0.427193,0.37207 -0.261828,0.37208 -0.482315,0.95085 -0.206706,0.57878 -0.206706,1.1989 0,0.53744 0.206706,1.07487 0.151585,0.35829 0.151585,0.67524 0,0.50988 -0.33073,0.85439 -0.33073,0.33073 -0.854386,0.50987 -0.523656,0.16537 -1.102434,0.16537 -0.564997,0 -1.102434,-0.16537 -0.523656,-0.17914 -0.854386,-0.50987 -0.33073,-0.34451 -0.33073,-0.85439 0,-0.31695 0.151585,-0.67524 0.206706,-0.52365 0.206706,-1.06109 0,-0.6339 -0.220486,-1.21268 -0.220487,-0.59256 -0.496096,-0.96463 -0.275608,-0.37207 -0.413412,-0.37207 -0.261828,0 -0.261828,0.93707 v 0.48232 q 0,1.65365 0.496095,3.23839 0.509875,1.57097 1.102434,2.54938 0.909507,1.59853 0.909507,2.94901 0,1.15756 -0.551217,2.0395 -0.537436,0.86817 -1.419383,1.36427 -0.868166,0.49609 -1.887917,0.49609 -1.694992,0 -2.824986,-0.59256 -1.116214,-0.60634 -1.667431,-1.55719 -0.551217,-0.96462 -0.551217,-2.0395 0,-0.52365 0.124024,-1.04731 0.440973,-1.65365 1.074873,-3.3073 0.537436,-1.39182 0.937068,-2.7423 0.413413,-1.36426 0.413413,-2.64584 0,-0.74415 -0.192926,-1.44695 -0.179146,-0.71658 -0.606339,-1.41938 -0.413412,-0.7028 -0.413412,-1.21268 0,-0.60634 0.440973,-0.97841 0.454754,-0.38585 1.157555,-0.565 0.702802,-0.17914 1.474505,-0.17914 0.771704,0 1.62609,0.27561 0.868166,0.27561 1.460724,1.00597 l 0.275609,0.35829 q 0.689021,0.92329 1.116214,1.39182 0.427193,0.46854 0.799264,0.46854 0.399632,0 0.895727,-0.53744 0.496096,-0.55122 1.350482,-1.68121 0.592558,-0.73036 1.460724,-1.00597 0.868167,-0.27561 1.62609,-0.27561 0.771707,0 1.474507,0.17914 0.7028,0.17915 1.14377,0.565 0.45476,0.37207 0.45476,0.97841 0,0.50988 -0.4272,1.21268 -0.41341,0.7028 -0.60634,1.41938 -0.17914,0.71658 -0.17914,1.44695 0,1.28158 0.39963,2.64584 0.41341,1.35048 0.95085,2.7423 0.6339,1.65365 1.07487,3.3073 0.12403,0.50988 0.12403,1.03353 0,1.07488 -0.55122,2.0395 -0.55122,0.96463 -1.66743,1.57097 -1.11621,0.59256 -2.824987,0.59256 z m 17.638937,0 q -1.01975,0 -1.86035,-0.50988 -0.19293,-0.11024 -0.35829,-0.17914 -0.15159,-0.0827 -0.33073,-0.0827 -0.34451,0 -1.08866,0.38585 -0.48231,0.26183 -0.75792,0.26183 -0.37207,0 -0.71658,0.0551 -0.34451,0.0413 -0.64768,0.0413 -1.84658,0 -3.1006,-0.62012 -1.25401,-0.6339 -1.90169,-1.62609 -0.6339,-1.00597 -0.6339,-2.12218 0,-0.88195 0.44097,-1.62609 0.44097,-0.74415 1.17134,-1.39183 0.73036,-0.66146 1.6123,-1.24023 0.88195,-0.57878 1.79146,-1.13 1.10243,-0.64768 2.01194,-1.28158 0.66146,-0.48231 0.93707,-0.8406 0.28939,-0.37207 0.28939,-0.62012 0,-0.41341 -0.60634,-0.42719 -0.52366,0 -1.25402,0.45475 -0.71658,0.44097 -1.24024,1.41938 -0.31695,0.62012 -1.06109,0.62012 -0.7028,0 -1.43316,-0.42719 -0.71658,-0.44097 -1.21268,-1.13 -0.48231,-0.68902 -0.48231,-1.44694 0,-0.74414 0.66146,-1.3367 0.66146,-0.59256 1.73633,-1.00597 1.07487,-0.41341 2.37023,-0.62012 1.29536,-0.22049 2.57694,-0.22049 1.44694,0 2.63206,0.28939 1.18512,0.27561 1.88792,0.88195 0.7028,0.60634 0.7028,1.58475 0,0.30317 -0.33073,1.29536 -0.39963,1.12999 -0.39963,1.5434 0,1.52963 1.58474,4.27193 0.84061,1.59853 0.84061,2.90767 0,1.15756 -0.53744,2.0395 -0.53743,0.86817 -1.4056,1.35049 -0.86817,0.48231 -1.88792,0.48231 z m -5.71887,-5.9118 q 0.52366,0 0.97841,-0.53744 0.45475,-0.55121 0.71658,-1.22645 0.27561,-0.68902 0.27561,-1.10244 0,-0.35829 -0.22049,-0.35829 -0.38585,0 -0.96463,0.50988 -0.56499,0.50987 -1.00597,1.17133 -0.44097,0.64768 -0.44097,1.07488 0,0.22048 0.1378,0.34451 0.13781,0.12402 0.52366,0.12402 z m 17.52869,5.95314 q -1.8328,0 -3.15572,-0.62012 -1.32292,-0.62012 -2.19109,-1.66743 -0.85438,-1.04731 -1.26779,-2.38401 -0.41342,-1.35048 -0.41342,-2.79743 0,-1.66743 0.50988,-3.29352 0.52366,-1.63987 1.50206,-2.96279 0.97841,-1.3367 2.37024,-2.13596 1.4056,-0.81305 3.18327,-0.81305 2.08085,0 3.58291,0.96463 1.51585,0.95085 1.58475,2.45292 0,0.62012 -0.42719,1.07487 -0.41341,0.44097 -1.04731,0.67524 -0.6339,0.23427 -1.25402,0.23427 -0.55122,0 -1.00597,-0.20671 -0.45476,-0.22048 -0.64768,-0.66146 -0.0413,-0.11024 -0.0965,-0.35829 -0.0551,-0.34451 -0.19293,-0.78548 -0.1378,-0.44098 -0.39963,-0.77171 -0.24805,-0.34451 -0.68902,-0.34451 -0.59256,0 -0.95085,0.77171 -0.35829,0.75792 -0.35829,1.73633 0,0.73036 0.23426,1.44694 0.23427,0.71659 0.74415,1.18512 0.50987,0.46853 1.3367,0.46853 0.60634,0 1.11621,-0.0965 0.52366,-0.11024 1.03353,-0.39963 0.75793,-0.42719 1.39182,-0.42719 0.86817,0 1.48829,0.60633 0.6339,0.60634 0.97841,1.58475 0.34451,0.96463 0.34451,2.10841 0,1.30914 -0.6339,2.32889 -0.62012,1.00597 -1.66743,1.69499 -1.04731,0.68902 -2.35645,1.04731 -1.29536,0.34451 -2.64584,0.34451 z m 21.70416,-0.0413 q -1.14377,0 -2.09462,-0.57878 -0.95085,-0.59256 -1.52963,-1.57097 -0.57878,-0.99219 -0.57878,-2.19108 l 0.0276,-1.50207 q 0.0413,-0.85438 0.0413,-1.80523 0,-1.28158 -0.11025,-2.37023 -0.16536,-1.15756 -0.62012,-1.68122 -0.44097,-0.53743 -0.95085,-0.53743 -0.53743,0 -0.9784,0.53743 -0.4272,0.53744 -0.4272,1.50207 0,1.54341 1.24024,3.41754 1.25402,1.87414 1.25402,3.55535 0,1.46073 -0.90951,2.34267 -0.90951,0.88195 -2.28755,0.88195 -1.84658,0 -3.03169,-0.66146 -1.18512,-0.67524 -1.75011,-1.73633 -0.565,-1.06109 -0.565,-2.23243 0,-1.3367 0.31695,-2.56316 0.33073,-1.24024 0.71658,-2.39779 0.34451,-1.00597 0.59256,-1.95682 0.26183,-0.96463 0.26183,-1.87414 0,-0.88195 -0.23427,-1.72255 -0.23427,-0.84061 -0.77171,-1.61231 -0.52365,-0.78548 -0.52365,-1.36426 0,-0.565 0.42719,-0.92329 0.42719,-0.35829 1.10244,-0.52366 0.67524,-0.16536 1.43316,-0.16536 0.79926,0 1.54341,0.20671 0.75792,0.19292 1.24023,0.57877 0.4961,0.38585 0.4961,0.97841 0,0.4272 -0.34451,0.99219 -1.00597,1.48829 -1.00597,1.98438 0,0.20671 0.22048,0.22049 0.3583,0 1.22646,-0.50988 1.39182,-0.74414 2.93523,-0.74414 1.30914,0 2.52182,0.53744 1.21267,0.52365 2.02572,1.58475 0.81304,1.06109 0.96463,2.65962 0.0551,0.81304 0.0827,1.62609 0,1.36426 0.20671,2.64584 0.2067,1.2678 1.01975,2.35645 0.68902,0.92329 0.68902,1.73633 0,0.85439 -0.60634,1.51585 -0.60634,0.64768 -1.50206,1.00597 -0.89573,0.35829 -1.7639,0.35829 z m 15.99908,0 q -1.01975,0 -1.86036,-0.50988 -0.19292,-0.11024 -0.35829,-0.17914 -0.15158,-0.0827 -0.33073,-0.0827 -0.34451,0 -1.08865,0.38585 -0.48232,0.26183 -0.75793,0.26183 -0.37207,0 -0.71658,0.0551 -0.34451,0.0413 -0.64768,0.0413 -1.84657,0 -3.10059,-0.62012 -1.25402,-0.6339 -1.9017,-1.62609 -0.6339,-1.00597 -0.6339,-2.12218 0,-0.88195 0.44097,-1.62609 0.44098,-0.74415 1.17134,-1.39183 0.73036,-0.66146 1.61231,-1.24023 0.88195,-0.57878 1.79145,-1.13 1.10244,-0.64768 2.01194,-1.28158 0.66146,-0.48231 0.93707,-0.8406 0.28939,-0.37207 0.28939,-0.62012 0,-0.41341 -0.60634,-0.42719 -0.52365,0 -1.25401,0.45475 -0.71659,0.44097 -1.24024,1.41938 -0.31695,0.62012 -1.06109,0.62012 -0.70281,0 -1.43317,-0.42719 -0.71658,-0.44097 -1.21268,-1.13 -0.48231,-0.68902 -0.48231,-1.44694 0,-0.74414 0.66146,-1.3367 0.66146,-0.59256 1.73633,-1.00597 1.07488,-0.41341 2.37024,-0.62012 1.29535,-0.22049 2.57693,-0.22049 1.44695,0 2.63206,0.28939 1.18512,0.27561 1.88792,0.88195 0.7028,0.60634 0.7028,1.58475 0,0.30317 -0.33073,1.29536 -0.39963,1.12999 -0.39963,1.5434 0,1.52963 1.58475,4.27193 0.8406,1.59853 0.8406,2.90767 0,1.15756 -0.53743,2.0395 -0.53744,0.86817 -1.4056,1.35049 -0.86817,0.48231 -1.88792,0.48231 z m -5.71888,-5.9118 q 0.52366,0 0.97841,-0.53744 0.45476,-0.55121 0.71659,-1.22645 0.2756,-0.68902 0.2756,-1.10244 0,-0.35829 -0.22048,-0.35829 -0.38586,0 -0.96463,0.50988 -0.565,0.50987 -1.00597,1.17133 -0.44098,0.64768 -0.44098,1.07488 0,0.22048 0.13781,0.34451 0.1378,0.12402 0.52365,0.12402 z m 22.44831,5.93936 q -0.96463,0 -1.75012,-0.44097 -1.94304,0.41341 -3.50022,0.41341 -3.69316,0 -5.42949,-2.0395 -1.46072,-1.72255 -1.46072,-4.40974 0,-1.70877 0.62011,-3.25218 0.6339,-1.5434 1.7639,-2.72852 1.14377,-1.19889 2.70096,-1.88792 1.57097,-0.68902 3.43133,-0.68902 0.7028,0 1.07487,-0.0965 0.37207,-0.0965 0.37207,-0.38585 0,-0.41341 -0.74414,-1.30914 -0.4961,-0.6339 -0.4961,-1.14378 0,-0.56499 0.44097,-0.96463 0.45476,-0.39963 1.14378,-0.60633 0.7028,-0.22049 1.46072,-0.22049 0.79927,0 1.52963,0.15158 0.73036,0.15159 1.1989,0.52366 0.46853,0.35829 0.46853,0.97841 0,0.49609 -0.35829,1.17134 -0.60634,1.11621 -0.60634,2.48047 0,1.58475 0.88195,3.78962 0.38585,0.96463 0.81304,1.94304 1.48829,3.23839 1.48829,4.50619 0,1.01975 -0.52366,1.99816 -0.52365,0.96463 -1.63987,1.59853 -1.11621,0.62012 -2.8801,0.62012 z m -5.33303,-8.5852 q 0.50988,0 1.2678,-0.20671 1.13,-0.35829 1.75012,-1.17133 0.63389,-0.81305 0.63389,-1.54341 0,-0.50987 -0.33073,-0.85439 -0.31695,-0.34451 -0.99219,-0.34451 -0.37207,0 -0.88194,0.13781 -1.22646,0.37207 -1.98438,1.2678 -0.75793,0.89572 -0.75793,1.66743 0,0.45475 0.30317,0.75792 0.30317,0.28939 0.99219,0.28939 z m 18.38307,8.55764 q -1.3367,0 -2.6045,-0.46853 -1.2678,-0.46854 -2.28755,-1.40561 -1.00597,-0.95085 -1.61231,-2.35645 -0.60633,-1.41938 -0.60633,-3.29352 0.0413,-3.07303 1.03353,-5.09875 1.00597,-2.02573 2.61828,-3.01792 1.62609,-1.00597 3.40376,-1.00597 1.35048,0 2.63206,0.565 1.28158,0.55122 2.30133,1.66743 1.01975,1.10243 1.61231,2.75609 0.60634,1.63987 0.60634,3.81717 0,2.0395 -0.62012,3.52779 -0.60634,1.4745 -1.62609,2.43913 -1.01975,0.95085 -2.28755,1.41939 -1.2678,0.45475 -2.56316,0.45475 z m 0.0551,-8.32337 q 0.60634,0 1.10244,-0.66146 0.50987,-0.66146 0.50987,-1.9706 -0.0276,-1.91548 -0.53743,-2.88011 -0.4961,-0.96463 -1.13,-0.96463 -0.38585,0 -0.73036,0.38585 -0.34451,0.38585 -0.57878,1.15756 -0.22048,0.7717 -0.22048,1.92926 0.0138,1.51584 0.44097,2.25998 0.42719,0.74415 1.14377,0.74415 z"
       id="text5"
       style="font-size:28.2223px;font-family:'Super Magic';-inkscape-font-specification:'Super Magic, Normal';fill:#2b5ba7;stroke-width:0.264583"
       aria-label="FadaMachado" />
    <text
       xml:space="preserve"
       style="font-style:normal;font-variant:normal;font-weight:normal;font-stretch:normal;font-size:28.2223px;font-family:'Super Magic';-inkscape-font-specification:'Super Magic, Normal';font-variant-ligatures:normal;font-variant-caps:normal;font-variant-numeric:normal;font-variant-east-asian:normal;text-align:start;writing-mode:lr-tb;direction:ltr;text-anchor:start;fill:#ffffff;stroke-width:0.264583"
       x="21.315392"
       y="185.62561"
       id="text4"
       inkscape:export-filename="fadamachado-txt.svg"
       inkscape:export-xdpi="96"
       inkscape:export-ydpi="96"><tspan
         sodipodi:role="line"
         id="tspan4"
         style="font-style:normal;font-variant:normal;font-weight:normal;font-stretch:normal;font-size:28.2223px;font-family:'Super Magic';-inkscape-font-specification:'Super Magic, Normal';font-variant-ligatures:normal;font-variant-caps:normal;font-variant-numeric:normal;font-variant-east-asian:normal;fill:#ffffff;stroke-width:0.264583"
         x="21.315392"
         y="185.62561">FadaMachado</tspan></text>
    <path
       d="m 27.268533,185.62561 q -1.860357,0 -3.059253,-0.67524 -1.198897,-0.68902 -1.777674,-1.79145 -0.564998,-1.10244 -0.564998,-2.38402 0,-0.93707 0.275609,-1.94304 0.275608,-1.00597 0.647679,-2.05328 0.385852,-1.10243 0.689021,-2.21865 0.30317,-1.12999 0.30317,-2.24621 0,-1.5434 -0.771704,-2.8112 -0.482315,-0.81305 -0.482315,-1.4056 0,-1.3367 2.204868,-1.86036 1.65365,-0.39963 4.464856,-0.39963 1.295359,0 2.356451,0.0413 0.716582,0.0276 1.157556,0.0276 0.440973,0 0.730362,0.27561 0.303169,0.26183 0.454754,0.67524 0.151584,0.41341 0.151584,0.8406 0,0.55122 -0.248047,0.97841 -0.248048,0.4272 -0.730362,0.4272 -0.165365,0 -0.344511,-0.0551 -0.757923,-0.24805 -1.570968,-0.31695 -0.799264,-0.0689 -1.98438,-0.0689 -0.551217,0 -0.909508,0.22049 -0.34451,0.22049 -0.523656,0.53744 -0.165365,0.30317 -0.165365,0.59255 0,0.39964 0.261828,0.66146 0.275608,0.24805 0.771704,0.24805 0.482314,0 0.937068,-0.11024 0.454754,-0.11024 0.854386,-0.24805 0.606339,-0.22049 0.99219,-0.22049 0.454754,0 0.716582,0.50988 0.261828,0.4961 0.261828,1.03353 0,0.41341 -0.179145,0.75792 -0.179146,0.34452 -0.564998,0.34452 -0.303169,0 -0.744142,-0.0827 -0.592558,-0.15158 -1.378042,-0.15158 -0.826825,0 -1.212677,0.1378 -0.372071,0.12403 -0.372071,0.53744 0,0.45475 0.482314,1.25402 0.33073,0.59256 0.826825,1.11621 0.496096,0.50988 1.061093,1.01975 0.689021,0.62012 1.3367,1.3367 0.64768,0.7028 1.061093,1.61231 0.427193,0.89573 0.427193,2.12219 0,1.29536 -0.840606,2.12218 -0.840605,0.81305 -2.177306,1.21268 -1.336701,0.39963 -2.824986,0.39963 z m 18.259056,0 q -1.019751,0 -1.860357,-0.50988 -0.192926,-0.11024 -0.358291,-0.17914 -0.151584,-0.0827 -0.33073,-0.0827 -0.34451,0 -1.088653,0.38585 -0.482315,0.26183 -0.757923,0.26183 -0.372071,0 -0.716582,0.0551 -0.34451,0.0413 -0.64768,0.0413 -1.846576,0 -3.100594,-0.62012 -1.254018,-0.6339 -1.901698,-1.62609 -0.633899,-1.00597 -0.633899,-2.12218 0,-0.88195 0.440973,-1.62609 0.440974,-0.74415 1.171336,-1.39183 0.730362,-0.66146 1.612309,-1.24023 0.881947,-0.57878 1.791455,-1.13 1.102433,-0.64768 2.011941,-1.28158 0.66146,-0.48231 0.937068,-0.8406 0.289389,-0.37207 0.289389,-0.62012 0,-0.41341 -0.606338,-0.42719 -0.523656,0 -1.254018,0.45475 -0.716582,0.44097 -1.240238,1.41938 -0.31695,0.62012 -1.061093,0.62012 -0.702801,0 -1.433163,-0.42719 -0.716582,-0.44097 -1.212677,-1.13 -0.482315,-0.68902 -0.482315,-1.44694 0,-0.74414 0.66146,-1.3367 0.66146,-0.59256 1.736333,-1.00597 1.074873,-0.41341 2.370232,-0.62012 1.29536,-0.22049 2.576939,-0.22049 1.446944,0 2.63206,0.28939 1.185116,0.27561 1.887918,0.88195 0.702801,0.60634 0.702801,1.58475 0,0.30317 -0.33073,1.29536 -0.399632,1.12999 -0.399632,1.5434 0,1.52963 1.584748,4.27193 0.840606,1.59853 0.840606,2.90767 0,1.15756 -0.537437,2.0395 -0.537436,0.86817 -1.405603,1.35049 -0.868166,0.48231 -1.887917,0.48231 z m -5.718874,-5.9118 q 0.523656,0 0.978409,-0.53744 0.454754,-0.55121 0.716582,-1.22645 0.275609,-0.68902 0.275609,-1.10244 0,-0.35829 -0.220487,-0.35829 -0.385852,0 -0.964629,0.50988 -0.564998,0.50987 -1.005971,1.17133 -0.440973,0.64768 -0.440973,1.07488 0,0.22048 0.137804,0.34451 0.137804,0.12402 0.523656,0.12402 z m 22.448305,5.93936 q -0.96463,0 -1.750114,-0.44097 -1.943039,0.41341 -3.500226,0.41341 -3.693153,0 -5.429486,-2.0395 -1.460724,-1.72255 -1.460724,-4.40974 0,-1.70877 0.620119,-3.25218 0.633899,-1.5434 1.763894,-2.72852 1.143774,-1.19889 2.700962,-1.88792 1.570968,-0.68902 3.431324,-0.68902 0.702802,0 1.074873,-0.0965 0.372071,-0.0965 0.372071,-0.38585 0,-0.41341 -0.744142,-1.30914 -0.496095,-0.6339 -0.496095,-1.14378 0,-0.56499 0.440973,-0.96463 0.454754,-0.39963 1.143775,-0.60633 0.702801,-0.22049 1.460724,-0.22049 0.799265,0 1.529627,0.15158 0.730362,0.15159 1.198897,0.52366 0.468534,0.35829 0.468534,0.97841 0,0.49609 -0.358291,1.17134 -0.606339,1.11621 -0.606339,2.48047 0,1.58475 0.881947,3.78962 0.385852,0.96463 0.813045,1.94304 1.488285,3.23839 1.488285,4.50619 0,1.01975 -0.523656,1.99816 -0.523656,0.96463 -1.63987,1.59853 -1.116214,0.62012 -2.880107,0.62012 z m -5.333023,-8.5852 q 0.509876,0 1.267799,-0.20671 1.129994,-0.35829 1.750113,-1.17133 0.6339,-0.81305 0.6339,-1.54341 0,-0.50987 -0.330731,-0.85439 -0.316949,-0.34451 -0.99219,-0.34451 -0.372071,0 -0.881947,0.13781 -1.226457,0.37207 -1.98438,1.2678 -0.757923,0.89572 -0.757923,1.66743 0,0.45475 0.303169,0.75792 0.303169,0.28939 0.99219,0.28939 z m 22.792815,8.55764 q -1.019751,0 -1.860356,-0.50988 -0.192926,-0.11024 -0.358291,-0.17914 -0.151585,-0.0827 -0.33073,-0.0827 -0.344511,0 -1.088654,0.38585 -0.482314,0.26183 -0.757923,0.26183 -0.372071,0 -0.716582,0.0551 -0.34451,0.0413 -0.647679,0.0413 -1.846577,0 -3.100595,-0.62012 -1.254018,-0.6339 -1.901698,-1.62609 -0.633899,-1.00597 -0.633899,-2.12218 0,-0.88195 0.440973,-1.62609 0.440974,-0.74415 1.171336,-1.39183 0.730362,-0.66146 1.612309,-1.24023 0.881947,-0.57878 1.791455,-1.13 1.102433,-0.64768 2.011941,-1.28158 0.66146,-0.48231 0.937069,-0.8406 0.289388,-0.37207 0.289388,-0.62012 0,-0.41341 -0.606338,-0.42719 -0.523656,0 -1.254018,0.45475 -0.716582,0.44097 -1.240238,1.41938 -0.31695,0.62012 -1.061092,0.62012 -0.702802,0 -1.433164,-0.42719 -0.716582,-0.44097 -1.212677,-1.13 -0.482315,-0.68902 -0.482315,-1.44694 0,-0.74414 0.661461,-1.3367 0.66146,-0.59256 1.736332,-1.00597 1.074873,-0.41341 2.370233,-0.62012 1.295359,-0.22049 2.576938,-0.22049 1.446944,0 2.63206,0.28939 1.185116,0.27561 1.887918,0.88195 0.702801,0.60634 0.702801,1.58475 0,0.30317 -0.33073,1.29536 -0.399632,1.12999 -0.399632,1.5434 0,1.52963 1.584748,4.27193 0.840606,1.59853 0.840606,2.90767 0,1.15756 -0.537437,2.0395 -0.537436,0.86817 -1.405602,1.35049 -0.868167,0.48231 -1.887918,0.48231 z m -5.718874,-5.9118 q 0.523656,0 0.97841,-0.53744 0.454754,-0.55121 0.716582,-1.22645 0.275608,-0.68902 0.275608,-1.10244 0,-0.35829 -0.220487,-0.35829 -0.385851,0 -0.964629,0.50988 -0.564997,0.50987 -1.005971,1.17133 -0.440973,0.64768 -0.440973,1.07488 0,0.22048 0.137804,0.34451 0.137804,0.12402 0.523656,0.12402 z m 24.859875,5.9118 q -1.00597,0 -1.887917,-0.49609 -0.881947,-0.4961 -1.433164,-1.36427 -0.537436,-0.88194 -0.537436,-2.0395 0,-1.35048 0.909507,-2.94901 0.6339,-1.07487 1.116214,-2.86633 0.496096,-1.80523 0.496096,-3.54156 0,-0.71659 -0.289389,-0.78549 -0.151585,0 -0.427193,0.37207 -0.261828,0.37208 -0.482315,0.95085 -0.206706,0.57878 -0.206706,1.1989 0,0.53744 0.206706,1.07487 0.151585,0.35829 0.151585,0.67524 0,0.50988 -0.33073,0.85439 -0.33073,0.33073 -0.854386,0.50987 -0.523656,0.16537 -1.102434,0.16537 -0.564997,0 -1.102434,-0.16537 -0.523656,-0.17914 -0.854386,-0.50987 -0.33073,-0.34451 -0.33073,-0.85439 0,-0.31695 0.151585,-0.67524 0.206706,-0.52365 0.206706,-1.06109 0,-0.6339 -0.220486,-1.21268 -0.220487,-0.59256 -0.496096,-0.96463 -0.275608,-0.37207 -0.413412,-0.37207 -0.261828,0 -0.261828,0.93707 v 0.48232 q 0,1.65365 0.496095,3.23839 0.509875,1.57097 1.102434,2.54938 0.909507,1.59853 0.909507,2.94901 0,1.15756 -0.551217,2.0395 -0.537436,0.86817 -1.419383,1.36427 -0.868166,0.49609 -1.887917,0.49609 -1.694992,0 -2.824986,-0.59256 -1.116214,-0.60634 -1.667431,-1.55719 -0.551217,-0.96462 -0.551217,-2.0395 0,-0.52365 0.124024,-1.04731 0.440973,-1.65365 1.074873,-3.3073 0.537436,-1.39182 0.937068,-2.7423 0.413413,-1.36426 0.413413,-2.64584 0,-0.74415 -0.192926,-1.44695 -0.179146,-0.71658 -0.606339,-1.41938 -0.413412,-0.7028 -0.413412,-1.21268 0,-0.60634 0.440973,-0.97841 0.454754,-0.38585 1.157555,-0.565 0.702802,-0.17914 1.474505,-0.17914 0.771704,0 1.62609,0.27561 0.868166,0.27561 1.460724,1.00597 l 0.275609,0.35829 q 0.689021,0.92329 1.116214,1.39182 0.427193,0.46854 0.799264,0.46854 0.399632,0 0.895727,-0.53744 0.496096,-0.55122 1.350482,-1.68121 0.592558,-0.73036 1.460724,-1.00597 0.868167,-0.27561 1.62609,-0.27561 0.771707,0 1.474507,0.17914 0.7028,0.17915 1.14377,0.565 0.45476,0.37207 0.45476,0.97841 0,0.50988 -0.4272,1.21268 -0.41341,0.7028 -0.60634,1.41938 -0.17914,0.71658 -0.17914,1.44695 0,1.28158 0.39963,2.64584 0.41341,1.35048 0.95085,2.7423 0.6339,1.65365 1.07487,3.3073 0.12403,0.50988 0.12403,1.03353 0,1.07488 -0.55122,2.0395 -0.55122,0.96463 -1.66743,1.57097 -1.11621,0.59256 -2.824987,0.59256 z m 17.638937,0 q -1.01975,0 -1.86035,-0.50988 -0.19293,-0.11024 -0.35829,-0.17914 -0.15159,-0.0827 -0.33073,-0.0827 -0.34451,0 -1.08866,0.38585 -0.48231,0.26183 -0.75792,0.26183 -0.37207,0 -0.71658,0.0551 -0.34451,0.0413 -0.64768,0.0413 -1.84658,0 -3.1006,-0.62012 -1.25401,-0.6339 -1.90169,-1.62609 -0.6339,-1.00597 -0.6339,-2.12218 0,-0.88195 0.44097,-1.62609 0.44097,-0.74415 1.17134,-1.39183 0.73036,-0.66146 1.6123,-1.24023 0.88195,-0.57878 1.79146,-1.13 1.10243,-0.64768 2.01194,-1.28158 0.66146,-0.48231 0.93707,-0.8406 0.28939,-0.37207 0.28939,-0.62012 0,-0.41341 -0.60634,-0.42719 -0.52366,0 -1.25402,0.45475 -0.71658,0.44097 -1.24024,1.41938 -0.31695,0.62012 -1.06109,0.62012 -0.7028,0 -1.43316,-0.42719 -0.71658,-0.44097 -1.21268,-1.13 -0.48231,-0.68902 -0.48231,-1.44694 0,-0.74414 0.66146,-1.3367 0.66146,-0.59256 1.73633,-1.00597 1.07487,-0.41341 2.37023,-0.62012 1.29536,-0.22049 2.57694,-0.22049 1.44694,0 2.63206,0.28939 1.18512,0.27561 1.88792,0.88195 0.7028,0.60634 0.7028,1.58475 0,0.30317 -0.33073,1.29536 -0.39963,1.12999 -0.39963,1.5434 0,1.52963 1.58474,4.27193 0.84061,1.59853 0.84061,2.90767 0,1.15756 -0.53744,2.0395 -0.53743,0.86817 -1.4056,1.35049 -0.86817,0.48231 -1.88792,0.48231 z m -5.71887,-5.9118 q 0.52366,0 0.97841,-0.53744 0.45475,-0.55121 0.71658,-1.22645 0.27561,-0.68902 0.27561,-1.10244 0,-0.35829 -0.22049,-0.35829 -0.38585,0 -0.96463,0.50988 -0.56499,0.50987 -1.00597,1.17133 -0.44097,0.64768 -0.44097,1.07488 0,0.22048 0.1378,0.34451 0.13781,0.12402 0.52366,0.12402 z m 17.52869,5.95314 q -1.8328,0 -3.15572,-0.62012 -1.32292,-0.62012 -2.19109,-1.66743 -0.85438,-1.04731 -1.26779,-2.38401 -0.41342,-1.35048 -0.41342,-2.79743 0,-1.66743 0.50988,-3.29352 0.52366,-1.63987 1.50206,-2.96279 0.97841,-1.3367 2.37024,-2.13596 1.4056,-0.81305 3.18327,-0.81305 2.08085,0 3.58291,0.96463 1.51585,0.95085 1.58475,2.45292 0,0.62012 -0.42719,1.07487 -0.41341,0.44097 -1.04731,0.67524 -0.6339,0.23427 -1.25402,0.23427 -0.55122,0 -1.00597,-0.20671 -0.45476,-0.22048 -0.64768,-0.66146 -0.0413,-0.11024 -0.0965,-0.35829 -0.0551,-0.34451 -0.19293,-0.78548 -0.1378,-0.44098 -0.39963,-0.77171 -0.24805,-0.34451 -0.68902,-0.34451 -0.59256,0 -0.95085,0.77171 -0.35829,0.75792 -0.35829,1.73633 0,0.73036 0.23426,1.44694 0.23427,0.71659 0.74415,1.18512 0.50987,0.46853 1.3367,0.46853 0.60634,0 1.11621,-0.0965 0.52366,-0.11024 1.03353,-0.39963 0.75793,-0.42719 1.39182,-0.42719 0.86817,0 1.48829,0.60633 0.6339,0.60634 0.97841,1.58475 0.34451,0.96463 0.34451,2.10841 0,1.30914 -0.6339,2.32889 -0.62012,1.00597 -1.66743,1.69499 -1.04731,0.68902 -2.35645,1.04731 -1.29536,0.34451 -2.64584,0.34451 z m 21.70416,-0.0413 q -1.14377,0 -2.09462,-0.57878 -0.95085,-0.59256 -1.52963,-1.57097 -0.57878,-0.99219 -0.57878,-2.19108 l 0.0276,-1.50207 q 0.0413,-0.85438 0.0413,-1.80523 0,-1.28158 -0.11025,-2.37023 -0.16536,-1.15756 -0.62012,-1.68122 -0.44097,-0.53743 -0.95085,-0.53743 -0.53743,0 -0.9784,0.53743 -0.4272,0.53744 -0.4272,1.50207 0,1.54341 1.24024,3.41754 1.25402,1.87414 1.25402,3.55535 0,1.46073 -0.90951,2.34267 -0.90951,0.88195 -2.28755,0.88195 -1.84658,0 -3.03169,-0.66146 -1.18512,-0.67524 -1.75011,-1.73633 -0.565,-1.06109 -0.565,-2.23243 0,-1.3367 0.31695,-2.56316 0.33073,-1.24024 0.71658,-2.39779 0.34451,-1.00597 0.59256,-1.95682 0.26183,-0.96463 0.26183,-1.87414 0,-0.88195 -0.23427,-1.72255 -0.23427,-0.84061 -0.77171,-1.61231 -0.52365,-0.78548 -0.52365,-1.36426 0,-0.565 0.42719,-0.92329 0.42719,-0.35829 1.10244,-0.52366 0.67524,-0.16536 1.43316,-0.16536 0.79926,0 1.54341,0.20671 0.75792,0.19292 1.24023,0.57877 0.4961,0.38585 0.4961,0.97841 0,0.4272 -0.34451,0.99219 -1.00597,1.48829 -1.00597,1.98438 0,0.20671 0.22048,0.22049 0.3583,0 1.22646,-0.50988 1.39182,-0.74414 2.93523,-0.74414 1.30914,0 2.52182,0.53744 1.21267,0.52365 2.02572,1.58475 0.81304,1.06109 0.96463,2.65962 0.0551,0.81304 0.0827,1.62609 0,1.36426 0.20671,2.64584 0.2067,1.2678 1.01975,2.35645 0.68902,0.92329 0.68902,1.73633 0,0.85439 -0.60634,1.51585 -0.60634,0.64768 -1.50206,1.00597 -0.89573,0.35829 -1.7639,0.35829 z m 15.99908,0 q -1.01975,0 -1.86036,-0.50988 -0.19292,-0.11024 -0.35829,-0.17914 -0.15158,-0.0827 -0.33073,-0.0827 -0.34451,0 -1.08865,0.38585 -0.48232,0.26183 -0.75793,0.26183 -0.37207,0 -0.71658,0.0551 -0.34451,0.0413 -0.64768,0.0413 -1.84657,0 -3.10059,-0.62012 -1.25402,-0.6339 -1.9017,-1.62609 -0.6339,-1.00597 -0.6339,-2.12218 0,-0.88195 0.44097,-1.62609 0.44098,-0.74415 1.17134,-1.39183 0.73036,-0.66146 1.61231,-1.24023 0.88195,-0.57878 1.79145,-1.13 1.10244,-0.64768 2.01194,-1.28158 0.66146,-0.48231 0.93707,-0.8406 0.28939,-0.37207 0.28939,-0.62012 0,-0.41341 -0.60634,-0.42719 -0.52365,0 -1.25401,0.45475 -0.71659,0.44097 -1.24024,1.41938 -0.31695,0.62012 -1.06109,0.62012 -0.70281,0 -1.43317,-0.42719 -0.71658,-0.44097 -1.21268,-1.13 -0.48231,-0.68902 -0.48231,-1.44694 0,-0.74414 0.66146,-1.3367 0.66146,-0.59256 1.73633,-1.00597 1.07488,-0.41341 2.37024,-0.62012 1.29535,-0.22049 2.57693,-0.22049 1.44695,0 2.63206,0.28939 1.18512,0.27561 1.88792,0.88195 0.7028,0.60634 0.7028,1.58475 0,0.30317 -0.33073,1.29536 -0.39963,1.12999 -0.39963,1.5434 0,1.52963 1.58475,4.27193 0.8406,1.59853 0.8406,2.90767 0,1.15756 -0.53743,2.0395 -0.53744,0.86817 -1.4056,1.35049 -0.86817,0.48231 -1.88792,0.48231 z m -5.71888,-5.9118 q 0.52366,0 0.97841,-0.53744 0.45476,-0.55121 0.71659,-1.22645 0.2756,-0.68902 0.2756,-1.10244 0,-0.35829 -0.22048,-0.35829 -0.38586,0 -0.96463,0.50988 -0.565,0.50987 -1.00597,1.17133 -0.44098,0.64768 -0.44098,1.07488 0,0.22048 0.13781,0.34451 0.1378,0.12402 0.52365,0.12402 z m 22.44831,5.93936 q -0.96463,0 -1.75012,-0.44097 -1.94304,0.41341 -3.50022,0.41341 -3.69316,0 -5.42949,-2.0395 -1.46072,-1.72255 -1.46072,-4.40974 0,-1.70877 0.62011,-3.25218 0.6339,-1.5434 1.7639,-2.72852 1.14377,-1.19889 2.70096,-1.88792 1.57097,-0.68902 3.43133,-0.68902 0.7028,0 1.07487,-0.0965 0.37207,-0.0965 0.37207,-0.38585 0,-0.41341 -0.74414,-1.30914 -0.4961,-0.6339 -0.4961,-1.14378 0,-0.56499 0.44097,-0.96463 0.45476,-0.39963 1.14378,-0.60633 0.7028,-0.22049 1.46072,-0.22049 0.79927,0 1.52963,0.15158 0.73036,0.15159 1.1989,0.52366 0.46853,0.35829 0.46853,0.97841 0,0.49609 -0.35829,1.17134 -0.60634,1.11621 -0.60634,2.48047 0,1.58475 0.88195,3.78962 0.38585,0.96463 0.81304,1.94304 1.48829,3.23839 1.48829,4.50619 0,1.01975 -0.52366,1.99816 -0.52365,0.96463 -1.63987,1.59853 -1.11621,0.62012 -2.8801,0.62012 z m -5.33303,-8.5852 q 0.50988,0 1.2678,-0.20671 1.13,-0.35829 1.75012,-1.17133 0.63389,-0.81305 0.63389,-1.54341 0,-0.50987 -0.33073,-0.85439 -0.31695,-0.34451 -0.99219,-0.34451 -0.37207,0 -0.88194,0.13781 -1.22646,0.37207 -1.98438,1.2678 -0.75793,0.89572 -0.75793,1.66743 0,0.45475 0.30317,0.75792 0.30317,0.28939 0.99219,0.28939 z m 18.38307,8.55764 q -1.3367,0 -2.6045,-0.46853 -1.2678,-0.46854 -2.28755,-1.40561 -1.00597,-0.95085 -1.61231,-2.35645 -0.60633,-1.41938 -0.60633,-3.29352 0.0413,-3.07303 1.03353,-5.09875 1.00597,-2.02573 2.61828,-3.01792 1.62609,-1.00597 3.40376,-1.00597 1.35048,0 2.63206,0.565 1.28158,0.55122 2.30133,1.66743 1.01975,1.10243 1.61231,2.75609 0.60634,1.63987 0.60634,3.81717 0,2.0395 -0.62012,3.52779 -0.60634,1.4745 -1.62609,2.43913 -1.01975,0.95085 -2.28755,1.41939 -1.2678,0.45475 -2.56316,0.45475 z m 0.0551,-8.32337 q 0.60634,0 1.10244,-0.66146 0.50987,-0.66146 0.50987,-1.9706 -0.0276,-1.91548 -0.53743,-2.88011 -0.4961,-0.96463 -1.13,-0.96463 -0.38585,0 -0.73036,0.38585 -0.34451,0.38585 -0.57878,1.15756 -0.22048,0.7717 -0.22048,1.92926 0.0138,1.51584 0.44097,2.25998 0.42719,0.74415 1.14377,0.74415 z"
       id="text7"
       style="font-size:28.2223px;font-family:'Super Magic';-inkscape-font-specification:'Super Magic, Normal';fill:#ffffff;stroke-width:0.264583"
       aria-label="FadaMachado"
       inkscape:export-filename="fadamachado-txt.svg"
       inkscape:export-xdpi="96"
       inkscape:export-ydpi="96" />
  </g>
</svg>
