<?xml version="1.0" encoding="UTF-8" standalone="no"?>
<!-- Created with Inkscape (http://www.inkscape.org/) -->

<svg
   width="188.10936mm"
   height="26.917965mm"
   viewBox="0 0 188.10936 26.917965"
   version="1.1"
   id="svg1"
   inkscape:version="1.4.2 (ebf0e940d0, 2025-05-08)"
   sodipodi:docname="fada.svg"
   xmlns:inkscape="http://www.inkscape.org/namespaces/inkscape"
   xmlns:sodipodi="http://sodipodi.sourceforge.net/DTD/sodipodi-0.dtd"
   xmlns="http://www.w3.org/2000/svg"
   xmlns:svg="http://www.w3.org/2000/svg">
  <sodipodi:namedview
     id="namedview1"
     pagecolor="#ffffff"
     bordercolor="#000000"
     borderopacity="0.25"
     inkscape:showpageshadow="2"
     inkscape:pageopacity="0.0"
     inkscape:pagecheckerboard="0"
     inkscape:deskcolor="#d1d1d1"
     inkscape:document-units="mm"
     inkscape:zoom="1.2699352"
     inkscape:cx="396.0832"
     inkscape:cy="561.05225"
     inkscape:window-width="1870"
     inkscape:window-height="1070"
     inkscape:window-x="0"
     inkscape:window-y="0"
     inkscape:window-maximized="0"
     inkscape:current-layer="layer1"
     showgrid="false">
    <inkscape:page
       x="-1.7429514e-13"
       y="0"
       width="188.10938"
       height="26.917965"
       id="page2"
       margin="0"
       bleed="0" />
  </sodipodi:namedview>
  <defs
     id="defs1">
    <inkscape:path-effect
       effect="fill_between_many"
       method="originald"
       linkedpaths="#path5,0,1"
       id="path-effect5"
       is_visible="true"
       lpeversion="0"
       join="true"
       close="true"
       autoreverse="true" />
  </defs>
  <g
     inkscape:label="Layer 1"
     inkscape:groupmode="layer"
     id="layer1"
     transform="translate(-18.322262,-162.29296)">
    <path
       inkscape:original-d="M 0,0"
       inkscape:path-effect="#path-effect5"
       d="m 29.197266,162.29297 c -2.03987,0 -3.744769,0.12364 -5.294922,0.49805 -1.061449,0.25295 -2.108194,0.6179 -3.111328,1.46484 -1.006872,0.85009 -1.808594,2.4214 -1.808594,3.8418 0,1.35749 0.465616,2.34829 0.978515,3.21289 a 3.5452909,3.5452909 0 0 0 0.02148,0.0351 c 0.181201,0.29769 0.253906,0.53015 0.253906,0.96875 0,0.42145 -0.05555,0.85236 -0.179687,1.31836 -0.179351,0.66016 -0.38348,1.31803 -0.613282,1.97461 -0.274089,0.77272 -0.512768,1.53527 -0.71875,2.28711 -0.258123,0.94216 -0.402343,1.90943 -0.402343,2.88086 -2e-6,1.37383 0.324207,2.76903 0.955078,4 a 3.5452909,3.5452909 0 0 0 0.01563,0.0312 c 0.711508,1.35526 1.853322,2.47332 3.15039,3.21875 a 3.5452909,3.5452909 0 0 0 0.02539,0.0137 c 1.484411,0.83605 3.132384,1.13086 4.798828,1.13086 1.306648,0 2.601127,-0.17595 3.841797,-0.54687 0.949266,-0.2838 1.833301,-0.76433 2.65625,-1.34571 0.421122,0.31212 0.839268,0.63195 1.300781,0.86524 a 3.5452909,3.5452909 0 0 0 0.02734,0.0137 c 1.458712,0.72134 3.04783,0.98633 4.673828,0.98633 0.359851,0 0.714951,-0.0238 1.070313,-0.0664 a 3.5452909,3.5452909 0 0 0 0.138671,-0.0195 c 0.03191,-0.005 0.07737,-0.01 0.154297,-0.01 0.900634,0 1.417926,-0.18984 1.861328,-0.40429 0.821526,0.31034 1.678373,0.52734 2.535157,0.52734 1.239097,0 2.514676,-0.31957 3.609375,-0.92773 0.466616,-0.25924 0.746808,-0.74135 1.148437,-1.09961 1.873304,1.38595 4.266491,2.02734 6.720703,2.02734 1.127692,0 2.324005,-0.18557 3.544922,-0.41015 0.578948,0.14225 1.130361,0.4375 1.707031,0.4375 1.58937,0 3.161819,-0.26567 4.59961,-1.06446 a 3.5452909,3.5452909 0 0 0 0.0293,-0.0176 c 0.390299,-0.22165 0.736456,-0.53189 1.09375,-0.82031 0.413799,0.30445 0.822998,0.61898 1.27539,0.84766 a 3.5452909,3.5452909 0 0 0 0.02734,0.0137 c 1.458712,0.72134 3.04783,0.98633 4.673828,0.98633 0.359851,0 0.715356,-0.0241 1.06836,-0.0664 a 3.5452909,3.5452909 0 0 0 0.138671,-0.0195 c 0.02882,-0.005 0.07932,-0.01 0.15625,-0.01 0.900631,0 1.417925,-0.18984 1.861329,-0.40429 0.821526,0.31034 1.678372,0.52734 2.535156,0.52734 1.239097,0 2.514676,-0.31957 3.609375,-0.92773 0.314186,-0.17455 0.487015,-0.51876 0.773437,-0.74024 0.299823,0.21793 0.579137,0.47304 0.898438,0.64649 a 3.5452909,3.5452909 0 0 0 0.04492,0.0234 c 1.40196,0.73518 2.931154,0.99805 4.472656,0.99805 1.251397,0 2.540581,-0.33783 3.634766,-0.96094 0.414933,-0.23447 0.664743,-0.6742 1.03125,-0.98828 0.372151,0.31812 0.628629,0.76058 1.050781,0.99805 1.088097,0.61204 2.371606,0.95117 3.625,0.95117 1.547368,0 3.079388,-0.25792 4.488278,-1.00586 a 3.5452909,3.5452909 0 0 0 0.0293,-0.0156 c 0.45519,-0.24726 0.86754,-0.58652 1.27734,-0.92383 0.44458,0.3369 0.89449,0.67013 1.38477,0.91797 a 3.5452909,3.5452909 0 0 0 0.0273,0.0137 c 1.45674,0.72036 3.04587,0.98633 4.67188,0.98633 0.35985,0 0.71495,-0.0238 1.07031,-0.0664 a 3.5452909,3.5452909 0 0 0 0.13867,-0.0195 c 0.0288,-0.005 0.0793,-0.01 0.15625,-0.01 0.89955,0 1.41624,-0.19017 1.85938,-0.40429 0.82153,0.31035 1.67837,0.52734 2.53515,0.52734 1.2391,0 2.51468,-0.31958 3.60938,-0.92773 0.63413,-0.3523 1.05814,-0.97029 1.56641,-1.49805 0.64707,0.52876 1.21892,1.15749 1.9746,1.51172 1.45404,0.68157 3.04038,0.95508 4.66016,0.95508 1.19977,0 2.39507,-0.15397 3.55664,-0.46289 a 3.5452909,3.5452909 0 0 0 0.0254,-0.006 c 1.19826,-0.32795 2.34045,-0.82908 3.36914,-1.50586 0.16606,-0.10925 0.25677,-0.30577 0.41602,-0.42578 0.49902,0.47393 1.04086,0.90155 1.625,1.23437 a 3.5452909,3.5452909 0 0 0 0.0273,0.0156 c 1.47857,0.82526 3.1099,1.10937 4.76172,1.10937 1.31034,0 2.64511,-0.51641 3.79492,-1.27734 0.0633,0.0421 0.0938,0.12195 0.15821,0.16211 a 3.5452909,3.5452909 0 0 0 0.0312,0.0195 c 1.17343,0.71426 2.57907,1.0957 3.9375,1.0957 1.06288,0 2.11325,-0.22382 3.08203,-0.61133 0.56442,-0.22577 1.01875,-0.6759 1.52734,-1.0332 0.31072,0.20701 0.60003,0.45055 0.92969,0.61719 a 3.5452909,3.5452909 0 0 0 0.0273,0.0137 c 1.45872,0.72134 3.04783,0.98633 4.67383,0.98633 0.35985,0 0.71535,-0.0241 1.06836,-0.0664 a 3.5452909,3.5452909 0 0 0 0.13867,-0.0195 c 0.0289,-0.005 0.0793,-0.01 0.15625,-0.01 0.90063,0 1.41792,-0.18983 1.86133,-0.40429 0.82152,0.31034 1.67837,0.52734 2.53516,0.52734 1.23909,0 2.51467,-0.31958 3.60937,-0.92773 0.4662,-0.25901 0.74515,-0.74175 1.14648,-1.09961 1.87425,1.3868 4.26801,2.02734 6.72266,2.02734 1.12759,0 2.32287,-0.18566 3.54297,-0.41015 0.57924,0.1424 1.13006,0.4375 1.70703,0.4375 1.58937,0 3.16147,-0.26439 4.60156,-1.06446 a 3.5452909,3.5452909 0 0 0 0.0293,-0.0176 c 0.63734,-0.36194 1.2326,-0.82691 1.76563,-1.36328 0.87094,0.69262 1.78468,1.34506 2.82226,1.72852 1.22382,0.45227 2.52613,0.68945 3.83203,0.68945 1.27397,0 2.55019,-0.22825 3.75977,-0.66211 a 3.5452909,3.5452909 0 0 0 0.0312,-0.0117 c 1.28661,-0.4755 2.47397,-1.21567 3.47851,-2.15234 a 3.5452909,3.5452909 0 0 0 0.0176,-0.0156 c 1.07954,-1.02116 1.89732,-2.28797 2.46289,-3.66015 0.63139,-1.51865 0.89258,-3.16498 0.89258,-4.88281 0,-1.77757 -0.24876,-3.46604 -0.82617,-5.03321 -0.52669,-1.46208 -1.29195,-2.81306 -2.33203,-3.93945 -0.97643,-1.06604 -2.16342,-1.94284 -3.49414,-2.51758 -1.2723,-0.55822 -2.65774,-0.86133 -4.04493,-0.86133 -1.85065,0 -3.6872,0.559 -5.26171,1.53125 -4.3e-4,2.7e-4 -0.002,-2.6e-4 -0.002,0 -0.59218,0.36455 -1.07315,0.86592 -1.57031,1.34571 0.0471,-0.28001 0.20899,-0.44363 0.20898,-0.76563 0,-1.29701 -0.75583,-2.92336 -1.83789,-3.76758 -0.82629,-0.64789 -1.76123,-1.01972 -2.65429,-1.20507 -0.74392,-0.1544 -1.49833,-0.22461 -2.25,-0.22461 -0.84083,0 -1.68691,0.12868 -2.49414,0.3789 -0.84651,0.2558 -1.70797,0.67696 -2.45118,1.33008 a 3.5452909,3.5452909 0 0 0 -0.041,0.0352 c -0.89053,0.80707 -1.54248,2.22253 -1.57813,3.48632 -0.52038,0.14473 -1.04825,0.2674 -1.54296,0.48438 a 3.5452909,3.5452909 0 0 0 -0.01,0.004 c -1.09773,0.48573 -2.02077,1.26337 -2.92578,2.04687 -0.3164,-1.01053 -0.79723,-1.98455 -1.56445,-2.64648 -1.00647,-0.86834 -2.18698,-1.36442 -3.37891,-1.64453 -1.10856,-0.26923 -2.2623,-0.38868 -3.45703,-0.38868 -1.05111,0 -2.10522,0.0925 -3.15235,0.26953 -1.07313,0.17228 -2.09989,0.43613 -3.06836,0.8086 -1.01852,0.39174 -1.98129,0.91522 -2.82812,1.67383 -0.24696,0.22123 -0.42745,0.57577 -0.64648,0.86914 -0.82029,-0.90191 -1.79351,-1.67517 -2.90821,-2.16016 -1.20594,-0.53296 -2.5255,-0.8036 -3.84375,-0.81836 -0.33278,-0.86779 -0.80561,-1.67789 -1.43945,-2.17773 -0.79172,-0.62728 -1.67033,-0.99894 -2.5293,-1.22071 -0.79776,-0.21707 -1.62318,-0.33007 -2.44726,-0.33007 -0.75701,0 -1.52314,0.0814 -2.27539,0.26562 -0.86396,0.21159 -1.7565,0.59724 -2.53711,1.25195 -0.7852,0.65857 -1.29022,1.77189 -1.50391,2.84571 -1.50149,-0.81378 -3.18532,-1.26367 -4.90039,-1.26367 -1.72629,0 -3.45859,0.42594 -4.95312,1.28906 -0.98979,0.56906 -1.7569,1.43281 -2.5293,2.27539 -0.31296,-0.57131 -0.64794,-1.14176 -1.11524,-1.54492 -1.00277,-0.86514 -2.18377,-1.36409 -3.37695,-1.64453 -1.10986,-0.26954 -2.26425,-0.38868 -3.45898,-0.38868 -1.05111,0 -2.10522,0.0925 -3.15235,0.26953 -1.07313,0.17228 -2.09988,0.43612 -3.06836,0.8086 -0.42418,0.16315 -0.77704,0.48089 -1.17773,0.69726 -0.12433,-1.18689 -0.71449,-2.5004 -1.62109,-3.26757 -0.77294,-0.66097 -1.67234,-1.08321 -2.54883,-1.30664 -0.77598,-0.19778 -1.56729,-0.28711 -2.349613,-0.28711 -0.933944,0 -1.835131,0.16709 -2.699218,0.4414 -0.98693,0.31332 -1.868387,0.93247 -2.607422,1.66016 -0.734195,-0.72312 -1.6115,-1.3398 -2.595703,-1.6543 -0.866513,-0.27899 -1.775473,-0.44726 -2.708985,-0.44726 -0.782324,0 -1.573616,0.0893 -2.349609,0.28711 -0.885269,0.22567 -1.790658,0.63688 -2.570313,1.29687 -0.816601,0.69065 -1.303839,1.81389 -1.509765,2.88281 -0.754656,-0.44704 -1.54482,-0.79984 -2.363281,-0.99218 -1.108564,-0.26923 -2.262296,-0.38868 -3.457032,-0.38868 -1.051106,0 -2.105214,0.0925 -3.152343,0.26953 -1.073136,0.17228 -2.099892,0.43612 -3.06836,0.8086 -0.645105,0.24812 -1.205645,0.68038 -1.791015,1.06055 6.7e-5,-0.0113 0.0078,-0.0159 0.0078,-0.0274 0,-1.29703 -0.755853,-2.92336 -1.837891,-3.76758 -0.826315,-0.64791 -1.76124,-1.01972 -2.654296,-1.20507 -0.743914,-0.15439 -1.498322,-0.22461 -2.25,-0.22461 -0.840831,0 -1.686921,0.12868 -2.494141,0.3789 -0.849106,0.25662 -1.711635,0.6819 -2.449219,1.33008 a 3.5452909,3.5452909 0 0 0 -0.04102,0.0352 c -0.884972,0.80203 -1.54415,2.21151 -1.580079,3.48632 -0.520382,0.14473 -1.048249,0.2674 -1.542968,0.48438 a 3.5452909,3.5452909 0 0 0 -0.0098,0.004 c -1.097732,0.48573 -2.020764,1.26337 -2.925781,2.04687 -0.316397,-1.01054 -0.79722,-1.98455 -1.564453,-2.64648 -1.006456,-0.86833 -2.186976,-1.36442 -3.378907,-1.64453 -1.108563,-0.26923 -2.262295,-0.38868 -3.457031,-0.38868 -1.051106,0 -2.105214,0.0925 -3.152344,0.26953 -0.685724,0.11009 -1.316687,0.32577 -1.960937,0.51563 -0.04949,-0.19027 -0.03737,-0.40165 -0.103516,-0.58203 -0.272376,-0.74283 -0.772727,-1.49094 -1.421875,-2.07227 -0.84605,-0.76393 -2.089442,-1.20312 -3.091797,-1.20312 -0.22169,0 -0.570078,-0.008 -1.017578,-0.0254 h -0.002 c -0.764025,-0.0297 -1.594383,-0.043 -2.49414,-0.043 z"
       id="path6"
       style="fill:#2b5ba7;fill-opacity:1" />
  </g>
</svg>
