<?xml version="1.0" encoding="UTF-8" standalone="no"?>
<!-- Created with Inkscape (http://www.inkscape.org/) -->

<svg
   width="69.436508mm"
   height="27.526066mm"
   viewBox="0 0 69.436508 27.526066"
   version="1.1"
   id="svg1"
   inkscape:version="1.4.2 (ebf0e940d0, 2025-05-08)"
   sodipodi:docname="fada.svg"
   xmlns:inkscape="http://www.inkscape.org/namespaces/inkscape"
   xmlns:sodipodi="http://sodipodi.sourceforge.net/DTD/sodipodi-0.dtd"
   xmlns="http://www.w3.org/2000/svg"
   xmlns:svg="http://www.w3.org/2000/svg">
  <sodipodi:namedview
     id="namedview1"
     pagecolor="#ffffff"
     bordercolor="#000000"
     borderopacity="0.25"
     inkscape:showpageshadow="2"
     inkscape:pageopacity="0.0"
     inkscape:pagecheckerboard="0"
     inkscape:deskcolor="#d1d1d1"
     inkscape:document-units="mm"
     inkscape:zoom="1.2699352"
     inkscape:cx="396.0832"
     inkscape:cy="561.05225"
     inkscape:window-width="1870"
     inkscape:window-height="1070"
     inkscape:window-x="0"
     inkscape:window-y="0"
     inkscape:window-maximized="0"
     inkscape:current-layer="layer1"
     showgrid="false">
    <inkscape:page
       x="0"
       y="0"
       width="69.436508"
       height="27.526066"
       id="page2"
       margin="0"
       bleed="0" />
  </sodipodi:namedview>
  <defs
     id="defs1" />
  <g
     inkscape:label="Layer 1"
     inkscape:groupmode="layer"
     id="layer1"
     transform="translate(-88.426628,-64.141302)">
    <path
       d="m 98.17747,64.166626 a 3.3359258,3.3359258 0 0 0 -0.146244,0.0098 c -1.574303,0.12465 -4.430545,-0.06732 -7.040914,2.039153 a 3.3359258,3.3359258 0 0 0 -0.06253,0.05271 c -1.340693,1.137559 -1.869228,2.920093 -1.802991,4.269507 0.06313,1.286051 0.473744,2.33113 1.082622,3.248381 0.263451,0.533059 0.106354,1.776709 -0.551388,3.657658 -0.74562,2.10448 -2.045447,5.392761 -0.521415,8.968961 1.459313,3.67065 5.102522,5.322553 8.4646,5.236373 1.960042,-0.009 4.52407,-0.271899 6.67194,-1.761649 1.3848,0.93973 2.9857,1.556952 4.61368,1.671732 1.22988,0.1066 2.64196,0.126038 4.16202,-0.277502 a 3.3359258,3.3359258 0 0 0 0.37878,-0.126607 c 0.0679,-0.02705 0.0788,-0.03398 0.0816,-0.03772 2.8e-4,-4.64e-4 7.9e-4,-0.0016 10e-4,-0.0021 0.002,-0.0032 0.009,-0.0084 0.0522,-0.02687 2.60896,0.94744 5.36514,0.448589 7.37113,-1.277441 1.02639,0.69857 2.14875,1.264699 3.41374,1.514119 2.2419,0.50051 4.34674,0.324366 6.27145,-0.0041 2.26963,0.66484 4.50546,0.300765 6.32261,-0.484725 a 3.3359258,3.3359258 0 0 0 0.0703,-0.03307 c 0.53372,-0.2456 0.99859,-0.578278 1.45315,-0.921908 1.34364,0.9117 2.88449,1.530341 4.46484,1.662431 1.29307,0.12996 2.75157,0.145648 4.29845,-0.259932 a 3.3359258,3.3359258 0 0 0 0.38912,-0.127124 c 0.0615,-0.0245 0.0745,-0.03194 0.078,-0.03566 0,0 5.2e-4,-5.17e-4 5.2e-4,-5.17e-4 2.5e-4,-4.43e-4 8e-4,-0.0016 0.001,-0.0021 0.002,-0.0031 0.008,-0.0078 0.0512,-0.02584 3.82249,1.38927 8.11153,-0.355375 9.57978,-4.314465 1.31223,-3.369203 -0.0426,-6.445907 -1.24902,-8.472351 -0.30674,-0.62068 -0.5291,-1.115312 -0.59428,-1.358057 -0.007,-0.02582 -0.0128,-0.04658 -0.0176,-0.06356 a 3.3359258,3.3359258 0 0 0 0.0155,-0.03772 c 0.28492,-0.70954 0.59224,-1.598458 0.65009,-2.744018 0.0578,-1.14555 -0.23869,-2.665084 -1.21284,-3.871082 a 3.3359258,3.3359258 0 0 0 -0.0563,-0.06873 c -2.40301,-2.820294 -5.7554,-2.82126 -7.70341,-2.878894 a 3.3359258,3.3359258 0 0 0 -0.19895,0 c -2.26083,0.06752 -5.044,0.364677 -7.63106,1.855701 -0.23811,-1.99309 -1.61106,-3.726713 -3.56619,-4.374927 -2.51633,-0.860724 -5.84714,-1.061217 -8.56279,1.198894 a 3.3359258,3.3359258 0 0 0 -0.0506,0.04289 c -1.06089,0.918213 -1.47445,2.233664 -1.572,3.447335 -1.52189,0.442345 -2.90884,1.200979 -4.14858,2.185913 -0.0764,-0.190683 -0.0507,-0.379132 -0.15451,-0.566374 a 3.3359258,3.3359258 0 0 0 -0.01,-0.01602 c -0.90892,-1.618477 -2.41452,-2.564093 -3.69538,-3.037023 -1.28086,-0.472931 -2.442,-0.599716 -3.35535,-0.68368 a 3.3359258,3.3359258 0 0 0 -0.12919,-0.0078 c -1.9238,-0.101756 -4.00019,0.185418 -6.06837,0.76171 -0.64869,-2.230371 -2.60387,-4.094909 -5.27564,-3.892268 -1.44387,-0.0385 -2.964388,-0.0874 -4.562001,-0.03152 z"
       style="font-size:28.2223px;font-family:'Super Magic';-inkscape-font-specification:'Super Magic, Normal';fill:#2b5ba7;stroke-width:0.264583"
       id="path21" />
  </g>
</svg>
