<?xml version="1.0" encoding="UTF-8" standalone="no"?>
<!-- Created with Inkscape (http://www.inkscape.org/) -->

<svg
   width="61.681168mm"
   height="19.81624mm"
   viewBox="0 0 61.681168 19.81624"
   version="1.1"
   id="svg1"
   inkscape:version="1.4.2 (ebf0e940d0, 2025-05-08)"
   sodipodi:docname="fada.svg"
   xmlns:inkscape="http://www.inkscape.org/namespaces/inkscape"
   xmlns:sodipodi="http://sodipodi.sourceforge.net/DTD/sodipodi-0.dtd"
   xmlns="http://www.w3.org/2000/svg"
   xmlns:svg="http://www.w3.org/2000/svg">
  <sodipodi:namedview
     id="namedview1"
     pagecolor="#ffffff"
     bordercolor="#000000"
     borderopacity="0.25"
     inkscape:showpageshadow="2"
     inkscape:pageopacity="0.0"
     inkscape:pagecheckerboard="0"
     inkscape:deskcolor="#d1d1d1"
     inkscape:document-units="mm"
     inkscape:zoom="1.2699352"
     inkscape:cx="396.0832"
     inkscape:cy="561.05225"
     inkscape:window-width="1870"
     inkscape:window-height="1070"
     inkscape:window-x="0"
     inkscape:window-y="0"
     inkscape:window-maximized="0"
     inkscape:current-layer="layer1"
     showgrid="false">
    <inkscape:page
       x="0"
       y="0"
       width="61.681168"
       height="19.81624"
       id="page2"
       margin="0"
       bleed="0" />
  </sodipodi:namedview>
  <defs
     id="defs1" />
  <g
     inkscape:label="Layer 1"
     inkscape:groupmode="layer"
     id="layer1"
     transform="translate(-93.069076,-95.416673)">
    <path
       d="m 98.471002,115.20535 q -1.860357,0 -3.059253,-0.67524 -1.198897,-0.68902 -1.777675,-1.79145 -0.564997,-1.10244 -0.564997,-2.38401 0,-0.93707 0.275609,-1.94304 0.275608,-1.00597 0.647679,-2.05329 0.385852,-1.10243 0.689021,-2.21864 0.30317,-1.13 0.30317,-2.24621 0,-1.54341 -0.771704,-2.811208 -0.482315,-0.813045 -0.482315,-1.405603 0,-1.336701 2.204868,-1.860357 1.65365,-0.399632 4.464855,-0.399632 1.29536,0 2.35645,0.04134 0.71658,0.02756 1.15756,0.02756 0.44097,0 0.73036,0.275609 0.30317,0.261828 0.45475,0.67524 0.15159,0.413413 0.15159,0.840606 0,0.551217 -0.24805,0.97841 -0.24805,0.427193 -0.73036,0.427193 -0.16537,0 -0.34451,-0.05512 -0.75793,-0.248048 -1.57097,-0.31695 -0.79926,-0.0689 -1.98438,-0.0689 -0.551217,0 -0.909508,0.220487 -0.344511,0.220487 -0.523656,0.537436 -0.165365,0.303169 -0.165365,0.592558 0,0.399632 0.261828,0.661461 0.275608,0.24804 0.771703,0.24804 0.482318,0 0.937068,-0.11024 0.45475,-0.11024 0.85439,-0.24805 0.60634,-0.220481 0.99219,-0.220481 0.45475,0 0.71658,0.509871 0.26183,0.4961 0.26183,1.03353 0,0.41342 -0.17915,0.75793 -0.17914,0.34451 -0.565,0.34451 -0.30316,0 -0.74414,-0.0827 -0.59256,-0.15159 -1.37804,-0.15159 -0.826825,0 -1.212677,0.1378 -0.372072,0.12403 -0.372072,0.53744 0,0.45476 0.482315,1.25402 0.33073,0.59256 0.826824,1.11621 0.4961,0.50988 1.06109,1.01975 0.68902,0.62012 1.3367,1.33671 0.64768,0.7028 1.0611,1.6123 0.42719,0.89573 0.42719,2.12219 0,1.29536 -0.84061,2.12218 -0.8406,0.81305 -2.1773,1.21268 -1.336703,0.39963 -2.824988,0.39963 z m 18.259058,0 q -1.01975,0 -1.86036,-0.50987 -0.19292,-0.11025 -0.35829,-0.17915 -0.15158,-0.0827 -0.33073,-0.0827 -0.34451,0 -1.08865,0.38585 -0.48232,0.26183 -0.75793,0.26183 -0.37207,0 -0.71658,0.0551 -0.34451,0.0413 -0.64768,0.0413 -1.84657,0 -3.10059,-0.62012 -1.25402,-0.6339 -1.9017,-1.62609 -0.6339,-1.00597 -0.6339,-2.12218 0,-0.88195 0.44097,-1.62609 0.44098,-0.74414 1.17134,-1.39182 0.73036,-0.66146 1.61231,-1.24024 0.88195,-0.57878 1.79145,-1.13 1.10244,-0.64767 2.01194,-1.28157 0.66146,-0.48232 0.93707,-0.84061 0.28939,-0.37207 0.28939,-0.62012 0,-0.41341 -0.60634,-0.42719 -0.52365,0 -1.25401,0.45475 -0.71659,0.44098 -1.24024,1.41939 -0.31695,0.62011 -1.06109,0.62011 -0.70281,0 -1.43317,-0.42719 -0.71658,-0.44097 -1.21268,-1.12999 -0.48231,-0.68902 -0.48231,-1.44695 0,-0.74414 0.66146,-1.3367 0.66146,-0.592556 1.73633,-1.005969 1.07488,-0.413412 2.37024,-0.620119 1.29535,-0.220486 2.57693,-0.220486 1.44695,0 2.63206,0.289389 1.18512,0.275608 1.88792,0.881946 0.7028,0.606339 0.7028,1.584749 0,0.30317 -0.33073,1.29536 -0.39963,1.12999 -0.39963,1.54341 0,1.52962 1.58475,4.27193 0.8406,1.59852 0.8406,2.90766 0,1.15756 -0.53743,2.03951 -0.53744,0.86816 -1.4056,1.35048 -0.86817,0.48231 -1.88792,0.48231 z m -5.71888,-5.9118 q 0.52366,0 0.97841,-0.53743 0.45476,-0.55122 0.71659,-1.22646 0.2756,-0.68902 0.2756,-1.10243 0,-0.3583 -0.22048,-0.3583 -0.38585,0 -0.96463,0.50988 -0.565,0.50988 -1.00597,1.17134 -0.44098,0.64768 -0.44098,1.07487 0,0.22049 0.13781,0.34451 0.1378,0.12402 0.52365,0.12402 z m 22.44831,5.93936 q -0.96463,0 -1.75011,-0.44097 -1.94304,0.41341 -3.50023,0.41341 -3.69315,0 -5.42949,-2.0395 -1.46072,-1.72255 -1.46072,-4.40973 0,-1.70878 0.62012,-3.25218 0.6339,-1.54341 1.76389,-2.72853 1.14378,-1.19889 2.70096,-1.88791 1.57097,-0.68902 3.43133,-0.68902 0.7028,0 1.07487,-0.0965 0.37207,-0.0965 0.37207,-0.385849 0,-0.413413 -0.74414,-1.30914 -0.4961,-0.633899 -0.4961,-1.143775 0,-0.564997 0.44098,-0.964629 0.45475,-0.399632 1.14377,-0.606339 0.7028,-0.220486 1.46073,-0.220486 0.79926,0 1.52962,0.151584 0.73037,0.151585 1.1989,0.523656 0.46853,0.358291 0.46853,0.97841 0,0.496095 -0.35829,1.171336 -0.60633,1.116214 -0.60633,2.480472 0,1.58475 0.88194,3.78962 0.38585,0.96463 0.81305,1.94304 1.48828,3.2384 1.48828,4.5062 0,1.01975 -0.52365,1.99816 -0.52366,0.96463 -1.63987,1.59852 -1.11622,0.62012 -2.88011,0.62012 z m -5.33302,-8.5852 q 0.50987,0 1.26779,-0.2067 1.13,-0.3583 1.75012,-1.17134 0.6339,-0.81304 0.6339,-1.54341 0,-0.50987 -0.33073,-0.85438 -0.31695,-0.34451 -0.99219,-0.34451 -0.37207,0 -0.88195,0.1378 -1.22646,0.37207 -1.98438,1.2678 -0.75792,0.89573 -0.75792,1.66743 0,0.45475 0.30317,0.75792 0.30317,0.28939 0.99219,0.28939 z m 22.79281,8.55764 q -1.01975,0 -1.86036,-0.50987 -0.19292,-0.11025 -0.35829,-0.17915 -0.15158,-0.0827 -0.33073,-0.0827 -0.34451,0 -1.08865,0.38585 -0.48231,0.26183 -0.75792,0.26183 -0.37207,0 -0.71658,0.0551 -0.34452,0.0413 -0.64768,0.0413 -1.84658,0 -3.1006,-0.62012 -1.25402,-0.6339 -1.9017,-1.62609 -0.6339,-1.00597 -0.6339,-2.12218 0,-0.88195 0.44098,-1.62609 0.44097,-0.74414 1.17133,-1.39182 0.73037,-0.66146 1.61231,-1.24024 0.88195,-0.57878 1.79146,-1.13 1.10243,-0.64767 2.01194,-1.28157 0.66146,-0.48232 0.93707,-0.84061 0.28939,-0.37207 0.28939,-0.62012 0,-0.41341 -0.60634,-0.42719 -0.52366,0 -1.25402,0.45475 -0.71658,0.44098 -1.24024,1.41939 -0.31695,0.62011 -1.06109,0.62011 -0.7028,0 -1.43317,-0.42719 -0.71658,-0.44097 -1.21267,-1.12999 -0.48232,-0.68902 -0.48232,-1.44695 0,-0.74414 0.66146,-1.3367 0.66146,-0.592556 1.73634,-1.005969 1.07487,-0.413412 2.37023,-0.620119 1.29536,-0.220486 2.57694,-0.220486 1.44694,0 2.63206,0.289389 1.18511,0.275608 1.88791,0.881946 0.70281,0.606339 0.70281,1.584749 0,0.30317 -0.33073,1.29536 -0.39964,1.12999 -0.39964,1.54341 0,1.52962 1.58475,4.27193 0.84061,1.59852 0.84061,2.90766 0,1.15756 -0.53744,2.03951 -0.53744,0.86816 -1.4056,1.35048 -0.86817,0.48231 -1.88792,0.48231 z m -5.71887,-5.9118 q 0.52365,0 0.97841,-0.53743 0.45475,-0.55122 0.71658,-1.22646 0.27561,-0.68902 0.27561,-1.10243 0,-0.3583 -0.22049,-0.3583 -0.38585,0 -0.96463,0.50988 -0.565,0.50988 -1.00597,1.17134 -0.44097,0.64768 -0.44097,1.07487 0,0.22049 0.1378,0.34451 0.13781,0.12402 0.52366,0.12402 z"
       id="text1"
       style="font-size:28.2223px;font-family:'Super Magic';-inkscape-font-specification:'Super Magic, Normal';stroke-width:0.264583"
       aria-label="Fada" />
  </g>
</svg>
